<?xml version="1.0" ?><svg data-name="Layer 1" id="Layer_1" viewBox="0 0 128 128" xmlns="http://www.w3.org/2000/svg"><title/><line style="fill:none;stroke:#000;stroke-linecap:round;stroke-linejoin:round;stroke-width:2px" x1="69.04" x2="96.84" y1="88.48" y2="95.93"/><path d="M79.15,50.61l-11,40.93a4.7,4.7,0,0,0,3.33,5.77l29.06,7.79a4.71,4.71,0,0,0,5.78-3.33l11.42-42.61" style="fill:none;stroke:#000;stroke-linecap:round;stroke-linejoin:round;stroke-width:2px"/><path d="M115.08,69.21l4.54,1.22a6.41,6.41,0,0,1,4.53,7.85L121.27,89a6.4,6.4,0,0,1-7.85,4.53l-4.54-1.21" style="fill:none;stroke:#000;stroke-linecap:round;stroke-linejoin:round;stroke-width:2px"/><line style="fill:none;stroke:#000;stroke-linecap:round;stroke-linejoin:round;stroke-width:2px" x1="84.38" x2="79.53" y1="64.17" y2="82.28"/><line style="fill:none;stroke:#000;stroke-linecap:round;stroke-linejoin:round;stroke-width:2px" x1="95.02" x2="90.17" y1="67.03" y2="85.13"/><line style="fill:none;stroke:#000;stroke-linecap:round;stroke-linejoin:round;stroke-width:2px" x1="105.66" x2="100.81" y1="69.88" y2="87.98"/><path d="M95.12,41.17a4.84,4.84,0,0,1,.54,5.76" style="fill:none;stroke:#000;stroke-linecap:round;stroke-linejoin:round;stroke-width:2px"/><path d="M122.2,53.71A7.2,7.2,0,0,0,111,46.93a5.36,5.36,0,0,0-3.62-3.3,5.26,5.26,0,0,0-2.92,0,5.37,5.37,0,0,0-9.4-2.52,5.34,5.34,0,0,0-7.78,0,6.19,6.19,0,1,0-5.94,10.38,6.07,6.07,0,0,0,3,.05,9.06,9.06,0,0,1,4.51,0l15.9,4.26a4.6,4.6,0,0,1,3.26,5.64l-.65,2.44a2.48,2.48,0,0,0,1,2.75,2.44,2.44,0,0,0,3.7-1.39l1.22-4.58h0a2.6,2.6,0,0,1,3.19-1.85l1.82.49A7.21,7.21,0,0,0,122.2,53.71Z" style="fill:none;stroke:#000;stroke-linecap:round;stroke-linejoin:round;stroke-width:2px"/><line style="fill:none;stroke:#000;stroke-linecap:round;stroke-linejoin:round;stroke-width:2px" x1="58.96" x2="31.16" y1="88.99" y2="96.44"/><line style="fill:none;stroke:#000;stroke-linecap:round;stroke-linejoin:round;stroke-width:2px" x1="26.51" x2="20.82" y1="97.68" y2="99.21"/><path d="M48.85,51.12,59.81,92a4.71,4.71,0,0,1-3.33,5.78l-29.06,7.79a4.72,4.72,0,0,1-5.78-3.34L10.52,60.78" style="fill:none;stroke:#000;stroke-linecap:round;stroke-linejoin:round;stroke-width:2px"/><path d="M12.92,69.72,8.38,70.94a6.4,6.4,0,0,0-4.53,7.85L6.73,89.55a6.4,6.4,0,0,0,7.85,4.53l4.54-1.22" style="fill:none;stroke:#000;stroke-linecap:round;stroke-linejoin:round;stroke-width:2px"/><line style="fill:none;stroke:#000;stroke-linecap:round;stroke-linejoin:round;stroke-width:2px" x1="43.62" x2="48.47" y1="64.68" y2="82.79"/><line style="fill:none;stroke:#000;stroke-linecap:round;stroke-linejoin:round;stroke-width:2px" x1="32.98" x2="37.83" y1="67.53" y2="85.64"/><line style="fill:none;stroke:#000;stroke-linecap:round;stroke-linejoin:round;stroke-width:2px" x1="22.34" x2="27.19" y1="70.38" y2="88.49"/><path d="M40.67,41.72a4.82,4.82,0,0,0-1,3.41" style="fill:none;stroke:#000;stroke-linecap:round;stroke-linejoin:round;stroke-width:2px"/><path d="M50.8,43.81a6.17,6.17,0,0,0-10.1-2.14,5.34,5.34,0,0,0-5.27-1.5,5.26,5.26,0,0,0-2.51,1.5,5.37,5.37,0,0,0-9.4,2.51A5.34,5.34,0,0,0,17,47.44,7.2,7.2,0,0,0,5.8,54.21c.19,1.58.82,7.26,7,6.67,4.21-.4,5.59-3.4,12.73-5.18l13.57-3.64a9.3,9.3,0,0,1,4.51,0,6.18,6.18,0,0,0,7.18-8.28Z" style="fill:none;stroke:#000;stroke-linecap:round;stroke-linejoin:round;stroke-width:2px"/><line style="fill:none;stroke:#000;stroke-linecap:round;stroke-linejoin:round;stroke-width:2px" x1="74.48" x2="74.5" y1="24.38" y2="24.38"/><line style="fill:none;stroke:#000;stroke-linecap:round;stroke-linejoin:round;stroke-width:2px" x1="80.94" x2="80.95" y1="22.23" y2="22.23"/><line style="fill:none;stroke:#000;stroke-linecap:round;stroke-linejoin:round;stroke-width:2px" x1="120.72" x2="120.73" y1="37.04" y2="37.04"/><line style="fill:none;stroke:#000;stroke-linecap:round;stroke-linejoin:round;stroke-width:2px" x1="15.56" x2="15.57" y1="38.39" y2="38.39"/><line style="fill:none;stroke:#000;stroke-linecap:round;stroke-linejoin:round;stroke-width:2px" x1="55.47" x2="55.48" y1="52.02" y2="52.02"/><line style="fill:none;stroke:#000;stroke-linecap:round;stroke-linejoin:round;stroke-width:2px" x1="45.7" x2="45.71" y1="29.98" y2="29.98"/><line style="fill:none;stroke:#000;stroke-linecap:round;stroke-linejoin:round;stroke-width:2px" x1="64" x2="64.01" y1="27.41" y2="37.05"/><path d="M69.47,37A7.49,7.49,0,0,1,77,29.53" style="fill:none;stroke:#000;stroke-linecap:round;stroke-linejoin:round;stroke-width:2px"/><path d="M58.56,37.07a7.5,7.5,0,0,0-7.51-7.49" style="fill:none;stroke:#000;stroke-linecap:round;stroke-linejoin:round;stroke-width:2px"/></svg>