<?xml version="1.0" ?><svg data-name="Layer 1" id="Layer_1" viewBox="0 0 128 128" xmlns="http://www.w3.org/2000/svg"><title/><path d="M59,47.82l4.22,5a1,1,0,0,0,1.52,0l4.22-5a4.9,4.9,0,0,0,1.1-2.28,3.49,3.49,0,0,0,.06-.61,3.86,3.86,0,0,0-3.86-3.86,3.76,3.76,0,0,0-2.28.75,3.76,3.76,0,0,0-2.28-.75,3.86,3.86,0,0,0-3.86,3.86,3.49,3.49,0,0,0,.06.61A4.9,4.9,0,0,0,59,47.82Zm2.7-4.75a1.84,1.84,0,0,1,1.48.74,1,1,0,0,0,1.6,0,1.86,1.86,0,0,1,3.34,1.12,1.13,1.13,0,0,1,0,.25,2.83,2.83,0,0,1-.66,1.36L64,50.63l-3.45-4.09a2.83,2.83,0,0,1-.66-1.36,1.13,1.13,0,0,1,0-.25A1.86,1.86,0,0,1,61.72,43.07Z"/><path d="M63.68,65.49l3.45,1.78a1,1,0,0,0,.46.11,1,1,0,0,0,.46-1.88l-3.46-1.79a1,1,0,0,0-.91,1.78Z"/><path d="M110.27,89.74,87.55,78.91v-8A1,1,0,0,0,87,70l-8.71-4.72V43.51a1,1,0,0,0-.21-.62L65,26.18V17h4.5a1,1,0,1,0,0-2H65V9.88a1,1,0,1,0-2,0V15H58.5a1,1,0,0,0,0,2H63v9.19L49.9,42.89a1,1,0,0,0-.21.62V65.22L41,70a1,1,0,0,0-.52.87v8L17.73,89.74a1,1,0,0,0-.56.9v16.7a0,0,0,0,0,0,0v4.37H15.05a1,1,0,0,0-1,1v5.38a1,1,0,0,0,1,1H113a1,1,0,0,0,1-1v-5.38a1,1,0,0,0-1-1h-2.11V90.64A1,1,0,0,0,110.27,89.74Zm-1.43,1.53v15.1h-2.93V93.93a1,1,0,0,0-.56-.9L92.64,86.94a1,1,0,1,0-.87,1.8l12.14,5.82v11.81H87.55V81.13ZM51.69,43.86,64,28.14,76.31,43.86V64.2l-12-6.5a1,1,0,0,0-1,0l-8,4.39V54.6a1,1,0,0,0-2,0v8.59l-1.69.93Zm3,20.87a.83.83,0,0,0,.16-.09l9-4.92L85.55,71.49v34.88H82.92V73.78a1,1,0,0,0-.54-.89L73,68.06a1,1,0,1,0-.92,1.78l8.82,4.55v32H76.38V89.15A11.27,11.27,0,0,0,65.13,77.9H62.87A11.27,11.27,0,0,0,51.62,89.15v17.22H42.45V71.48Zm19.65,41.64H53.62V89.15a9.26,9.26,0,0,1,9.25-9.25h2.26a9.26,9.26,0,0,1,9.25,9.25ZM40.45,81.13v25.24H24.07V94.56l12.14-5.82a1,1,0,0,0-.86-1.8L22.64,93a1,1,0,0,0-.57.9v12.44h-2.9V91.27ZM100,111.74a1,1,0,0,0,0,2h12v3.38H16.05v-3.38H91.7a1,1,0,0,0,0-2H19.16v-3.37h89.68v3.37Z"/></svg>