<?xml version="1.0" ?><svg data-name="Layer 1" id="Layer_1" viewBox="0 0 128 128" xmlns="http://www.w3.org/2000/svg"><title/><line style="fill:none;stroke:#000;stroke-linecap:round;stroke-linejoin:round;stroke-width:2px" x1="17.62" x2="16.1" y1="68.84" y2="70.35"/><line style="fill:none;stroke:#000;stroke-linecap:round;stroke-linejoin:round;stroke-width:2px" x1="11.54" x2="10.02" y1="74.92" y2="76.44"/><line style="fill:none;stroke:#000;stroke-linecap:round;stroke-linejoin:round;stroke-width:2px" x1="10.02" x2="11.54" y1="68.84" y2="70.35"/><line style="fill:none;stroke:#000;stroke-linecap:round;stroke-linejoin:round;stroke-width:2px" x1="16.1" x2="17.62" y1="74.92" y2="76.44"/><line style="fill:none;stroke:#000;stroke-linecap:round;stroke-linejoin:round;stroke-width:2px" x1="101.76" x2="100.24" y1="27.51" y2="29.03"/><line style="fill:none;stroke:#000;stroke-linecap:round;stroke-linejoin:round;stroke-width:2px" x1="95.68" x2="94.16" y1="33.6" y2="35.12"/><line style="fill:none;stroke:#000;stroke-linecap:round;stroke-linejoin:round;stroke-width:2px" x1="94.16" x2="95.68" y1="27.51" y2="29.03"/><line style="fill:none;stroke:#000;stroke-linecap:round;stroke-linejoin:round;stroke-width:2px" x1="100.24" x2="101.76" y1="33.6" y2="35.12"/><line style="fill:none;stroke:#000;stroke-linecap:round;stroke-linejoin:round;stroke-width:2px" x1="37.99" x2="36.47" y1="24.61" y2="26.12"/><line style="fill:none;stroke:#000;stroke-linecap:round;stroke-linejoin:round;stroke-width:2px" x1="31.91" x2="30.39" y1="30.69" y2="32.21"/><line style="fill:none;stroke:#000;stroke-linecap:round;stroke-linejoin:round;stroke-width:2px" x1="30.39" x2="31.91" y1="24.61" y2="26.12"/><line style="fill:none;stroke:#000;stroke-linecap:round;stroke-linejoin:round;stroke-width:2px" x1="36.47" x2="37.99" y1="30.69" y2="32.21"/><path d="M102.22,97.83a1.2,1.2,0,1,0,1.2-1.2A1.2,1.2,0,0,0,102.22,97.83Z"/><path d="M114.13,36.84a1.2,1.2,0,1,0,1.19-1.2A1.19,1.19,0,0,0,114.13,36.84Z"/><path d="M89.77,69.82a1.2,1.2,0,1,0,1.2-1.2A1.2,1.2,0,0,0,89.77,69.82Z"/><path d="M84.65,22.31a1.2,1.2,0,1,0,1.19-1.2A1.19,1.19,0,0,0,84.65,22.31Z"/><path d="M36.9,43a1.2,1.2,0,1,0,1.2-1.2A1.19,1.19,0,0,0,36.9,43Z"/><path d="M21.22,83.07a1.2,1.2,0,1,0,1.2-1.19A1.19,1.19,0,0,0,21.22,83.07Z"/><path d="M13.42,95.7a1.2,1.2,0,1,0,1.2-1.2A1.2,1.2,0,0,0,13.42,95.7Z"/><path d="M14.62,33.71a1.2,1.2,0,1,0,1.2-1.2A1.2,1.2,0,0,0,14.62,33.71Z"/><path d="M36.34,94.21a40.41,40.41,0,0,0-20-5.61" style="fill:none;stroke:#000;stroke-linecap:round;stroke-linejoin:round;stroke-width:2px"/><path d="M49,112.31c0-5.45-3-10.48-7.64-14.48" style="fill:none;stroke:#000;stroke-linecap:round;stroke-linejoin:round;stroke-width:2px"/><path d="M113.3,88.84a37,37,0,0,1,4-.24" style="fill:none;stroke:#000;stroke-linecap:round;stroke-linejoin:round;stroke-width:2px"/><path d="M84.67,112.31c0-9.66,9.45-18,20.55-21.66" style="fill:none;stroke:#000;stroke-linecap:round;stroke-linejoin:round;stroke-width:2px"/><path d="M55.84,111.88A39,39,0,0,0,22.42,73.27" style="fill:none;stroke:#000;stroke-linecap:round;stroke-linejoin:round;stroke-width:2px"/><path d="M77.87,111.88a39,39,0,0,1,39-39" style="fill:none;stroke:#000;stroke-linecap:round;stroke-linejoin:round;stroke-width:2px"/><path d="M69.86,111.88c0-24.65,11.44-45.63,27.51-53.65" style="fill:none;stroke:#000;stroke-linecap:round;stroke-linejoin:round;stroke-width:2px"/><path d="M63.85,111.88c0-26.26-13-48.36-30.72-55" style="fill:none;stroke:#000;stroke-linecap:round;stroke-linejoin:round;stroke-width:2px"/><line style="fill:none;stroke:#000;stroke-linecap:round;stroke-linejoin:round;stroke-width:2px" x1="66.86" x2="66.86" y1="62.73" y2="46.72"/><line style="fill:none;stroke:#000;stroke-linecap:round;stroke-linejoin:round;stroke-width:2px" x1="66.86" x2="66.86" y1="56.05" y2="40.05"/><line style="fill:none;stroke:#000;stroke-linecap:round;stroke-linejoin:round;stroke-width:2px" x1="66.86" x2="66.86" y1="73.96" y2="68.3"/><line style="fill:none;stroke:#000;stroke-linecap:round;stroke-linejoin:round;stroke-width:2px" x1="50.51" x2="47.91" y1="45.86" y2="38.82"/><line style="fill:none;stroke:#000;stroke-linecap:round;stroke-linejoin:round;stroke-width:2px" x1="59.25" x2="53" y1="69.54" y2="52.61"/><line style="fill:none;stroke:#000;stroke-linecap:round;stroke-linejoin:round;stroke-width:2px" x1="64.34" x2="61.61" y1="83.34" y2="75.94"/><line style="fill:none;stroke:#000;stroke-linecap:round;stroke-linejoin:round;stroke-width:2px" x1="84.84" x2="85.8" y1="41.41" y2="38.82"/><line style="fill:none;stroke:#000;stroke-linecap:round;stroke-linejoin:round;stroke-width:2px" x1="77.52" x2="83.25" y1="61.26" y2="45.73"/><line style="fill:none;stroke:#000;stroke-linecap:round;stroke-linejoin:round;stroke-width:2px" x1="71.44" x2="75.28" y1="77.73" y2="67.31"/><polygon points="66.86 32.73 61.93 37.29 62.41 30.59 55.78 29.58 61.32 25.79 57.97 19.96 64.39 21.93 66.86 15.69 69.32 21.93 75.74 19.96 72.4 25.79 77.94 29.58 71.3 30.59 71.79 37.29 66.86 32.73" style="fill:none;stroke:#000;stroke-linecap:round;stroke-linejoin:round;stroke-width:2px"/><polygon points="106.67 57.92 101.35 62.03 102.43 55.4 95.91 53.8 101.76 50.51 98.94 44.42 105.16 46.95 108.17 40.94 110.08 47.38 116.64 45.99 112.8 51.49 117.98 55.76 111.28 56.18 111.18 62.9 106.67 57.92" style="fill:none;stroke:#000;stroke-linecap:round;stroke-linejoin:round;stroke-width:2px"/><polygon points="23.23 55.66 18.56 60.48 18.68 53.77 11.99 53.12 17.32 49.03 13.66 43.4 20.17 45.01 22.29 38.64 25.1 44.74 31.4 42.42 28.38 48.42 34.12 51.9 27.55 53.28 28.4 59.94 23.23 55.66" style="fill:none;stroke:#000;stroke-linecap:round;stroke-linejoin:round;stroke-width:2px"/></svg>