<?xml version="1.0" ?><svg data-name="Layer 1" id="Layer_1" viewBox="0 0 128 128" xmlns="http://www.w3.org/2000/svg"><title/><path d="M115.51,32.26A4.49,4.49,0,0,0,111,27.78H100.22a10,10,0,0,0-19.88,0H72.72a10,10,0,0,0-19.88,0H45a10,10,0,0,0-19.89,0,4.47,4.47,0,0,0-4.18,4.45V86.33H14.13a1.13,1.13,0,0,0-.32.06,1.07,1.07,0,0,0-.32-.06,1,1,0,0,0-1,1A12.52,12.52,0,0,0,21,99.15a.82.82,0,0,0-.07.31v5.59a4.17,4.17,0,0,0,4.17,4.16h86a4.48,4.48,0,0,0,4.48-4.47ZM111,29.78a2.48,2.48,0,0,1,2.48,2.48V44.34h-8.75V29.78Zm-20.75-9a8,8,0,0,1,7.93,7H82.36A8,8,0,0,1,90.28,20.79Zm-27.5,0a8,8,0,0,1,7.93,7H54.86A8,8,0,0,1,62.78,20.79ZM35,20.79a8,8,0,0,1,7.92,7H27.08A8,8,0,0,1,35,20.79Zm-9.94,9A10,10,0,0,0,31,38a4.07,4.07,0,0,0,.51,1.83A4,4,0,0,0,34,41.64a4.19,4.19,0,0,0,1,.14,4,4,0,0,0,2-.54,4,4,0,0,0-4-6.93h0a3.89,3.89,0,0,0-1.54,1.63,8,8,0,0,1-4.39-6.16H52.84a10,10,0,0,0,6,8.17,4,4,0,0,0,3,3.69,4.07,4.07,0,0,0,1,.14,3.94,3.94,0,0,0,2-.54,4,4,0,0,0-1-7.33,4,4,0,0,0-3,.4,4,4,0,0,0-1.54,1.63,8,8,0,0,1-4.38-6.16H80.34a10,10,0,0,0,6.47,8.36,4,4,0,0,0,2.94,3.5,4.07,4.07,0,0,0,1,.14,3.92,3.92,0,0,0,2-.54,4,4,0,1,0-5.63-5.1,8,8,0,0,1-4.79-6.36h20.4V44.34H22.88V32.26A2.48,2.48,0,0,1,25.07,29.81Zm9.94,7a7.81,7.81,0,0,1-1.62-.17A2,2,0,0,1,34,36a2,2,0,0,1,1.51-.2,2,2,0,0,1,1.22.94,2,2,0,0,1,.2,1.51A2,2,0,0,1,36,39.51a2,2,0,0,1-2.73-.73.71.71,0,0,1-.08-.18,9.83,9.83,0,0,0,1.81.18,1,1,0,0,0,0-2Zm27.77,0a7.88,7.88,0,0,1-1.62-.17,2.12,2.12,0,0,1,.62-.57,2.06,2.06,0,0,1,1.52-.2,2,2,0,0,1,1.21.94,2,2,0,1,1-3.46,2L61,38.6a9.83,9.83,0,0,0,1.81.18,1,1,0,0,0,0-2Zm27.5,0a7.46,7.46,0,0,1-1.16-.1,2.13,2.13,0,0,1,.66-.64,2.07,2.07,0,0,1,1.52-.2,1.94,1.94,0,0,1,1.21.94,2,2,0,0,1-2.25,2.93,2,2,0,0,1-1.21-.93s0-.06,0-.09a10.69,10.69,0,0,0,1.27.09,1,1,0,0,0,0-2Zm-67.4,9.56h79.88v41A10.51,10.51,0,0,1,82,89.64h2.57a1,1,0,0,0,1-1v-6.7h3.79a1,1,0,0,0,1-1V74.58a1,1,0,0,0-1-1H85.57V52.72a1,1,0,0,0-1-1H78a1,1,0,0,0-.76.35L57.63,74.74a1,1,0,0,0-.22.88l1.27,5.55a1,1,0,0,0,1,.77H76.08v4.39h-23V52.72a1,1,0,0,0-1-1H46.77a.87.87,0,0,0-.28.05l-10.24,3A1,1,0,0,0,35.56,56l1.63,6.41a1,1,0,0,0,1.21.73l5-1.22V86.33H22.88Zm54.2,33.6H60.46l-1-4.28L78.4,53.72h5.17V74.58a1,1,0,0,0,1,1h3.79v4.36H84.57a1,1,0,0,0-1,1v6.7H81.76c0-.11,0-.21,0-.31a1,1,0,0,0-1-1,1.16,1.16,0,0,0-.37.07,1,1,0,0,0-.36-.07H78.08V80.94A1,1,0,0,0,77.08,79.94ZM45,59.88a1,1,0,0,0-.85-.18L38.89,61l-1.15-4.53,9.18-2.74h4.2V86.33H45.38V60.67A1,1,0,0,0,45,59.88ZM14.54,88.33H79.79a12.51,12.51,0,0,0,5.7,9.51H25.74a1.11,1.11,0,0,0-.37.07,1.11,1.11,0,0,0-.37-.07A10.52,10.52,0,0,1,14.54,88.33Zm8.34,16.72V99.64a12.38,12.38,0,0,0,2.12.2.91.91,0,0,0,.37-.08.91.91,0,0,0,.37.08H92.25a12.51,12.51,0,0,0,10.51-5.75v13.12H25.05A2.17,2.17,0,0,1,22.88,105.05ZM111,107.21h-6.27V46.34h8.75v58.4A2.48,2.48,0,0,1,111,107.21Z"/><path d="M78.08,63.47a1,1,0,0,0-1.76-.65L66.84,73.93A1,1,0,0,0,66.7,75a1,1,0,0,0,.91.58h9.47a1,1,0,0,0,1-1Zm-2,10.11H69.77l6.31-7.39Z"/></svg>