<?xml version="1.0" ?><svg data-name="Layer 1" id="Layer_1" viewBox="0 0 128 128" xmlns="http://www.w3.org/2000/svg"><defs><style>.cls-1{fill:none;stroke:#000;stroke-linecap:round;stroke-linejoin:round;stroke-width:2px;}</style></defs><title/><path class="cls-1" d="M23.92,47.61c.42.56.85,1.13,1.28,1.68"/><path class="cls-1" d="M13.67,31.31A122.85,122.85,0,0,0,21.12,43.7"/><path class="cls-1" d="M9.92,23.37c.32.76.65,1.52,1,2.28"/><path class="cls-1" d="M2.38,3.43C-1.81,17,9.51,41,23.38,54.93a61.85,61.85,0,0,0,10.55,8.53,3.23,3.23,0,0,0,3.46,0,25.11,25.11,0,0,1,7.91-3.22,5.59,5.59,0,0,1,5.87,2.3l38,58a9.88,9.88,0,0,0,.85,1,10.53,10.53,0,0,0,15.58-.71c3.52-4.23,2.92-10.44-.82-14.46a6.66,6.66,0,0,0-.92-.92Z"/><line class="cls-1" x1="114.09" x2="89.93" y1="17.84" y2="42.11"/><line class="cls-1" x1="120.22" x2="96.06" y1="23.99" y2="48.26"/><path class="cls-1" d="M57.32,71.9l-39.2,33.21a10.54,10.54,0,0,0-1,.89,10.92,10.92,0,0,0,0,15.39,10.81,10.81,0,0,0,15.33,0,13,13,0,0,0,1-1.22L64.31,82.55"/><path class="cls-1" d="M126.5,30,102,54.6a13,13,0,0,1-18.42,0h0a13.09,13.09,0,0,1,0-18.42l24.55-24.65"/><line class="cls-1" x1="72.16" x2="86.57" y1="73.46" y2="56.85"/><line class="cls-1" x1="81.3" x2="64.66" y1="51.52" y2="65.96"/><line class="cls-1" x1="26.45" x2="40.27" y1="98.05" y2="111.87"/><line class="cls-1" x1="52.92" x2="41.66" y1="96.44" y2="85.17"/><line class="cls-1" x1="29.72" x2="42.99" y1="95.28" y2="108.55"/><line class="cls-1" x1="50.2" x2="38.39" y1="99.75" y2="87.94"/><line class="cls-1" x1="74.17" x2="85.17" y1="97.57" y2="86.57"/><line class="cls-1" x1="82.16" x2="71.77" y1="83.54" y2="93.93"/><line class="cls-1" x1="82.9" x2="96.17" y1="110.88" y2="97.61"/><line class="cls-1" x1="93.15" x2="80.51" y1="94.59" y2="107.23"/></svg>