<?xml version="1.0" ?><svg data-name="Layer 1" id="Layer_1" viewBox="0 0 128 128" xmlns="http://www.w3.org/2000/svg"><title/><path d="M62.52,51.45,27.81,46.32a1,1,0,0,0-1.13.84L24.12,64.4A18.51,18.51,0,0,0,38.89,85.14l-3.09,22.1-15.12,3.61a1,1,0,0,0,.09,2L50.35,117h.14a1,1,0,0,0,.5-1.87l-13.23-7.5,3.11-22.21c.58,0,1.16.09,1.74.09A18.39,18.39,0,0,0,60.8,69.82l2.56-17.24a1,1,0,0,0-.19-.74A1,1,0,0,0,62.52,51.45Zm-34-3,32.72,4.83-1.33,9L27.18,57.38Zm-2.24,63.12,10.1-2.41,9,5.13Zm26.1-31.26A16.6,16.6,0,0,1,26.1,64.69l.79-5.33,32.72,4.86-.79,5.3A16.29,16.29,0,0,1,52.37,80.31Z"/><path d="M37.66,77.62c-8.49-4.24-6.54-13.85-6.45-14.26a1,1,0,0,0-2-.43c0,.12-2.38,11.54,7.52,16.48a1,1,0,0,0,.45.11,1,1,0,0,0,.89-.55A1,1,0,0,0,37.66,77.62Z"/><path d="M91.25,79.52a.93.93,0,0,0,.5-.14c9.38-5.42,7-16.34,7-16.45a1,1,0,1,0-2,.44c.09.39,2,9.6-6,14.28a1,1,0,0,0,.5,1.87Z"/><path d="M54.25,26.7a1,1,0,0,0-.53,1.93c.08,0,7.93,2.23,8.35,10.27a1,1,0,0,0,1,1h0a1,1,0,0,0,.95-1.05C63.57,29.33,54.34,26.72,54.25,26.7Z"/><path d="M83.17,32.8a1,1,0,0,0-1-1c-.13,0-13,.13-14.5,10.64a1,1,0,0,0,.85,1.13h.14a1,1,0,0,0,1-.85c1.25-8.8,12.06-8.93,12.52-8.93A1,1,0,0,0,83.17,32.8Z"/><path d="M74.24,42.48a1,1,0,0,0,.85,1.13h.14a1,1,0,0,0,1-.86c.34-2.42,3.49-2.47,3.62-2.47a1,1,0,0,0,0-2C78.11,38.29,74.71,39.16,74.24,42.48Z"/><path d="M107.32,110.85,92.2,107.24l-3.09-22.1A18.51,18.51,0,0,0,103.88,64.4l-2.56-17.24a1,1,0,0,0-1.13-.84L65.48,51.45a1,1,0,0,0-.65.39,1,1,0,0,0-.19.74L67.2,69.81A18.39,18.39,0,0,0,85.39,85.53c.58,0,1.16,0,1.74-.09l3.11,22.21L77,115.15a1,1,0,0,0,.5,1.87h.14l29.58-4.2a1,1,0,0,0,.09-2Zm-7.83-62.4,1.33,8.93L68.1,62.25l-1.33-9ZM75.63,80.31a16.29,16.29,0,0,1-6.45-10.79l-.79-5.3,32.72-4.86.79,5.33A16.6,16.6,0,0,1,75.63,80.31Zm7,34,9-5.13,10.1,2.41Z"/><path d="M68,48a1,1,0,0,0,0-2h0a1,1,0,1,0,0,2Z"/><path d="M50.75,28.08a1,1,0,0,0,0-2h0a1,1,0,0,0-1,1A1,1,0,0,0,50.75,28.08Z"/><path d="M48.06,32.13a1,1,0,0,0,1.17-.79,1,1,0,0,0-.77-1.17c-.14,0-3.36-.67-5.53.54a1,1,0,0,0-.39,1.36,1,1,0,0,0,.87.51,1.07,1.07,0,0,0,.49-.12A7.19,7.19,0,0,1,48.06,32.13Z"/><path d="M77.85,22c0-.05.11-.3.13-.37l.1-.33a6.52,6.52,0,0,0-.57-4.79,5.86,5.86,0,0,0-3.69-2.92,6,6,0,0,0-5.39,1.3,6,6,0,0,0-4.07-3.75,6.24,6.24,0,0,0-7.48,4.71c0,.06-.05.23-.07.32s-.05.3-.06.34c-.82,5,6.39,12.67,7.21,13.53a1,1,0,0,0,.72.31,1,1,0,0,0,.3,0C66.12,30,76.16,26.75,77.85,22ZM76,21.34c-1.08,3-7.82,5.83-11,6.9C62.72,25.76,58.2,20,58.73,16.85l.1-.52A4.34,4.34,0,0,1,62.91,13a3.45,3.45,0,0,1,1,.13,4.13,4.13,0,0,1,3,4.11,1,1,0,0,0,1.87.49,4.13,4.13,0,0,1,4.61-2.15,3.92,3.92,0,0,1,2.44,1.94,4.58,4.58,0,0,1,.39,3.32l-.07.23S76,21.28,76,21.34Z"/><path d="M45,43.76l.15.23c2,2.81,9.07,3,9.87,3.07h0a1,1,0,0,0,.89-.54c.37-.7,3.59-7,2.12-10.09l-.13-.27L57.82,36l0,0a4.43,4.43,0,0,0-6-1.72,4.19,4.19,0,0,0-2,2.9,4.24,4.24,0,0,0-3.51.34,4.16,4.16,0,0,0-2,2.72,4.5,4.5,0,0,0,.51,3.3A2.27,2.27,0,0,0,45,43.76Zm1.29-3.11a2.13,2.13,0,0,1,2.11-1.73,2.5,2.5,0,0,1,1.77.76,1,1,0,0,0,1.22.17,1,1,0,0,0,.45-1.15,2.36,2.36,0,0,1,1-2.73,2.44,2.44,0,0,1,3.27,1l.86-.51-.86.52.14.27c.74,1.56-.61,5.37-1.79,7.78-2.67-.15-6.66-.82-7.66-2.22l-.18-.26A2.58,2.58,0,0,1,46.28,40.65Z"/></svg>