<?xml version="1.0" ?><svg data-name="Layer 1" id="Layer_1" viewBox="0 0 128 128" xmlns="http://www.w3.org/2000/svg"><title/><path d="M63.32,32.14a1,1,0,0,0,1.05,0c1.1-.69,10.77-6.82,11.26-12.21,0-.05,0-.37,0-.45s0-.34,0-.35a6.7,6.7,0,0,0-6.51-6.87,6.46,6.46,0,0,0-5.33,2.91,6.43,6.43,0,0,0-5.32-2.91A6.7,6.7,0,0,0,52,19.13s0,.22,0,.31,0,.42,0,.46C52.55,25.32,62.22,31.45,63.32,32.14Zm-4.8-17.88a4.61,4.61,0,0,1,4.36,3.59,1,1,0,0,0,1.93,0,4.61,4.61,0,0,1,4.36-3.59,4.71,4.71,0,0,1,4.51,4.86v.27c0,.05,0,.25,0,.33-.32,3.54-6.75,8.4-9.8,10.38-3.05-2-9.47-6.84-9.79-10.39,0-.05,0-.29,0-.35v-.23A4.71,4.71,0,0,1,58.52,14.26Z"/><path d="M38.71,42.48a9.15,9.15,0,0,0,8.2-13.19,5.54,5.54,0,0,0,2.21-4.08c0-2-.27-3.15-1.79-5.65a.93.93,0,0,0-.86-.48,1,1,0,0,0-.86.49c-.55.95-1.85,3.19-8.74.53a6.09,6.09,0,0,0-5.6,1,7.17,7.17,0,0,0-3.37,5.58,13.28,13.28,0,0,0,1.66,6.71A9.16,9.16,0,0,0,38.71,42.48Zm0-2a7.15,7.15,0,0,1-7.15-7.15s0-.07,0-.1a1,1,0,0,0,0-.25,10.54,10.54,0,0,1,1.1-4,5.49,5.49,0,0,1,1-1.36,14.52,14.52,0,0,0,5.5,3,9.37,9.37,0,0,0,6-.32,7,7,0,0,1,.68,3A7.15,7.15,0,0,1,38.71,40.48Zm-6.3-17.72a4.94,4.94,0,0,1,2.75-1,2.68,2.68,0,0,1,1,.17c4.88,1.88,8.17,1.87,10.2-.09a6.21,6.21,0,0,1,.77,3.34,3.6,3.6,0,0,1-1.51,2.56,6.84,6.84,0,0,1-6,.91,13.57,13.57,0,0,1-5.23-3.08,1,1,0,0,0-1.13-.15A6.07,6.07,0,0,0,30.9,28a13.08,13.08,0,0,0-.68,1.6,14,14,0,0,1-.32-2.91A5.3,5.3,0,0,1,32.41,22.76Z"/><path d="M48.23,47.92a1,1,0,0,0,1,1A8,8,0,0,1,57.1,57V69.23c0,6.21,3.35,10.07,8.75,10.07a1,1,0,0,0,0-2c-6.27,0-6.75-6.18-6.75-8.07V57a10,10,0,0,0-9.87-10.07A1,1,0,0,0,48.23,47.92Z"/><path d="M28.15,79.3a.93.93,0,0,0,.33-.07l1.24,30.52L24.82,114a1,1,0,0,0-.28,1.11,1,1,0,0,0,.93.65H52a1,1,0,0,0,.94-.65,1,1,0,0,0-.28-1.11l-5-4.31h0l2-48.21a1,1,0,0,0-1-1,1,1,0,0,0-1,1l-2,48.06h-6v-27a1,1,0,0,0-2,0v27h-6l-1.51-37h9.14a1,1,0,0,0,0-2H30.12l-.37-9.08a1,1,0,0,0-2,.08l.65,15.9a1,1,0,0,0-.25,0,8,8,0,0,1-7.87-8.07V57a8,8,0,0,1,7.87-8.07,1,1,0,0,0,0-2A10,10,0,0,0,18.28,57V69.23A10,10,0,0,0,28.15,79.3Zm18.47,32.13h0l2.68,2.32H39.69v-2.31Zm-8.93,0v2.31H28.16l2.68-2.31Z"/><path d="M35,61.79a1,1,0,0,0,.12.59L38,67.45a1,1,0,0,0,.87.51,1,1,0,0,0,.87-.51l2.87-5.07a1,1,0,0,0,.13-.59L41.61,49.7a1,1,0,0,0-1-.91H37.07a1,1,0,0,0-1,.91Zm3-11H39.7l1,10.87-1.85,3.27L37,61.66Z"/><path d="M40.59,47.32a1,1,0,0,0,0-2h-3.5a1,1,0,0,0,0,2Z"/><path d="M98.55,28.86a11.87,11.87,0,0,0-20.57,0c-.14.26-.49,1.06-.5,1.08L67.61,53.67c-1.68,3.15-.65,7.26,2.2,8.8a5.29,5.29,0,0,0,4.91.07c0,.22,0,.42-.06.61-.43,6.14-4.07,9.26-10.81,9.26a1,1,0,1,0,0,2c7.87,0,12.3-3.85,12.81-11.12,0-.17,0-.35,0-.53l.24.14a6.3,6.3,0,0,0,2.76,1.21,1,1,0,0,0,.46-.12,14.31,14.31,0,0,0,1.17,2.59C73,70.93,67.39,82,67.39,94.19a35.32,35.32,0,0,0,6.46,21,1,1,0,0,0,.8.4h27.22a1,1,0,0,0,.8-.4,35.32,35.32,0,0,0,6.46-21c0-9.3-3.25-17.93-8.49-23.44a15.46,15.46,0,0,0,1.22-7.6c0-.19,0-.39,0-.61a5.27,5.27,0,0,0,4.9-.07c2.85-1.54,3.88-5.65,2.24-8.71L99,29.92S98.68,29.13,98.55,28.86ZM93.24,66l0,.05a3.63,3.63,0,0,1-.63.73,7.35,7.35,0,0,1-8.67,0,3.49,3.49,0,0,1-.63-.75,13.92,13.92,0,0,1-2-6.14,3.2,3.2,0,0,1,6.07-1.42,1,1,0,0,0,.89.55,1,1,0,0,0,.9-.55,3.2,3.2,0,0,1,6.06,1.42A13.92,13.92,0,0,1,93.24,66Zm8.12,47.66H75.16a29.84,29.84,0,0,1-4.09-8.36,6,6,0,0,0,4.18-1.81,6.08,6.08,0,0,0,4.33,1.82,6,6,0,0,0,4.34-1.82,6.08,6.08,0,0,0,8.68,0,6.08,6.08,0,0,0,8.68,0,6,6,0,0,0,4.17,1.81A29.84,29.84,0,0,1,101.36,113.62Zm5.77-19.43a37.13,37.13,0,0,1-1.14,9.16,1,1,0,0,0-.38-.08,4,4,0,0,1-3.48-2,1,1,0,0,0-1.71,0,4.08,4.08,0,0,1-7,0,1,1,0,0,0-1.71,0,4.07,4.07,0,0,1-7,0,1,1,0,0,0-1.71,0,4.08,4.08,0,0,1-6.56.56,4.46,4.46,0,0,1-.41-.56,1,1,0,0,0-1.71,0,4,4,0,0,1-3.48,2,1,1,0,0,0-.38.08,37.13,37.13,0,0,1-1.14-9.16c0-11.55,5.23-22,13-25.93a.64.64,0,0,0,.13-.1l.08.08a9.31,9.31,0,0,0,11.34,0l0,0a.57.57,0,0,0,.13.1,18.52,18.52,0,0,1,4,2.84,10.39,10.39,0,0,1-6.49,4.34,1,1,0,0,0,.49,1.94,12.53,12.53,0,0,0,7.44-4.83C104.25,77.7,107.13,85.63,107.13,94.19ZM95.19,66.58A15,15,0,0,0,96.36,64a1,1,0,0,0,.46.12,6.3,6.3,0,0,0,2.76-1.21l.24-.14c0,.18,0,.36,0,.53a13.82,13.82,0,0,1-.77,6A20.25,20.25,0,0,0,95.19,66.58Zm10.57-5.87a3.31,3.31,0,0,1-3.06,0,3.59,3.59,0,0,0-1.14-.35c-.13-1-.28-2-.43-3.08-.13-.87-.26-1.77-.38-2.67a7.49,7.49,0,0,0-7.83-6.84,1,1,0,0,0,0,2,5.54,5.54,0,0,1,5.85,5.11c.12.9.25,1.81.38,2.69.15,1.06.3,2.09.42,3-.09,0-.19.06-.28.11s-.45.25-.75.43a12.43,12.43,0,0,1-1.63.89,11.18,11.18,0,0,0,.31-2.26A5.21,5.21,0,0,0,92,54.62a5.14,5.14,0,0,0-3.75,1.61,5.14,5.14,0,0,0-3.75-1.61,5.21,5.21,0,0,0-5.21,5.2,11.18,11.18,0,0,0,.31,2.26A12.43,12.43,0,0,1,78,61.19c-.3-.18-.57-.34-.75-.43s-.19-.07-.28-.11c.13-.94.27-2,.43-3.06.13-.87.25-1.76.38-2.66a5.53,5.53,0,0,1,5.84-5.11,1,1,0,0,0,0-2,7.48,7.48,0,0,0-7.82,6.84c-.13.89-.26,1.78-.38,2.65-.16,1.08-.31,2.14-.44,3.1a3.59,3.59,0,0,0-1.14.35,3.31,3.31,0,0,1-3.06,0c-1.88-1-2.54-3.93-1.35-6.19l9.91-23.79s.32-.73.44-1a9.88,9.88,0,0,1,17,0c.12.23.43.95.43.95h0l10,23.9C108.3,56.78,107.64,59.69,105.76,60.71Z"/><path d="M93.41,29.25a1,1,0,0,0-.81-.91,1,1,0,0,0-1.09.56c-1.44,3.13-8.1,5.87-11.36,5.87a1,1,0,0,0-.15,2,8.39,8.39,0,0,0,16.75.49,1,1,0,0,0,.88-.66A1,1,0,0,0,97,35.3C95.53,34.78,93.57,31.5,93.41,29.25Zm-5,13.7A6.4,6.4,0,0,1,82,36.59c3.25-.56,7.56-2.41,10-4.91a11.4,11.4,0,0,0,2.9,4.56.82.82,0,0,0-.07.31A6.4,6.4,0,0,1,88.39,43Z"/></svg>