<svg width="128" height="128" viewBox="0 0 128 128" fill="none" xmlns="http://www.w3.org/2000/svg">
<path d="M26.9 62.4702C28.0275 64.2158 29.4094 65.7831 31 67.1202" stroke="#84967F" stroke-width="2" stroke-linecap="round" stroke-linejoin="round"/>
<path d="M46.48 30.4799C45.7726 30.4028 45.0615 30.3661 44.35 30.3699" stroke="#84967F" stroke-width="2" stroke-linecap="round" stroke-linejoin="round"/>
<path d="M64.3501 45.4498C63.4979 42.4834 61.9985 39.743 59.9598 37.4259C57.9211 35.1087 55.3938 33.2726 52.5601 32.0498" stroke="#84967F" stroke-width="2" stroke-linecap="round" stroke-linejoin="round"/>
<path d="M71.06 50.5602C71.0616 45.3713 69.5518 40.2943 66.7151 35.9494C63.8783 31.6046 59.8374 28.1802 55.0861 26.0945C50.3348 24.0088 45.0788 23.3522 39.9605 24.205C34.8421 25.0577 30.083 27.3829 26.2645 30.8963C22.4461 34.4098 19.7337 38.9594 18.4588 43.9892C17.1839 49.0191 17.4016 54.3114 19.0855 59.2195C20.7694 64.1276 23.8464 68.4389 27.9406 71.6268C32.0348 74.8146 36.9689 76.7409 42.14 77.1702L40.48 82.6802H48.22L46.57 77.1702C53.2452 76.6135 59.4675 73.569 64.0035 68.6403C68.5395 63.7116 71.0581 57.2585 71.06 50.5602Z" stroke="#84967F" stroke-width="2" stroke-linecap="round" stroke-linejoin="round"/>
<path d="M44.85 83.73C46.28 86.33 49.52 87.73 54.05 88.04C60.05 88.44 61.92 91.85 59.05 97.13C56.89 101.13 56.35 104.61 57.78 107.21" stroke="#84967F" stroke-width="2" stroke-linecap="round" stroke-linejoin="round"/>
<path d="M56.94 48.87C56.9734 47.9981 56.8341 47.1281 56.5301 46.3102C56.2261 45.4923 55.7634 44.7425 55.1686 44.1041C54.5739 43.4656 53.8587 42.951 53.0644 42.5899C52.27 42.2289 51.4121 42.0284 50.54 42C49.0914 42.0314 47.6951 42.5467 46.5733 43.4637C45.4515 44.3807 44.6689 45.6467 44.35 47.06C44.0311 45.6467 43.2484 44.3807 42.1266 43.4637C41.0049 42.5467 39.6085 42.0314 38.16 42C36.4066 42.06 34.7485 42.8126 33.5489 44.0928C32.3493 45.373 31.706 47.0764 31.76 48.83C31.76 49 31.76 49.17 31.76 49.34V49.41C31.76 49.41 31.76 49.52 31.76 49.57C32.34 55.57 44.35 63 44.35 63C44.35 63 56.35 55.57 56.9 49.66C56.8951 49.6068 56.8951 49.5532 56.9 49.5V49.43C56.9 49.26 56.9 49.09 56.9 48.92L56.94 48.87Z" stroke="#84967F" stroke-width="2" stroke-linecap="round" stroke-linejoin="round"/>
<path d="M85.54 68.54C84.54 71.25 81.84 73.15 77.79 74.25C72.44 75.71 71.19 79.25 74.45 83.75C76.92 87.14 77.86 90.34 76.91 93.05C75.84 96.05 72.52 98.12 67.64 99.14C60.84 100.55 59.37 104.72 63.79 110.08C66.96 113.93 68.84 118.25 67.79 121.29" stroke="#84967F" stroke-width="2" stroke-linecap="round" stroke-linejoin="round"/>
<path d="M96.24 33.3C96.2913 31.5481 95.6468 29.8472 94.4475 28.5692C93.2482 27.2912 91.5916 26.54 89.84 26.48C88.3915 26.5114 86.9951 27.0267 85.8734 27.9437C84.7516 28.8607 83.9689 30.1266 83.65 31.54C83.3311 30.1266 82.5485 28.8607 81.4267 27.9437C80.3049 27.0267 78.9086 26.5114 77.46 26.48C75.7075 26.5374 74.0494 27.2878 72.8496 28.5664C71.6497 29.845 71.0061 31.5474 71.06 33.3C71.06 33.47 71.06 33.64 71.06 33.81V33.87C71.0648 33.9265 71.0648 33.9834 71.06 34.04C71.6 39.94 83.61 47.38 83.61 47.38C83.61 47.38 95.66 40 96.2 34.1C96.2 34.04 96.2 33.99 96.2 33.93V33.87C96.2 33.7 96.2 33.53 96.2 33.36L96.24 33.3Z" stroke="#84967F" stroke-width="2" stroke-linecap="round" stroke-linejoin="round"/>
<path d="M83.74 13.5298C78.1 13.5182 72.6743 15.6899 68.6 19.5898" stroke="#84967F" stroke-width="2" stroke-linecap="round" stroke-linejoin="round"/>
<path d="M70 58C73.4851 60.057 77.3951 61.2884 81.43 61.5999L79.78 67.12H87.52L85.86 61.5999C90.712 61.1982 95.3618 59.4774 99.3064 56.6237C103.251 53.7701 106.34 49.8922 108.24 45.4095C110.14 40.9269 110.778 36.0101 110.085 31.1911C109.392 26.372 107.395 21.8342 104.309 18.0684C101.223 14.3025 97.1664 11.4521 92.5776 9.82544C87.9888 8.19875 83.0425 7.85772 78.2739 8.83923C73.5052 9.82074 69.0957 12.0874 65.5224 15.3941C61.949 18.7008 59.3477 22.9216 58 27.5999" stroke="#84967F" stroke-width="2" stroke-linecap="round" stroke-linejoin="round"/>
</svg>
