<svg width="128" height="128" viewBox="0 0 128 128" fill="none" xmlns="http://www.w3.org/2000/svg">
<path d="M115.51 32.2598C115.509 31.6693 115.391 31.0849 115.163 30.54C114.936 29.9951 114.603 29.5004 114.184 29.0843C113.765 28.6681 113.268 28.3387 112.722 28.1149C112.176 27.891 111.59 27.7772 111 27.7798H100.22C99.9506 25.3318 98.7874 23.0693 96.9531 21.4258C95.1189 19.7824 92.7428 18.8736 90.28 18.8736C87.8172 18.8736 85.441 19.7824 83.6068 21.4258C81.7726 23.0693 80.6094 25.3318 80.34 27.7798H72.72C72.4506 25.3318 71.2874 23.0693 69.4531 21.4258C67.6189 19.7824 65.2428 18.8736 62.78 18.8736C60.3172 18.8736 57.941 19.7824 56.1068 21.4258C54.2726 23.0693 53.1094 25.3318 52.84 27.7798H45C44.7412 25.3225 43.5819 23.0481 41.7455 21.395C39.9092 19.7419 37.5258 18.8271 35.055 18.8271C32.5842 18.8271 30.2008 19.7419 28.3645 21.395C26.5281 23.0481 25.3688 25.3225 25.11 27.7798C23.9789 27.8533 22.918 28.3538 22.1419 29.18C21.3659 30.0062 20.9327 31.0963 20.93 32.2298V86.3298H14.13C14.021 86.3342 13.9132 86.3544 13.81 86.3898C13.707 86.3536 13.5991 86.3333 13.49 86.3298C13.2248 86.3298 12.9704 86.4351 12.7829 86.6227C12.5953 86.8102 12.49 87.0646 12.49 87.3298C12.4984 89.9414 13.3234 92.4851 14.8494 94.6046C16.3753 96.7241 18.5259 98.3133 21 99.1498C20.9567 99.2476 20.9329 99.3529 20.93 99.4598V105.05C20.9326 106.154 21.3731 107.212 22.1549 107.992C22.9366 108.772 23.9958 109.21 25.1 109.21H111.1C112.286 109.21 113.424 108.739 114.264 107.901C115.104 107.063 115.577 105.926 115.58 104.74L115.51 32.2598ZM111 29.7798C111.658 29.7798 112.289 30.0411 112.754 30.5062C113.219 30.9712 113.48 31.602 113.48 32.2598V44.3398H104.73V29.7798H111ZM90.25 20.7798C92.1973 20.7815 94.0771 21.4935 95.537 22.7822C96.9968 24.0709 97.9366 25.8478 98.18 27.7798H82.36C82.6054 25.8513 83.5447 24.0781 85.0023 22.7917C86.4598 21.5053 88.3359 20.7937 90.28 20.7898L90.25 20.7798ZM62.75 20.7798C64.6973 20.7815 66.5771 21.4935 68.037 22.7822C69.4968 24.0709 70.4366 25.8478 70.68 27.7798H54.86C55.1054 25.8513 56.0447 24.0781 57.5023 22.7917C58.9598 21.5053 60.8359 20.7937 62.78 20.7898L62.75 20.7798ZM35 20.7898C36.9456 20.794 38.8229 21.507 40.2807 22.7955C41.7385 24.0839 42.6768 25.8595 42.92 27.7898H27.08C27.3232 25.8595 28.2615 24.0839 29.7193 22.7955C31.1771 21.507 33.0544 20.794 35 20.7898ZM25.06 29.7898C25.229 31.5633 25.8687 33.2595 26.913 34.7029C27.9574 36.1463 29.3683 37.2845 31 37.9998C31.0233 38.6415 31.198 39.2686 31.51 39.8298C31.7849 40.281 32.1465 40.6732 32.5739 40.9839C33.0013 41.2946 33.486 41.5175 34 41.6398C34.3265 41.7266 34.6622 41.7736 35 41.7798C35.7025 41.7785 36.3923 41.5923 37 41.2398C37.919 40.7094 38.5896 39.8356 38.8643 38.8107C39.1391 37.7858 38.9954 36.6938 38.465 35.7748C37.9346 34.8558 37.0608 34.1852 36.0359 33.9104C35.011 33.6357 33.919 33.7794 33 34.3098C32.3378 34.6902 31.8022 35.2571 31.46 35.9398C30.2769 35.3548 29.2569 34.4862 28.4909 33.4114C27.725 32.3366 27.2368 31.089 27.07 29.7798H52.84C53.0213 31.5527 53.6732 33.2449 54.7281 34.6813C55.783 36.1178 57.2026 37.2462 58.84 37.9498C58.8794 38.8049 59.1921 39.6248 59.7321 40.289C60.2721 40.9532 61.0109 41.4267 61.84 41.6398C62.1662 41.7278 62.5021 41.7748 62.84 41.7798C63.5429 41.7814 64.2334 41.595 64.84 41.2398C65.5255 40.8418 66.0773 40.2491 66.4253 39.5369C66.7734 38.8248 66.902 38.0253 66.7948 37.2399C66.6877 36.4545 66.3496 35.7187 65.8235 35.1258C65.2974 34.5329 64.607 34.1096 63.84 33.9098C62.8262 33.645 61.749 33.7887 60.84 34.3098C60.1817 34.6952 59.6474 35.2607 59.3 35.9398C58.1188 35.3535 57.1008 34.4844 56.3366 33.4097C55.5725 32.335 55.0858 31.088 54.92 29.7798H80.34C80.5297 31.6386 81.2365 33.407 82.38 34.8846C83.5236 36.3622 85.0582 37.4899 86.81 38.1398C86.8838 38.9536 87.2052 39.7254 87.7308 40.3511C88.2564 40.9768 88.9611 41.4266 89.75 41.6398C90.0762 41.7278 90.4121 41.7748 90.75 41.7798C91.453 41.7824 92.1438 41.5959 92.75 41.2398C93.3005 40.9276 93.7691 40.4893 94.1173 39.9608C94.4655 39.4324 94.6833 38.8288 94.7529 38.1998C94.8224 37.5708 94.7417 36.9342 94.5174 36.3424C94.2931 35.7506 93.9316 35.2205 93.4625 34.7957C92.9935 34.3708 92.4303 34.0633 91.8193 33.8984C91.2083 33.7335 90.5669 33.7159 89.9478 33.8471C89.3287 33.9783 88.7495 34.2545 88.258 34.6531C87.7664 35.0517 87.3764 35.5612 87.12 36.1398C85.8358 35.5901 84.7179 34.7138 83.8776 33.598C83.0372 32.4822 82.5037 31.1658 82.33 29.7798H102.73V44.3398H22.88V32.2598C22.8832 31.6545 23.1076 31.0713 23.511 30.62C23.9144 30.1687 24.4689 29.8806 25.07 29.8098L25.06 29.7898ZM35 36.7898C34.4555 36.7897 33.9126 36.7328 33.38 36.6198C33.5383 36.3698 33.75 36.158 34 35.9998C34.4572 35.7366 35 35.6647 35.51 35.7998C35.7654 35.8681 36.0047 35.9863 36.2141 36.1476C36.4235 36.309 36.5989 36.5102 36.73 36.7398C36.9932 37.197 37.0651 37.7398 36.93 38.2498C36.8677 38.5116 36.7532 38.7581 36.5934 38.9746C36.4336 39.1911 36.2318 39.3731 36 39.5098C35.5411 39.7745 34.9958 39.8463 34.484 39.7095C33.9722 39.5726 33.5355 39.2382 33.27 38.7798C33.2351 38.7238 33.2082 38.6632 33.19 38.5998C33.7865 38.7156 34.3924 38.7759 35 38.7798C35.2652 38.7798 35.5196 38.6744 35.7071 38.4869C35.8946 38.2994 36 38.045 36 37.7798C36 37.5146 35.8946 37.2602 35.7071 37.0727C35.5196 36.8851 35.2652 36.7798 35 36.7798V36.7898ZM62.77 36.7898C62.2256 36.7892 61.6827 36.7323 61.15 36.6198C61.3165 36.3902 61.5273 36.1964 61.77 36.0498C62.2321 35.79 62.7765 35.7184 63.29 35.8498C63.5436 35.9192 63.781 36.038 63.9886 36.1993C64.1962 36.3606 64.37 36.5613 64.5 36.7898C64.6447 37.0174 64.7419 37.272 64.7856 37.5381C64.8294 37.8043 64.8189 38.0766 64.7547 38.3386C64.6906 38.6005 64.5741 38.8469 64.4122 39.0627C64.2504 39.2785 64.0466 39.4593 63.813 39.5943C63.5795 39.7293 63.3211 39.8156 63.0533 39.8481C62.7856 39.8807 62.514 39.8587 62.2549 39.7835C61.9959 39.7084 61.7547 39.5816 61.5459 39.4108C61.3371 39.24 61.165 39.0288 61.04 38.7898L61 38.5998C61.5965 38.7156 62.2024 38.7759 62.81 38.7798C63.0752 38.7798 63.3296 38.6744 63.5171 38.4869C63.7046 38.2994 63.81 38.045 63.81 37.7798C63.81 37.5146 63.7046 37.2602 63.5171 37.0727C63.3296 36.8851 63.0752 36.7798 62.81 36.7798L62.77 36.7898ZM90.27 36.7898C89.8813 36.7867 89.4935 36.7533 89.11 36.6898C89.2808 36.4309 89.506 36.2125 89.77 36.0498C90.2324 35.791 90.7764 35.7194 91.29 35.8498C91.5449 35.9161 91.7837 36.0337 91.9917 36.1953C92.1998 36.3569 92.3727 36.5592 92.5 36.7898C92.6972 37.1323 92.7885 37.5257 92.7624 37.9201C92.7362 38.3145 92.5937 38.6923 92.353 39.0058C92.1122 39.3193 91.784 39.5544 91.4097 39.6815C91.0354 39.8086 90.6318 39.8219 90.25 39.7198C89.7396 39.5819 89.3046 39.2475 89.04 38.7898C89.04 38.7898 89.04 38.7298 89.04 38.6998C89.4612 38.755 89.8852 38.785 90.31 38.7898C90.5752 38.7898 90.8296 38.6844 91.0171 38.4969C91.2046 38.3094 91.31 38.055 91.31 37.7898C91.31 37.5246 91.2046 37.2702 91.0171 37.0827C90.8296 36.8951 90.5752 36.7898 90.31 36.7898H90.27ZM22.87 46.3498H102.75V87.3498C102.731 89.9245 101.768 92.4027 100.044 94.3144C98.3189 96.2261 95.9524 97.4381 93.3932 97.7206C90.834 98.003 88.2601 97.3362 86.16 95.8466C84.0598 94.3571 82.5796 92.1485 82 89.6398H84.57C84.8352 89.6398 85.0896 89.5344 85.2771 89.3469C85.4646 89.1594 85.57 88.905 85.57 88.6398V81.9398H89.36C89.6252 81.9398 89.8796 81.8344 90.0671 81.6469C90.2546 81.4594 90.36 81.205 90.36 80.9398V74.5798C90.36 74.3146 90.2546 74.0602 90.0671 73.8727C89.8796 73.6851 89.6252 73.5798 89.36 73.5798H85.57V52.7198C85.57 52.4546 85.4646 52.2002 85.2771 52.0127C85.0896 51.8251 84.8352 51.7198 84.57 51.7198H78C77.8556 51.7198 77.7128 51.7511 77.5816 51.8115C77.4504 51.8719 77.3339 51.96 77.24 52.0698L57.63 74.7398C57.5266 74.8587 57.4527 75.0005 57.4145 75.1534C57.3762 75.3063 57.3747 75.4661 57.41 75.6198L58.68 81.1698C58.7328 81.3935 58.861 81.5922 59.0432 81.7325C59.2253 81.8727 59.4502 81.9459 59.68 81.9398H76.08V86.3298H53.08V52.7198C53.08 52.4546 52.9746 52.2002 52.7871 52.0127C52.5996 51.8251 52.3452 51.7198 52.08 51.7198H46.77C46.6745 51.721 46.5799 51.7379 46.49 51.7698L36.25 54.7698C35.9958 54.842 35.7805 55.012 35.6512 55.2424C35.5219 55.4729 35.4891 55.7452 35.56 55.9998L37.19 62.4098C37.2538 62.6669 37.4171 62.8882 37.644 63.0251C37.8708 63.162 38.1427 63.2032 38.4 63.1398L43.4 61.9198V86.3298H22.88L22.87 46.3498ZM77.07 79.9498H60.46L59.46 75.6698L78.4 53.7198H83.57V74.5798C83.57 74.845 83.6753 75.0994 83.8629 75.2869C84.0504 75.4744 84.3048 75.5798 84.57 75.5798H88.36V79.9398H84.57C84.3048 79.9398 84.0504 80.0451 83.8629 80.2327C83.6753 80.4202 83.57 80.6746 83.57 80.9398V87.6398H81.76C81.76 87.5298 81.76 87.4298 81.76 87.3298C81.76 87.0646 81.6546 86.8102 81.4671 86.6227C81.2796 86.4351 81.0252 86.3298 80.76 86.3298C80.6337 86.3328 80.5087 86.3565 80.39 86.3998C80.2753 86.3545 80.1533 86.3307 80.03 86.3298H78.08V80.9398C78.08 80.6746 77.9746 80.4202 77.7871 80.2327C77.5996 80.0451 77.3452 79.9398 77.08 79.9398L77.07 79.9498ZM45 59.8798C44.881 59.7878 44.7427 59.7238 44.5956 59.6926C44.4484 59.6615 44.2961 59.6639 44.15 59.6998L38.89 60.9998L37.74 56.4698L46.92 53.7298H51.12V86.3298H45.38V60.6698C45.3808 60.5179 45.347 60.3678 45.2812 60.2309C45.2153 60.094 45.1192 59.974 45 59.8798ZM14.54 88.3298H79.79C79.9453 90.2464 80.5403 92.1014 81.5289 93.7507C82.5175 95.4001 83.8729 96.7993 85.49 97.8398H25.74C25.6136 97.8419 25.4884 97.8656 25.37 97.9098C25.2515 97.8656 25.1264 97.8419 25 97.8398C22.3867 97.8369 19.8681 96.8616 17.9345 95.1036C16.0009 93.3457 14.7909 90.931 14.54 88.3298ZM22.88 105.05V99.6398C23.5796 99.7672 24.2889 99.8341 25 99.8398C25.1276 99.8393 25.2536 99.8121 25.37 99.7598C25.4864 99.8121 25.6124 99.8393 25.74 99.8398H92.25C94.343 99.8371 96.4019 99.3092 98.238 98.3047C100.074 97.3001 101.629 95.8509 102.76 94.0898V107.21H25.05C24.4762 107.21 23.9258 106.983 23.5191 106.578C23.1124 106.173 22.8826 105.624 22.88 105.05ZM111 107.21H104.73V46.3398H113.48V104.74C113.477 105.396 113.215 106.024 112.75 106.487C112.285 106.95 111.656 107.21 111 107.21Z" fill="#297C72"/>
<path d="M78.0799 63.4698C78.0799 63.2654 78.0173 63.0659 77.9004 62.8981C77.7836 62.7304 77.6181 62.6025 77.4264 62.5317C77.2346 62.4608 77.0257 62.4505 76.8279 62.502C76.6301 62.5535 76.4528 62.6644 76.3199 62.8198L66.8399 73.9298C66.7167 74.0761 66.638 74.2546 66.6132 74.4443C66.5884 74.634 66.6185 74.8267 66.6999 74.9998C66.7802 75.1734 66.9087 75.3203 67.07 75.4231C67.2313 75.5259 67.4186 75.5803 67.6099 75.5798H77.0799C77.3451 75.5798 77.5995 75.4744 77.787 75.2869C77.9746 75.0994 78.0799 74.845 78.0799 74.5798V63.4698ZM76.0799 73.5798H69.7699L76.0799 66.1898V73.5798Z" fill="#297C72"/>
</svg>
