<svg width="128" height="128" viewBox="0 0 128 128" fill="none" xmlns="http://www.w3.org/2000/svg">
<path d="M59.0001 47.8199L63.2201 52.8199C63.314 52.9297 63.4305 53.0178 63.5617 53.0783C63.6929 53.1387 63.8356 53.17 63.9801 53.17C64.1245 53.17 64.2673 53.1387 64.3985 53.0783C64.5297 53.0178 64.6462 52.9297 64.7401 52.8199L68.9601 47.8199C69.5201 47.1694 69.8995 46.3832 70.0601 45.5399C70.0979 45.3387 70.118 45.1346 70.1201 44.9299C70.1201 43.9062 69.7134 42.9244 68.9895 42.2005C68.2656 41.4766 67.2838 41.0699 66.2601 41.0699C65.4386 41.0641 64.6377 41.3275 63.9801 41.8199C63.3224 41.3275 62.5216 41.0641 61.7001 41.0699C60.6764 41.0699 59.6945 41.4766 58.9707 42.2005C58.2468 42.9244 57.8401 43.9062 57.8401 44.9299C57.8422 45.1346 57.8622 45.3387 57.9001 45.5399C58.0607 46.3832 58.44 47.1694 59.0001 47.8199ZM61.7001 43.0699C61.9874 43.0691 62.271 43.1357 62.528 43.2642C62.785 43.3927 63.0083 43.5796 63.1801 43.8099C63.2732 43.9341 63.394 44.0349 63.5329 44.1043C63.6717 44.1738 63.8248 44.2099 63.9801 44.2099C64.1353 44.2099 64.2884 44.1738 64.4273 44.1043C64.5662 44.0349 64.6869 43.9341 64.7801 43.8099C65.0155 43.5006 65.3419 43.2729 65.7134 43.1586C66.085 43.0444 66.4829 43.0494 66.8515 43.173C67.22 43.2966 67.5405 43.5325 67.7681 43.8476C67.9956 44.1627 68.1187 44.5412 68.1201 44.9299C68.1293 45.013 68.1293 45.0968 68.1201 45.1799C68.0275 45.6847 67.7993 46.1548 67.4601 46.5399L64.0001 50.6299L60.5501 46.5399C60.2108 46.1548 59.9827 45.6847 59.8901 45.1799C59.8808 45.0968 59.8808 45.013 59.8901 44.9299C59.89 44.4418 60.0819 43.9732 60.4242 43.6252C60.7666 43.2772 61.232 43.0778 61.7201 43.0699H61.7001Z" fill="#84967F"/>
<path d="M63.68 65.4898L67.13 67.2698C67.2724 67.3427 67.4301 67.3805 67.59 67.3798C67.8114 67.3765 68.0253 67.2999 68.1985 67.162C68.3716 67.0241 68.494 66.8326 68.5466 66.6176C68.5992 66.4026 68.579 66.1762 68.4891 65.9739C68.3993 65.7717 68.2448 65.6049 68.05 65.4998L64.59 63.7098C64.3551 63.5983 64.0859 63.5828 63.8396 63.6665C63.5934 63.7502 63.3894 63.9265 63.271 64.1581C63.1526 64.3897 63.1291 64.6583 63.2055 64.9069C63.2818 65.1555 63.4521 65.3646 63.68 65.4898Z" fill="#84967F"/>
<path d="M110.27 89.7399L87.55 78.9099V70.9099C87.5532 70.7218 87.5033 70.5367 87.406 70.3757C87.3087 70.2148 87.168 70.0845 87 69.9999L78.29 65.2799V43.5099C78.2916 43.2855 78.2176 43.0671 78.08 42.8899L65 26.1799V16.9999H69.5C69.7653 16.9999 70.0196 16.8945 70.2072 16.707C70.3947 16.5195 70.5 16.2651 70.5 15.9999C70.5 15.7347 70.3947 15.4803 70.2072 15.2928C70.0196 15.1052 69.7653 14.9999 69.5 14.9999H65V9.87988C65 9.61467 64.8947 9.36031 64.7072 9.17278C64.5196 8.98524 64.2653 8.87988 64 8.87988C63.7348 8.87988 63.4805 8.98524 63.2929 9.17278C63.1054 9.36031 63 9.61467 63 9.87988V14.9999H58.5C58.2348 14.9999 57.9805 15.1052 57.7929 15.2928C57.6054 15.4803 57.5 15.7347 57.5 15.9999C57.5 16.2651 57.6054 16.5195 57.7929 16.707C57.9805 16.8945 58.2348 16.9999 58.5 16.9999H63V26.1899L49.9001 42.8899C49.7625 43.0671 49.6885 43.2855 49.69 43.5099V65.2199L41 69.9999C40.8437 70.0854 40.7131 70.2112 40.6217 70.3641C40.5302 70.5171 40.4813 70.6917 40.48 70.8699V78.8699L17.73 89.7399C17.5617 89.8223 17.42 89.9504 17.321 90.1096C17.222 90.2687 17.1697 90.4525 17.17 90.6399V107.34V111.71H15.05C14.7848 111.71 14.5305 111.815 14.3429 112.003C14.1554 112.19 14.05 112.445 14.05 112.71V118.09C14.05 118.355 14.1554 118.609 14.3429 118.797C14.5305 118.985 14.7848 119.09 15.05 119.09H113C113.265 119.09 113.52 118.985 113.707 118.797C113.895 118.609 114 118.355 114 118.09V112.71C114 112.445 113.895 112.19 113.707 112.003C113.52 111.815 113.265 111.71 113 111.71H110.89V90.6399C110.885 90.4459 110.824 90.2575 110.714 90.0977C110.604 89.9379 110.45 89.8136 110.27 89.7399ZM108.84 91.2699V106.37H105.91V93.9299C105.91 93.7425 105.858 93.5587 105.759 93.3996C105.66 93.2404 105.518 93.1124 105.35 93.0299L92.64 86.9399C92.5214 86.8784 92.3916 86.8413 92.2583 86.8308C92.1251 86.8204 91.9911 86.8367 91.8642 86.8789C91.7374 86.9211 91.6203 86.9883 91.5199 87.0766C91.4195 87.1648 91.3378 87.2723 91.2796 87.3926C91.2215 87.5129 91.188 87.6437 91.1813 87.7772C91.1745 87.9107 91.1946 88.0442 91.2403 88.1698C91.286 88.2954 91.3565 88.4106 91.4474 88.5085C91.5384 88.6064 91.6481 88.6851 91.77 88.7399L103.91 94.5599V106.37H87.55V81.1299L108.84 91.2699ZM51.69 43.8599L64 28.1399L76.31 43.8599V64.1999L64.31 57.6999C64.158 57.6121 63.9856 57.5659 63.8101 57.5659C63.6345 57.5659 63.4621 57.6121 63.3101 57.6999L55.3101 62.0899V54.5999C55.3101 54.3347 55.2047 54.0803 55.0172 53.8928C54.8296 53.7052 54.5753 53.5999 54.3101 53.5999C54.0448 53.5999 53.7905 53.7052 53.6029 53.8928C53.4154 54.0803 53.3101 54.3347 53.3101 54.5999V63.1899L51.62 64.1199L51.69 43.8599ZM54.69 64.7299C54.7465 64.7059 54.8002 64.6757 54.85 64.6399L63.85 59.7199L85.55 71.4899V106.37H82.92V73.7799C82.9204 73.5963 82.8702 73.4161 82.775 73.2591C82.6797 73.1021 82.5431 72.9743 82.38 72.8899L73 68.0599C72.764 67.9379 72.4892 67.9146 72.236 67.9953C71.9828 68.0759 71.772 68.2538 71.6501 68.4899C71.5281 68.7259 71.5048 69.0008 71.5855 69.2539C71.6661 69.5071 71.844 69.7179 72.0801 69.8399L80.9 74.3899V106.39H76.38V89.1499C76.3748 86.1678 75.1878 83.3094 73.0792 81.2008C70.9705 79.0921 68.1121 77.9052 65.13 77.8999H62.87C59.888 77.9052 57.0296 79.0921 54.9209 81.2008C52.8123 83.3094 51.6253 86.1678 51.62 89.1499V106.37H42.4501V71.4799L54.69 64.7299ZM74.34 106.37H53.62V89.1499C53.6227 86.6974 54.5981 84.3462 56.3322 82.6121C58.0664 80.8779 60.4176 79.9025 62.87 79.8999H65.13C67.5825 79.9025 69.9337 80.8779 71.6679 82.6121C73.402 84.3462 74.3774 86.6974 74.38 89.1499L74.34 106.37ZM40.4501 81.1299V106.37H24.07V94.5599L36.21 88.7399C36.4298 88.6149 36.5941 88.4112 36.6698 88.17C36.7454 87.9287 36.7269 87.6677 36.6179 87.4396C36.5089 87.2114 36.3175 87.033 36.0823 86.9403C35.847 86.8476 35.5854 86.8475 35.35 86.9399L22.64 92.9999C22.4699 93.0809 22.3261 93.2084 22.2252 93.3677C22.1244 93.5269 22.0706 93.7114 22.07 93.8999V106.34H19.17V91.2699L40.4501 81.1299ZM100 111.74C99.7348 111.74 99.4805 111.845 99.2929 112.033C99.1054 112.22 99 112.475 99 112.74C99 113.005 99.1054 113.259 99.2929 113.447C99.4805 113.635 99.7348 113.74 100 113.74H112V117.12H16.05V113.74H91.7C91.9653 113.74 92.2196 113.635 92.4072 113.447C92.5947 113.259 92.7 113.005 92.7 112.74C92.7 112.475 92.5947 112.22 92.4072 112.033C92.2196 111.845 91.9653 111.74 91.7 111.74H19.16V108.37H108.84V111.74H100Z" fill="#84967F"/>
</svg>
