<svg width="128" height="128" viewBox="0 0 128 128" fill="none" xmlns="http://www.w3.org/2000/svg">
<path d="M65.72 25.8102V4.16016" stroke="#5B855A" stroke-width="2" stroke-linecap="round" stroke-linejoin="round"/>
<path d="M31.43 63.6198C39.43 61.4498 51.79 60.0698 65.72 60.0698C89.72 60.0698 109.19 64.1898 109.19 69.2798C109.19 74.3698 89.73 78.4998 65.72 78.4998C41.71 78.4998 22.25 74.3798 22.25 69.2798" stroke="#5B855A" stroke-width="2" stroke-linecap="round" stroke-linejoin="round"/>
<path d="M22.25 69.2802C22.25 54.0702 41.71 41.7402 65.72 41.7402C79.18 41.7402 91.21 45.6102 99.18 51.7402" stroke="#5B855A" stroke-width="2" stroke-linecap="round" stroke-linejoin="round"/>
<path d="M109.19 69.2798C109.19 84.4998 89.7301 96.8298 65.7201 96.8298C52.4401 96.8298 40.5501 93.0598 32.5801 87.1098" stroke="#5B855A" stroke-width="2" stroke-linecap="round" stroke-linejoin="round"/>
<path d="M65.72 25.8101C70.81 25.8101 74.94 45.2701 74.94 69.2801C74.94 93.2901 70.81 112.76 65.72 112.76C60.63 112.76 56.5 93.2901 56.5 69.2801C56.5 54.2801 58.11 41.0501 60.57 33.2801" stroke="#5B855A" stroke-width="2" stroke-linecap="round" stroke-linejoin="round"/>
<path d="M65.7199 112.75C80.9354 112.75 93.2699 93.2879 93.2699 69.2801C93.2699 45.2722 80.9354 25.8101 65.7199 25.8101C50.5045 25.8101 38.1699 45.2722 38.1699 69.2801C38.1699 93.2879 50.5045 112.75 65.7199 112.75Z" stroke="#5B855A" stroke-width="2" stroke-linecap="round" stroke-linejoin="round"/>
<path d="M38.52 103.2C29.7058 96.1547 23.979 85.9558 22.5519 74.7624C21.1247 63.5689 24.1092 52.2594 30.8736 43.2276C37.638 34.1958 47.6514 28.1506 58.7943 26.3716C69.9372 24.5925 81.3352 27.2193 90.5755 33.6958C99.8159 40.1723 106.174 49.9903 108.303 61.0717C110.432 72.153 108.165 83.6281 101.983 93.0679C95.801 102.508 86.1882 109.171 75.1794 111.649C64.1706 114.126 52.6299 112.222 43 106.34" stroke="#5B855A" stroke-width="2" stroke-linecap="round" stroke-linejoin="round"/>
<path d="M45.2599 20.34L42.9399 14.73" stroke="#5B855A" stroke-width="2" stroke-linecap="round" stroke-linejoin="round"/>
<path d="M86.1799 20.34L88.4999 14.73" stroke="#5B855A" stroke-width="2" stroke-linecap="round" stroke-linejoin="round"/>
<path d="M86.1799 118.23L88.4999 123.84" stroke="#5B855A" stroke-width="2" stroke-linecap="round" stroke-linejoin="round"/>
<path d="M10.72 46.0601L16.33 48.3901" stroke="#5B855A" stroke-width="2" stroke-linecap="round" stroke-linejoin="round"/>
<path d="M115.11 89.2998L120.72 91.6198" stroke="#5B855A" stroke-width="2" stroke-linecap="round" stroke-linejoin="round"/>
<path d="M45.2599 118.23L42.9399 123.84" stroke="#5B855A" stroke-width="2" stroke-linecap="round" stroke-linejoin="round"/>
<path d="M27.9199 106.64L23.6299 110.94" stroke="#5B855A" stroke-width="2" stroke-linecap="round" stroke-linejoin="round"/>
<path d="M22.7199 18.29L24.9099 22.72L29.8099 23.43L26.2699 26.89L27.0999 31.76L22.7199 29.46L18.3399 31.76L19.1799 26.89L15.6399 23.43L20.5299 22.72L22.7199 18.29Z" stroke="#5B855A" stroke-width="2" stroke-linecap="round" stroke-linejoin="round"/>
<path d="M117.22 38.5298L117.91 42.5798L121.63 44.3098L117.99 46.2198L117.5 50.2998L114.56 47.4198L110.53 48.2098L112.36 44.5298L110.36 40.9398L114.42 41.5398L117.22 38.5298Z" stroke="#5B855A" stroke-width="2" stroke-linecap="round" stroke-linejoin="round"/>
<path d="M109.16 104.21L109.34 109.87L114.1 112.93L108.77 114.85L107.33 120.32L103.86 115.85L98.21 116.17L101.39 111.48L99.34 106.21L104.78 107.79L109.16 104.21Z" stroke="#5B855A" stroke-width="2" stroke-linecap="round" stroke-linejoin="round"/>
<path d="M110.28 12.5L111.63 19.92L118.51 23.02L111.86 26.6L111.04 34.1L105.59 28.88L98.2 30.42L101.48 23.62L97.73 17.07L105.21 18.08L110.28 12.5Z" stroke="#5B855A" stroke-width="2" stroke-linecap="round" stroke-linejoin="round"/>
<path d="M11.2901 86.8599L14.3701 90.2099L18.8801 89.5699L16.6401 93.5399L18.6401 97.6199L14.1801 96.7299L10.9101 99.8899L10.3901 95.3699L6.37012 93.2399L10.5001 91.3399L11.2901 86.8599Z" stroke="#5B855A" stroke-width="2" stroke-linecap="round" stroke-linejoin="round"/>
</svg>
