<svg width="128" height="128" viewBox="0 0 128 128" fill="none" xmlns="http://www.w3.org/2000/svg">
<path d="M62.5199 51.4501L27.8099 46.3201C27.5488 46.2828 27.2836 46.3502 27.072 46.5075C26.8604 46.6648 26.7194 46.8994 26.6799 47.1601L24.1199 64.4001C23.4608 69.0904 24.6249 73.855 27.3724 77.713C30.1199 81.5711 34.2419 84.2292 38.8899 85.1401L35.7999 107.24L20.6799 110.85C20.4147 110.862 20.1651 110.979 19.986 111.175C19.8069 111.371 19.713 111.63 19.7249 111.895C19.7368 112.16 19.8536 112.41 20.0496 112.589C20.2456 112.768 20.5047 112.862 20.7699 112.85L50.3499 117H50.4899C50.7113 117.002 50.927 116.93 51.1031 116.795C51.2792 116.661 51.4058 116.472 51.4629 116.258C51.5201 116.045 51.5047 115.818 51.4191 115.613C51.3335 115.409 51.1825 115.239 50.9899 115.13L37.7599 107.63L40.8699 85.4201C41.4499 85.4201 42.0299 85.5101 42.6099 85.5101C47.0193 85.5099 51.2818 83.9255 54.6207 81.0455C57.9596 78.1655 60.1525 74.1817 60.7999 69.8201L63.3599 52.5801C63.397 52.318 63.3287 52.0519 63.1699 51.8401C63.0128 51.6298 62.7793 51.4898 62.5199 51.4501ZM28.5199 48.4501L61.2399 53.2801L59.9099 62.2801L27.1799 57.3801L28.5199 48.4501ZM26.2799 111.57L36.3799 109.16L45.3799 114.29L26.2799 111.57ZM52.3799 80.3101C49.7526 82.2416 46.6146 83.3565 43.3577 83.5157C40.1007 83.6749 36.869 82.8713 34.0659 81.2052C31.2628 79.5391 29.0124 77.0843 27.5958 74.1473C26.1791 71.2102 25.6588 67.921 26.0999 64.6901L26.8899 59.3601L59.6099 64.2201L58.8199 69.5201C58.5131 71.6562 57.7849 73.71 56.6776 75.5623C55.5704 77.4146 54.1061 79.0285 52.3699 80.3101H52.3799Z" fill="#84967F"/>
<path d="M37.6599 77.6199C29.1699 73.3799 31.1199 63.7699 31.2099 63.3599C31.2381 63.2286 31.2402 63.093 31.2161 62.9609C31.1919 62.8287 31.1419 62.7027 31.069 62.5898C30.9961 62.477 30.9017 62.3797 30.7912 62.3033C30.6807 62.227 30.5562 62.1732 30.4249 62.1449C30.2936 62.1167 30.158 62.1146 30.0258 62.1388C29.8937 62.1629 29.7676 62.2129 29.6548 62.2858C29.542 62.3587 29.4446 62.4531 29.3683 62.5636C29.292 62.6741 29.2381 62.7986 29.2099 62.9299C29.2099 63.0499 26.8299 74.4699 36.7299 79.4099C36.8692 79.4813 37.0234 79.519 37.1799 79.5199C37.3646 79.5194 37.5455 79.4677 37.7026 79.3706C37.8597 79.2735 37.9868 79.1348 38.0699 78.9699C38.1939 78.7364 38.2204 78.4633 38.1436 78.2103C38.0667 77.9573 37.8928 77.745 37.6599 77.6199Z" fill="#84967F"/>
<path d="M91.2499 79.5199C91.4265 79.5216 91.5999 79.4731 91.7499 79.3799C101.13 73.9599 98.7499 63.0399 98.7499 62.9299C98.721 62.7986 98.6665 62.6742 98.5896 62.564C98.5127 62.4537 98.4147 62.3597 98.3015 62.2872C98.1882 62.2148 98.0617 62.1654 97.9293 62.1418C97.797 62.1183 97.6612 62.121 97.5299 62.1499C97.3986 62.1788 97.2742 62.2333 97.164 62.3102C97.0537 62.3871 96.9597 62.4851 96.8872 62.5983C96.8148 62.7116 96.7654 62.8381 96.7418 62.9705C96.7183 63.1028 96.721 63.2386 96.7499 63.3699C96.8399 63.7599 98.7499 72.9699 90.7499 77.6499C90.5573 77.7591 90.4063 77.9291 90.3207 78.1333C90.2351 78.3375 90.2197 78.5643 90.2769 78.7782C90.3341 78.9921 90.4606 79.181 90.6367 79.3152C90.8128 79.4495 91.0285 79.5214 91.2499 79.5199Z" fill="#84967F"/>
<path d="M54.2501 26.6998C53.9942 26.6295 53.7208 26.6638 53.4901 26.795C53.2595 26.9263 53.0904 27.1439 53.0201 27.3998C52.9498 27.6557 52.9841 27.9291 53.1154 28.1598C53.2466 28.3904 53.4642 28.5595 53.7201 28.6298C53.8001 28.6298 61.6501 30.8598 62.0701 38.8998C62.0701 39.165 62.1755 39.4194 62.363 39.6069C62.5505 39.7944 62.8049 39.8998 63.0701 39.8998C63.2015 39.8934 63.3303 39.8611 63.4492 39.8049C63.5681 39.7486 63.6747 39.6694 63.7629 39.5719C63.8512 39.4744 63.9193 39.3604 63.9635 39.2365C64.0076 39.1125 64.0268 38.9811 64.0201 38.8498C63.5701 29.3298 54.3401 26.7198 54.2501 26.6998Z" fill="#84967F"/>
<path d="M83.17 32.7998C83.17 32.5346 83.0646 32.2802 82.8771 32.0927C82.6896 31.9052 82.4352 31.7998 82.17 31.7998C82.04 31.7998 69.17 31.9298 67.67 42.4398C67.6329 42.7024 67.7016 42.9689 67.861 43.1808C68.0204 43.3927 68.2574 43.5326 68.52 43.5698H68.66C68.9012 43.5725 69.1352 43.488 69.3189 43.3318C69.5027 43.1756 69.6238 42.9583 69.66 42.7198C70.91 33.9198 81.72 33.7898 82.18 33.7898C82.4417 33.7872 82.6921 33.6821 82.8772 33.497C83.0623 33.3119 83.1674 33.0616 83.17 32.7998Z" fill="#84967F"/>
<path d="M74.2401 42.4798C74.203 42.7423 74.2717 43.0089 74.4311 43.2208C74.5905 43.4327 74.8275 43.5726 75.0901 43.6098H75.2301C75.4727 43.6122 75.708 43.5262 75.8919 43.368C76.0759 43.2098 76.1961 42.9901 76.2301 42.7498C76.5701 40.3298 79.7201 40.2798 79.8501 40.2798C80.1153 40.2798 80.3696 40.1744 80.5572 39.9869C80.7447 39.7994 80.8501 39.545 80.8501 39.2798C80.8501 39.0146 80.7447 38.7602 80.5572 38.5727C80.3696 38.3851 80.1153 38.2798 79.8501 38.2798C78.1101 38.2898 74.7101 39.1598 74.2401 42.4798Z" fill="#84967F"/>
<path d="M107.32 110.85L92.2 107.24L89.11 85.1401C93.758 84.2292 97.88 81.5711 100.627 77.713C103.375 73.855 104.539 69.0904 103.88 64.4001L101.32 47.1601C101.28 46.8994 101.14 46.6648 100.928 46.5075C100.716 46.3502 100.451 46.2828 100.19 46.3201L65.48 51.4501C65.2206 51.4898 64.9871 51.6298 64.83 51.8401C64.6712 52.0519 64.6029 52.318 64.64 52.5801L67.2 69.8101C67.8408 74.1772 70.031 78.1681 73.3705 81.0541C76.71 83.9402 80.9762 85.5289 85.39 85.5301C85.97 85.5301 86.55 85.5301 87.13 85.4401L90.24 107.65L77 115.15C76.8074 115.259 76.6564 115.429 76.5708 115.633C76.4852 115.838 76.4698 116.065 76.527 116.278C76.5841 116.492 76.7107 116.681 76.8868 116.815C77.0629 116.95 77.2786 117.022 77.5 117.02H77.64L107.22 112.82C107.485 112.832 107.744 112.738 107.94 112.559C108.136 112.38 108.253 112.13 108.265 111.865C108.277 111.6 108.183 111.341 108.004 111.145C107.825 110.949 107.575 110.832 107.31 110.82L107.32 110.85ZM99.49 48.4501L100.82 57.3801L68.1 62.2501L66.77 53.2501L99.49 48.4501ZM75.63 80.3101C73.8938 79.0285 72.4295 77.4146 71.3223 75.5623C70.215 73.71 69.4868 71.6562 69.18 69.5201L68.39 64.2201L101.11 59.3601L101.9 64.6901C102.339 67.9194 101.818 71.2065 100.402 74.1416C98.9855 77.0767 96.7365 79.53 93.9353 81.1956C91.1341 82.8612 87.9046 83.6654 84.6494 83.5079C81.3942 83.3505 78.2574 82.2383 75.63 80.3101ZM82.63 114.31L91.63 109.18L101.73 111.59L82.63 114.31Z" fill="#84967F"/>
<path d="M68 48C68.2652 48 68.5196 47.8946 68.7071 47.7071C68.8946 47.5196 69 47.2652 69 47C69 46.7348 68.8946 46.4804 68.7071 46.2929C68.5196 46.1054 68.2652 46 68 46C67.7348 46 67.4804 46.1054 67.2929 46.2929C67.1054 46.4804 67 46.7348 67 47C67 47.2652 67.1054 47.5196 67.2929 47.7071C67.4804 47.8946 67.7348 48 68 48Z" fill="#84967F"/>
<path d="M50.75 28.0801C51.0152 28.0801 51.2696 27.9747 51.4571 27.7872C51.6446 27.5996 51.75 27.3453 51.75 27.0801C51.75 26.8149 51.6446 26.5605 51.4571 26.373C51.2696 26.1854 51.0152 26.0801 50.75 26.0801C50.4848 26.0801 50.2304 26.1854 50.0429 26.373C49.8554 26.5605 49.75 26.8149 49.75 27.0801C49.75 27.3453 49.8554 27.5996 50.0429 27.7872C50.2304 27.9747 50.4848 28.0801 50.75 28.0801Z" fill="#84967F"/>
<path d="M48.0599 32.1299C48.3197 32.1798 48.5888 32.1247 48.8081 31.9766C49.0274 31.8285 49.1791 31.5996 49.2299 31.3399C49.2803 31.0829 49.2279 30.8163 49.0839 30.5976C48.9399 30.3788 48.7159 30.2252 48.4599 30.1699C48.3199 30.1699 45.0999 29.4999 42.9299 30.7099C42.8149 30.7735 42.7137 30.8592 42.6318 30.962C42.55 31.0648 42.4893 31.1828 42.4531 31.3091C42.4168 31.4354 42.4059 31.5676 42.4208 31.6981C42.4357 31.8287 42.4761 31.955 42.5399 32.0699C42.6267 32.2243 42.753 32.353 42.9059 32.4426C43.0588 32.5322 43.2327 32.5796 43.4099 32.5799C43.5804 32.5795 43.7485 32.5384 43.8999 32.4599C45.2234 31.941 46.6711 31.8262 48.0599 32.1299Z" fill="#84967F"/>
<path d="M77.8499 21.9999C77.8499 21.9499 77.9599 21.6999 77.9799 21.6299L78.0799 21.2999C78.5093 19.689 78.3053 17.9749 77.5099 16.5099C77.13 15.7946 76.606 15.1658 75.9709 14.6632C75.3358 14.1606 74.6034 13.7952 73.8199 13.5899C72.8832 13.357 71.9041 13.3536 70.9658 13.5799C70.0274 13.8062 69.1575 14.2556 68.4299 14.8899C68.1024 13.984 67.5615 13.1703 66.8531 12.5176C66.1447 11.8649 65.2895 11.3923 64.3599 11.1399C63.5594 10.9566 62.7307 10.9331 61.9211 11.0707C61.1115 11.2084 60.3371 11.5045 59.6422 11.942C58.9472 12.3796 58.3455 12.95 57.8715 13.6206C57.3975 14.2912 57.0606 15.0488 56.8799 15.8499C56.8799 15.9099 56.8299 16.0799 56.8099 16.1699C56.7899 16.2599 56.7599 16.4699 56.7499 16.5099C55.9299 21.5099 63.1399 29.1799 63.9599 30.0399C64.0529 30.1374 64.1646 30.2151 64.2883 30.2683C64.412 30.3216 64.5452 30.3493 64.6799 30.3499C64.7794 30.3649 64.8805 30.3649 64.9799 30.3499C66.1199 29.9999 76.1599 26.7499 77.8499 21.9999ZM75.9999 21.3399C74.9199 24.3399 68.1799 27.1699 64.9999 28.2399C62.7199 25.7599 58.1999 19.9999 58.7299 16.8499L58.8299 16.3299C59.0509 15.4043 59.5699 14.577 60.3071 13.9753C61.0443 13.3736 61.9588 13.0309 62.9099 12.9999C63.2478 12.994 63.5848 13.0378 63.9099 13.1299C64.797 13.3817 65.5744 13.9231 66.1181 14.668C66.6617 15.4128 66.9405 16.3182 66.9099 17.2399C66.9106 17.4604 66.9842 17.6746 67.1192 17.849C67.2542 18.0234 67.4431 18.1482 67.6564 18.2042C67.8698 18.2601 68.0957 18.2439 68.2989 18.1581C68.502 18.0723 68.6712 17.9217 68.7799 17.7299C69.1982 16.9084 69.8792 16.2505 70.7146 15.8609C71.5501 15.4713 72.4918 15.3724 73.3899 15.5799C73.9077 15.7192 74.3914 15.9632 74.8111 16.2969C75.2307 16.6306 75.5775 17.0468 75.8299 17.5199C76.3736 18.5379 76.5129 19.7236 76.2199 20.8399L76.1499 21.0699C76.1499 21.0699 75.9999 21.2799 75.9999 21.3399Z" fill="#84967F"/>
<path d="M45.0001 43.7601L45.1501 43.9901C47.1501 46.8001 54.2201 46.9901 55.0201 47.0601C55.2037 47.0605 55.3839 47.0103 55.5409 46.915C55.6978 46.8198 55.8256 46.6831 55.9101 46.5201C56.2801 45.8201 59.5 39.5201 58.03 36.4301L57.9001 36.1601L57.8201 36.0001C57.2493 34.9796 56.2983 34.2261 55.1744 33.904C54.0505 33.5818 52.8447 33.717 51.82 34.2801C51.2961 34.5893 50.8459 35.0089 50.5005 35.5097C50.1551 36.0105 49.9229 36.5805 49.82 37.1801C49.2449 36.9816 48.6337 36.9092 48.028 36.9679C47.4224 37.0265 46.8365 37.2149 46.3101 37.5201C45.8051 37.8085 45.3662 38.1996 45.0217 38.6681C44.6772 39.1366 44.4348 39.6721 44.3101 40.2401C44.0505 41.3648 44.2331 42.5462 44.82 43.5401C44.8754 43.6171 44.9355 43.6906 45.0001 43.7601ZM46.2901 40.6501C46.3837 40.1604 46.6461 39.719 47.0317 39.4029C47.4172 39.0867 47.9015 38.9159 48.4001 38.9201C48.7307 38.9234 49.0574 38.9923 49.3612 39.1228C49.665 39.2532 49.9399 39.4426 50.17 39.6801C50.3253 39.8405 50.5297 39.9444 50.7508 39.9752C50.9719 40.006 51.1969 39.962 51.39 39.8501C51.583 39.7364 51.7322 39.5613 51.8138 39.3528C51.8954 39.1443 51.9046 38.9145 51.8401 38.7001C51.6781 38.1987 51.6885 37.6575 51.8697 37.1628C52.051 36.6681 52.3925 36.2482 52.8401 35.9701C53.4074 35.675 54.068 35.6144 54.6795 35.8014C55.2911 35.9885 55.8048 36.4081 56.1101 36.9701L56.9701 36.4601L56.1101 36.9801L56.2501 37.2501C56.9901 38.8101 55.64 42.6201 54.46 45.0301C51.79 44.8801 47.8 44.2101 46.8 42.8101L46.62 42.5501C46.2652 41.9846 46.1433 41.3035 46.28 40.6501H46.2901Z" fill="#84967F"/>
</svg>
