<svg width="128" height="128" viewBox="0 0 128 128" fill="none" xmlns="http://www.w3.org/2000/svg">
<path d="M18.21 94.7202C17.9447 94.7202 17.6904 94.8256 17.5029 95.0131C17.3153 95.2006 17.21 95.455 17.21 95.7202C17.2153 100.865 19.2606 105.797 22.8973 109.436C26.5341 113.074 31.4655 115.122 36.61 115.13C36.8752 115.13 37.1295 115.025 37.3171 114.837C37.5046 114.65 37.61 114.395 37.61 114.13C37.61 113.865 37.5046 113.611 37.3171 113.423C37.1295 113.236 36.8752 113.13 36.61 113.13C31.9959 113.122 27.5732 111.285 24.3115 108.022C21.0498 104.758 19.2152 100.334 19.21 95.7202C19.21 95.455 19.1046 95.2006 18.9171 95.0131C18.7295 94.8256 18.4752 94.7202 18.21 94.7202Z" fill="#84967F"/>
<path d="M25.0001 95.7201C24.9546 97.2701 25.2205 98.8135 25.7822 100.259C26.344 101.704 27.19 103.022 28.2703 104.135C29.3505 105.247 30.6431 106.132 32.0713 106.735C33.4995 107.339 35.0344 107.651 36.5851 107.651C38.1358 107.651 39.6707 107.339 41.0989 106.735C42.5272 106.132 43.8197 105.247 44.9 104.135C45.9802 103.022 46.8263 101.704 47.388 100.259C47.9497 98.8135 48.2157 97.2701 48.1701 95.7201V52.0701L90.0001 37.8101V74.2801C88.4421 71.9858 86.1125 70.3268 83.4348 69.6048C80.7572 68.8828 77.9093 69.1458 75.4091 70.3459C72.9089 71.5459 70.9225 73.6035 69.8109 76.1443C68.6994 78.685 68.5366 81.5404 69.3522 84.191C70.1678 86.8417 71.9076 89.1116 74.2552 90.5881C76.6028 92.0645 79.4023 92.6494 82.1447 92.2364C84.887 91.8234 87.3901 90.4399 89.1987 88.3375C91.0074 86.2351 92.0014 83.5534 92.0001 80.7801V23.0901C91.9994 22.9315 91.9609 22.7753 91.8879 22.6345C91.8148 22.4936 91.7094 22.3722 91.5801 22.2801C91.4519 22.1872 91.3035 22.1261 91.147 22.1017C90.9905 22.0774 90.8305 22.0906 90.6801 22.1401L46.8801 37.1401C46.685 37.2084 46.5158 37.3354 46.3958 37.5037C46.2758 37.672 46.2109 37.8734 46.2101 38.0801V89.2801C44.8299 87.2133 42.8213 85.6454 40.4812 84.8082C38.1412 83.9709 35.5939 83.9087 33.2157 84.6308C30.8376 85.3528 28.7549 86.8209 27.2754 88.8178C25.796 90.8148 24.9982 93.2348 25.0001 95.7201ZM80.3801 90.3601C78.4871 90.3522 76.6389 89.7837 75.0687 88.7262C73.4985 87.6688 72.2769 86.1698 71.5579 84.4186C70.839 82.6674 70.6549 80.7425 71.0291 78.8868C71.4032 77.0311 72.3188 75.3278 73.6602 73.992C75.0015 72.6563 76.7086 71.7478 78.5658 71.3814C80.4231 71.015 82.3472 71.207 84.0954 71.9333C85.8436 72.6595 87.3374 73.8874 88.3883 75.462C89.4392 77.0365 90.0001 78.8871 90.0001 80.7801C89.9975 83.3218 88.9859 85.7585 87.1877 87.5548C85.3896 89.3511 82.9518 90.3601 80.4101 90.3601H80.3801ZM90.0001 24.4901V35.6901L48.2001 50.0001V38.7501L90.0001 24.4901ZM46.2001 95.7201C46.2021 97.6173 45.6413 99.4724 44.5888 101.051C43.5362 102.629 42.0392 103.86 40.287 104.587C38.5348 105.315 36.6063 105.506 34.7453 105.137C32.8844 104.768 31.1747 103.856 29.8325 102.515C28.4903 101.174 27.576 99.4653 27.2051 97.6047C26.8343 95.7442 27.0236 93.8155 27.7492 92.0625C28.4747 90.3096 29.7039 88.8113 31.2812 87.757C32.8584 86.7028 34.713 86.1401 36.6101 86.1401C39.151 86.1428 41.5872 87.1526 43.3848 88.9484C45.1824 90.7441 46.1948 93.1793 46.2001 95.7201Z" fill="#84967F"/>
<path d="M63.76 80.7799C63.7653 76.3657 65.5212 72.1337 68.6425 69.0124C71.7639 65.8911 75.9958 64.1352 80.41 64.1299C80.6752 64.1299 80.9296 64.0245 81.1171 63.837C81.3047 63.6495 81.41 63.3951 81.41 63.1299C81.41 62.8647 81.3047 62.6103 81.1171 62.4228C80.9296 62.2352 80.6752 62.1299 80.41 62.1299C75.4662 62.1378 70.7271 64.1053 67.2312 67.6011C63.7354 71.0969 61.7679 75.836 61.76 80.7799C61.76 81.0451 61.8654 81.2995 62.0529 81.487C62.2404 81.6745 62.4948 81.7799 62.76 81.7799C63.0252 81.7799 63.2796 81.6745 63.4671 81.487C63.6547 81.2995 63.76 81.0451 63.76 80.7799Z" fill="#84967F"/>
<path d="M21.4 50.37C21.5578 50.4673 21.7396 50.5189 21.925 50.5189C22.1104 50.5189 22.2922 50.4673 22.45 50.37C23.61 49.65 33.79 43.19 34.31 37.52V37.28C34.31 37.15 34.31 36.92 34.31 36.78V36.69C34.3353 35.7707 34.1792 34.8553 33.8506 33.9964C33.522 33.1374 33.0273 32.3516 32.3949 31.6839C31.7625 31.0161 31.0046 30.4796 30.1648 30.1049C29.3249 29.7302 28.4194 29.5246 27.5 29.5C26.3788 29.5116 25.2781 29.802 24.297 30.3449C23.316 30.8878 22.4854 31.6662 21.88 32.61C21.2782 31.6651 20.4498 30.8856 19.47 30.3424C18.4902 29.7993 17.3902 29.5097 16.27 29.5C14.4292 29.5601 12.6862 30.3434 11.4189 31.6799C10.1516 33.0164 9.46219 34.7986 9.50001 36.64V36.74C9.50001 36.92 9.50001 37.1 9.50001 37.35V37.5C10.05 43.19 20.24 49.65 21.4 50.37ZM11.51 37.13C11.51 37 11.51 36.86 11.51 36.69C11.4846 36.0325 11.5892 35.3764 11.8179 34.7594C12.0466 34.1423 12.3948 33.5765 12.8426 33.0944C13.2904 32.6122 13.8289 32.2232 14.4274 31.9496C15.0258 31.676 15.6724 31.5232 16.33 31.5C17.4254 31.5215 18.4816 31.911 19.3287 32.6057C20.1758 33.3005 20.7645 34.2601 21 35.33C21.0542 35.5462 21.1791 35.7381 21.3548 35.8753C21.5306 36.0124 21.7471 36.0869 21.97 36.0869C22.1929 36.0869 22.4094 36.0124 22.5852 35.8753C22.7609 35.7381 22.8858 35.5462 22.94 35.33C23.1779 34.265 23.7646 33.3098 24.6069 32.616C25.4493 31.9222 26.4991 31.5294 27.59 31.5C28.2468 31.5245 28.8923 31.6782 29.4896 31.9524C30.0869 32.2265 30.6243 32.6158 31.071 33.0978C31.5177 33.5798 31.8651 34.1452 32.0931 34.7616C32.3212 35.378 32.4254 36.0333 32.4 36.69C32.4 36.69 32.4 37.01 32.4 37.12V37.32C32.06 41.08 25.22 46.25 22 48.32C18.79 46.24 11.95 41.07 11.61 37.32L11.51 37.13Z" fill="#84967F"/>
<path d="M103.12 82.0598C103.118 82.3158 103.192 82.5666 103.333 82.7803C103.474 82.9939 103.675 83.1608 103.912 83.2597C104.148 83.3585 104.408 83.3849 104.659 83.3355C104.91 83.286 105.141 83.163 105.322 82.982C105.503 82.8009 105.626 82.5702 105.676 82.319C105.725 82.0678 105.699 81.8076 105.6 81.5715C105.501 81.3354 105.334 81.134 105.12 80.9931C104.907 80.8521 104.656 80.7778 104.4 80.7798C104.06 80.7798 103.735 80.9147 103.495 81.1547C103.255 81.3948 103.12 81.7203 103.12 82.0598Z" fill="#84967F"/>
<path d="M116.71 96.0002C116.71 95.7471 116.635 95.4996 116.494 95.2891C116.354 95.0786 116.154 94.9145 115.92 94.8176C115.686 94.7208 115.428 94.6954 115.18 94.7448C114.932 94.7942 114.704 94.9161 114.525 95.0951C114.346 95.2741 114.224 95.5022 114.174 95.7505C114.125 95.9988 114.15 96.2562 114.247 96.49C114.344 96.7239 114.508 96.9238 114.719 97.0645C114.929 97.2051 115.177 97.2802 115.43 97.2802C115.769 97.2802 116.095 97.1454 116.335 96.9053C116.575 96.6653 116.71 96.3397 116.71 96.0002Z" fill="#84967F"/>
<path d="M91 104C90.7468 104 90.4993 104.075 90.2888 104.216C90.0783 104.356 89.9143 104.556 89.8174 104.79C89.7205 105.024 89.6952 105.281 89.7446 105.53C89.794 105.778 89.9159 106.006 90.0949 106.185C90.2739 106.364 90.502 106.486 90.7503 106.535C90.9985 106.585 91.2559 106.559 91.4898 106.463C91.7237 106.366 91.9236 106.202 92.0642 105.991C92.2049 105.781 92.28 105.533 92.28 105.28C92.28 104.941 92.1451 104.615 91.9051 104.375C91.665 104.135 91.3394 104 91 104Z" fill="#84967F"/>
<path d="M19.4899 18.0002C19.4899 17.7471 19.4149 17.4996 19.2742 17.2891C19.1336 17.0786 18.9337 16.9145 18.6998 16.8176C18.4659 16.7208 18.2085 16.6954 17.9602 16.7448C17.7119 16.7942 17.4838 16.9161 17.3048 17.0951C17.1258 17.2741 17.0039 17.5022 16.9545 17.7505C16.9051 17.9988 16.9305 18.2562 17.0274 18.4901C17.1242 18.7239 17.2883 18.9238 17.4988 19.0645C17.7093 19.2051 17.9568 19.2802 18.2099 19.2802C18.5494 19.2802 18.875 19.1454 19.115 18.9053C19.3551 18.6653 19.4899 18.3397 19.4899 18.0002Z" fill="#84967F"/>
<path d="M100.22 21.2499C100.474 21.2499 100.723 21.174 100.934 21.032C101.145 20.8899 101.309 20.6882 101.405 20.4526C101.501 20.217 101.525 19.9581 101.473 19.709C101.421 19.4599 101.296 19.2319 101.114 19.0542C100.932 18.8764 100.701 18.7569 100.451 18.711C100.201 18.665 99.9424 18.6947 99.7091 18.7962C99.4758 18.8977 99.278 19.0664 99.141 19.2808C99.0041 19.4952 98.9341 19.7456 98.94 19.9999C98.9479 20.3342 99.0862 20.6521 99.3254 20.8857C99.5646 21.1193 99.8857 21.25 100.22 21.2499Z" fill="#84967F"/>
<path d="M13.0599 59.4098C13.0619 59.1538 12.9877 58.9031 12.8467 58.6894C12.7057 58.4757 12.5044 58.3088 12.2682 58.21C12.0321 58.1111 11.7719 58.0847 11.5208 58.1342C11.2696 58.1836 11.0388 58.3067 10.8578 58.4877C10.6768 58.6687 10.5537 58.8995 10.5043 59.1506C10.4548 59.4018 10.4812 59.662 10.5801 59.8981C10.679 60.1342 10.8459 60.3356 11.0595 60.4766C11.2732 60.6176 11.524 60.6918 11.7799 60.6898C12.1194 60.6898 12.445 60.555 12.685 60.3149C12.9251 60.0749 13.0599 59.7493 13.0599 59.4098Z" fill="#84967F"/>
<path d="M35.07 66.9199C34.8169 66.9199 34.5694 66.995 34.3589 67.1356C34.1484 67.2763 33.9844 67.4762 33.8875 67.7101C33.7906 67.944 33.7652 68.2013 33.8146 68.4496C33.864 68.6979 33.9859 68.926 34.1649 69.105C34.344 69.284 34.572 69.4059 34.8203 69.4553C35.0686 69.5047 35.326 69.4794 35.5599 69.3825C35.7938 69.2856 35.9937 69.1216 36.1343 68.9111C36.275 68.7006 36.35 68.4531 36.35 68.1999C36.35 67.8604 36.2152 67.5349 35.9751 67.2948C35.7351 67.0548 35.4095 66.9199 35.07 66.9199Z" fill="#84967F"/>
<path d="M62.4101 19.2502C62.4101 18.9971 62.335 18.7496 62.1944 18.5391C62.0537 18.3286 61.8538 18.1645 61.6199 18.0676C61.386 17.9708 61.1287 17.9454 60.8804 17.9948C60.6321 18.0442 60.404 18.1661 60.225 18.3451C60.046 18.5241 59.9241 18.7522 59.8747 19.0005C59.8253 19.2488 59.8507 19.5062 59.9475 19.7401C60.0444 19.9739 60.2085 20.1738 60.419 20.3145C60.6295 20.4551 60.8769 20.5302 61.1301 20.5302C61.4696 20.5302 61.7951 20.3954 62.0352 20.1553C62.2752 19.9153 62.4101 19.5897 62.4101 19.2502Z" fill="#84967F"/>
<path d="M104.52 53.5001C104.785 53.5001 105.04 53.3947 105.227 53.2072C105.415 53.0197 105.52 52.7653 105.52 52.5001V50.3501C105.52 50.0849 105.415 49.8305 105.227 49.643C105.04 49.4555 104.785 49.3501 104.52 49.3501C104.255 49.3501 104 49.4555 103.813 49.643C103.625 49.8305 103.52 50.0849 103.52 50.3501V52.5001C103.52 52.7653 103.625 53.0197 103.813 53.2072C104 53.3947 104.255 53.5001 104.52 53.5001Z" fill="#84967F"/>
<path d="M103.52 61.1C103.52 61.3652 103.625 61.6196 103.813 61.8071C104 61.9946 104.255 62.1 104.52 62.1C104.785 62.1 105.04 61.9946 105.227 61.8071C105.415 61.6196 105.52 61.3652 105.52 61.1V59C105.52 58.7348 105.415 58.4804 105.227 58.2929C105.04 58.1054 104.785 58 104.52 58C104.255 58 104 58.1054 103.813 58.2929C103.625 58.4804 103.52 58.7348 103.52 59V61.1Z" fill="#84967F"/>
<path d="M106.75 55.73C106.75 55.9952 106.855 56.2496 107.043 56.4371C107.23 56.6246 107.485 56.73 107.75 56.73H109.9C110.165 56.73 110.42 56.6246 110.607 56.4371C110.795 56.2496 110.9 55.9952 110.9 55.73C110.9 55.4648 110.795 55.2104 110.607 55.0229C110.42 54.8353 110.165 54.73 109.9 54.73H107.75C107.485 54.73 107.23 54.8353 107.043 55.0229C106.855 55.2104 106.75 55.4648 106.75 55.73Z" fill="#84967F"/>
<path d="M98.1499 55.73C98.1499 55.9952 98.2553 56.2496 98.4428 56.4371C98.6303 56.6246 98.8847 56.73 99.1499 56.73H101.3C101.565 56.73 101.819 56.6246 102.007 56.4371C102.195 56.2496 102.3 55.9952 102.3 55.73C102.3 55.4648 102.195 55.2104 102.007 55.0229C101.819 54.8353 101.565 54.73 101.3 54.73H99.1499C98.8847 54.73 98.6303 54.8353 98.4428 55.0229C98.2553 55.2104 98.1499 55.4648 98.1499 55.73Z" fill="#84967F"/>
<path d="M112.13 28.7901C112.395 28.7901 112.649 28.6848 112.837 28.4972C113.025 28.3097 113.13 28.0554 113.13 27.7901V25.6401C113.13 25.3749 113.025 25.1206 112.837 24.933C112.649 24.7455 112.395 24.6401 112.13 24.6401C111.865 24.6401 111.61 24.7455 111.423 24.933C111.235 25.1206 111.13 25.3749 111.13 25.6401V27.7901C111.13 28.0554 111.235 28.3097 111.423 28.4972C111.61 28.6848 111.865 28.7901 112.13 28.7901Z" fill="#84967F"/>
<path d="M111.13 36.4C111.13 36.6652 111.235 36.9196 111.423 37.1071C111.61 37.2946 111.865 37.4 112.13 37.4C112.395 37.4 112.649 37.2946 112.837 37.1071C113.025 36.9196 113.13 36.6652 113.13 36.4V34.25C113.13 33.9848 113.025 33.7304 112.837 33.5429C112.649 33.3554 112.395 33.25 112.13 33.25C111.865 33.25 111.61 33.3554 111.423 33.5429C111.235 33.7304 111.13 33.9848 111.13 34.25V36.4Z" fill="#84967F"/>
<path d="M117.51 30H115.36C115.095 30 114.841 30.1054 114.653 30.2929C114.465 30.4804 114.36 30.7348 114.36 31C114.36 31.2652 114.465 31.5196 114.653 31.7071C114.841 31.8946 115.095 32 115.36 32H117.51C117.775 32 118.03 31.8946 118.217 31.7071C118.405 31.5196 118.51 31.2652 118.51 31C118.51 30.7348 118.405 30.4804 118.217 30.2929C118.03 30.1054 117.775 30 117.51 30Z" fill="#84967F"/>
<path d="M108.9 30H106.75C106.485 30 106.23 30.1054 106.043 30.2929C105.855 30.4804 105.75 30.7348 105.75 31C105.75 31.2652 105.855 31.5196 106.043 31.7071C106.23 31.8946 106.485 32 106.75 32H108.9C109.165 32 109.42 31.8946 109.607 31.7071C109.795 31.5196 109.9 31.2652 109.9 31C109.9 30.7348 109.795 30.4804 109.607 30.2929C109.42 30.1054 109.165 30 108.9 30Z" fill="#84967F"/>
<path d="M43 17.0001C43.2652 17.0001 43.5196 16.8948 43.7071 16.7072C43.8946 16.5197 44 16.2653 44 16.0001V13.8701C44 13.6049 43.8946 13.3505 43.7071 13.163C43.5196 12.9755 43.2652 12.8701 43 12.8701C42.7348 12.8701 42.4804 12.9755 42.2929 13.163C42.1054 13.3505 42 13.6049 42 13.8701V16.0001C42 16.2653 42.1054 16.5197 42.2929 16.7072C42.4804 16.8948 42.7348 17.0001 43 17.0001Z" fill="#84967F"/>
<path d="M42 24.63C42 24.8952 42.1054 25.1496 42.2929 25.3371C42.4804 25.5246 42.7348 25.63 43 25.63C43.2652 25.63 43.5196 25.5246 43.7071 25.3371C43.8946 25.1496 44 24.8952 44 24.63V22.48C44 22.2148 43.8946 21.9604 43.7071 21.7729C43.5196 21.5853 43.2652 21.48 43 21.48C42.7348 21.48 42.4804 21.5853 42.2929 21.7729C42.1054 21.9604 42 22.2148 42 22.48V24.63Z" fill="#84967F"/>
<path d="M48.41 20.25C48.6752 20.25 48.9296 20.1446 49.1171 19.9571C49.3047 19.7696 49.41 19.5152 49.41 19.25C49.41 18.9848 49.3047 18.7304 49.1171 18.5429C48.9296 18.3554 48.6752 18.25 48.41 18.25H46.26C45.9948 18.25 45.7404 18.3554 45.5529 18.5429C45.3654 18.7304 45.26 18.9848 45.26 19.25C45.26 19.5152 45.3654 19.7696 45.5529 19.9571C45.7404 20.1446 45.9948 20.25 46.26 20.25H48.41Z" fill="#84967F"/>
<path d="M39.8099 20.25C40.0751 20.25 40.3295 20.1446 40.517 19.9571C40.7046 19.7696 40.8099 19.5152 40.8099 19.25C40.8099 18.9848 40.7046 18.7304 40.517 18.5429C40.3295 18.3554 40.0751 18.25 39.8099 18.25H37.6599C37.3947 18.25 37.1403 18.3554 36.9528 18.5429C36.7653 18.7304 36.6599 18.9848 36.6599 19.25C36.6599 19.5152 36.7653 19.7696 36.9528 19.9571C37.1403 20.1446 37.3947 20.25 37.6599 20.25H39.8099Z" fill="#84967F"/>
<path d="M20.8999 73.63C21.1651 73.63 21.4195 73.5246 21.607 73.3371C21.7945 73.1495 21.8999 72.8952 21.8999 72.63V70.48C21.8999 70.2148 21.7945 69.9604 21.607 69.7729C21.4195 69.5853 21.1651 69.48 20.8999 69.48C20.6347 69.48 20.3803 69.5853 20.1928 69.7729C20.0053 69.9604 19.8999 70.2148 19.8999 70.48V72.63C19.8999 72.8952 20.0053 73.1495 20.1928 73.3371C20.3803 73.5246 20.6347 73.63 20.8999 73.63Z" fill="#84967F"/>
<path d="M19.8999 81.2301C19.8999 81.4953 20.0053 81.7496 20.1928 81.9372C20.3803 82.1247 20.6347 82.2301 20.8999 82.2301C21.1651 82.2301 21.4195 82.1247 21.607 81.9372C21.7945 81.7496 21.8999 81.4953 21.8999 81.2301V79.0801C21.8999 78.8149 21.7945 78.5605 21.607 78.373C21.4195 78.1854 21.1651 78.0801 20.8999 78.0801C20.6347 78.0801 20.3803 78.1854 20.1928 78.373C20.0053 78.5605 19.8999 78.8149 19.8999 79.0801V81.2301Z" fill="#84967F"/>
<path d="M26.2699 76.8501C26.5351 76.8501 26.7895 76.7447 26.977 76.5572C27.1645 76.3697 27.2699 76.1153 27.2699 75.8501C27.2699 75.5849 27.1645 75.3305 26.977 75.143C26.7895 74.9555 26.5351 74.8501 26.2699 74.8501H24.1299C23.8647 74.8501 23.6103 74.9555 23.4228 75.143C23.2352 75.3305 23.1299 75.5849 23.1299 75.8501C23.1299 76.1153 23.2352 76.3697 23.4228 76.5572C23.6103 76.7447 23.8647 76.8501 24.1299 76.8501H26.2699Z" fill="#84967F"/>
<path d="M17.67 74.8501H15.52C15.2548 74.8501 15.0004 74.9555 14.8129 75.143C14.6254 75.3305 14.52 75.5849 14.52 75.8501C14.52 76.1153 14.6254 76.3697 14.8129 76.5572C15.0004 76.7447 15.2548 76.8501 15.52 76.8501H17.67C17.9352 76.8501 18.1896 76.7447 18.3771 76.5572C18.5647 76.3697 18.67 76.1153 18.67 75.8501C18.67 75.5849 18.5647 75.3305 18.3771 75.143C18.1896 74.9555 17.9352 74.8501 17.67 74.8501Z" fill="#84967F"/>
</svg>
