<svg width="128" height="128" viewBox="0 0 128 128" fill="none" xmlns="http://www.w3.org/2000/svg">
<path d="M63.3201 32.1398C63.4779 32.2371 63.6596 32.2887 63.8451 32.2887C64.0305 32.2887 64.2123 32.2371 64.3701 32.1398C65.4701 31.4498 75.1401 25.3198 75.6301 19.9298C75.6301 19.8798 75.6301 19.5598 75.6301 19.4798C75.6301 19.3998 75.6301 19.1398 75.6301 19.1298C75.6758 17.356 75.016 15.6366 73.7956 14.3487C72.5752 13.0607 70.8937 12.3095 69.1201 12.2598C68.0612 12.2708 67.0213 12.542 66.0918 13.0494C65.1624 13.5569 64.3719 14.285 63.7901 15.1698C63.2111 14.2846 62.4226 13.5559 61.4946 13.0483C60.5666 12.5407 59.5278 12.2698 58.4701 12.2598C56.7035 12.3198 55.0322 13.0756 53.8203 14.3624C52.6085 15.6492 51.9542 17.3627 52.0001 19.1298C52.0001 19.1298 52.0001 19.3498 52.0001 19.4398C52.0001 19.5298 52.0001 19.8598 52.0001 19.8998C52.5501 25.3198 62.2201 31.4498 63.3201 32.1398ZM58.5201 14.2598C59.542 14.29 60.5249 14.659 61.3142 15.3089C62.1035 15.9588 62.6543 16.8526 62.8801 17.8498C62.9376 18.0616 63.0633 18.2486 63.2377 18.3819C63.4121 18.5153 63.6255 18.5875 63.8451 18.5875C64.0646 18.5875 64.278 18.5153 64.4524 18.3819C64.6268 18.2486 64.7525 18.0616 64.8101 17.8498C65.0358 16.8526 65.5867 15.9588 66.3759 15.3089C67.1652 14.659 68.1481 14.29 69.1701 14.2598C70.4106 14.3118 71.5805 14.8516 72.4251 15.7618C73.2697 16.6719 73.7207 17.8788 73.6801 19.1198V19.3898C73.6801 19.4398 73.6801 19.6398 73.6801 19.7198C73.3601 23.2598 66.9301 28.1198 63.8801 30.0998C60.8301 28.0998 54.4101 23.2598 54.0901 19.7098C54.0901 19.6598 54.0901 19.4198 54.0901 19.3598V19.1298C54.0461 17.9002 54.485 16.7024 55.3129 15.7923C56.1408 14.8822 57.2919 14.3321 58.5201 14.2598Z" fill="#84967F"/>
<path d="M38.7101 42.4802C40.264 42.4785 41.7919 42.0812 43.1497 41.3255C44.5076 40.5699 45.6506 39.4809 46.471 38.1612C47.2915 36.8415 47.7623 35.3346 47.8391 33.7825C47.9159 32.2305 47.5962 30.6845 46.9101 29.2902C47.5515 28.8104 48.0813 28.1971 48.4628 27.4927C48.8443 26.7884 49.0686 26.0096 49.1201 25.2102C49.1201 23.2102 48.8501 22.0602 47.3301 19.5602C47.246 19.4077 47.1209 19.2819 46.9688 19.197C46.8168 19.1122 46.644 19.0717 46.4701 19.0802C46.2965 19.0802 46.126 19.1254 45.9752 19.2114C45.8244 19.2973 45.6986 19.4209 45.6101 19.5702C45.0601 20.5202 43.7601 22.7602 36.8701 20.1002C35.9258 19.7985 34.9221 19.7319 33.9461 19.9062C32.9702 20.0805 32.0516 20.4903 31.2701 21.1002C30.3074 21.6979 29.5001 22.5152 28.9143 23.4851C28.3285 24.455 27.9809 25.55 27.9001 26.6802C27.8514 29.0242 28.4241 31.3393 29.5601 33.3902C29.5785 35.8057 30.5504 38.1161 32.2641 39.8186C33.9777 41.521 36.2945 42.4776 38.7101 42.4802ZM38.7101 40.4802C36.8138 40.4802 34.9952 39.7269 33.6543 38.386C32.3134 37.0451 31.5601 35.2265 31.5601 33.3302C31.5601 33.3302 31.5601 33.2602 31.5601 33.2302C31.5705 33.1472 31.5705 33.0632 31.5601 32.9802C31.6581 31.5872 32.032 30.2275 32.6601 28.9802C32.9213 28.478 33.2586 28.0193 33.6601 27.6202C35.2533 29.0085 37.1303 30.0324 39.1601 30.6202C41.141 31.1751 43.2494 31.0626 45.1601 30.3002C45.6064 31.2374 45.8387 32.2622 45.8401 33.3002C45.844 34.24 45.6627 35.1714 45.3064 36.041C44.9501 36.9106 44.4258 37.7015 43.7636 38.3684C43.1014 39.0352 42.3142 39.565 41.4471 39.9274C40.5799 40.2897 39.6499 40.4776 38.7101 40.4802ZM32.4101 22.7602C33.2047 22.1568 34.1635 21.8082 35.1601 21.7602C35.5012 21.7527 35.8406 21.8104 36.1601 21.9302C41.0401 23.8102 44.3301 23.8002 46.3601 21.8402C46.925 22.8593 47.1918 24.0167 47.1301 25.1802C47.0751 25.6898 46.912 26.1818 46.6516 26.6233C46.3912 27.0648 46.0395 27.4456 45.6201 27.7402C44.7574 28.3433 43.7672 28.7392 42.7265 28.8971C41.6858 29.0549 40.6228 28.9704 39.6201 28.6502C37.6666 28.0316 35.8785 26.9786 34.3901 25.5702C34.2394 25.4331 34.0505 25.3452 33.8485 25.3184C33.6466 25.2916 33.4413 25.3271 33.2601 25.4202C32.2374 26.0301 31.4167 26.9274 30.9001 28.0002C30.6382 28.5179 30.411 29.0524 30.2201 29.6002C30.012 28.6441 29.9048 27.6687 29.9001 26.6902C29.9911 25.8871 30.2646 25.1155 30.6996 24.4343C31.1347 23.7532 31.7197 23.1805 32.4101 22.7602Z" fill="#84967F"/>
<path d="M48.23 47.9202C48.23 48.1854 48.3353 48.4397 48.5229 48.6273C48.7104 48.8148 48.9648 48.9202 49.23 48.9202C51.343 48.9544 53.3567 49.8233 54.8312 51.3372C56.3058 52.8511 57.1214 54.887 57.1 57.0002V69.2302C57.1 75.4402 60.45 79.3002 65.85 79.3002C66.1152 79.3002 66.3696 79.1948 66.5571 79.0073C66.7446 78.8197 66.85 78.5654 66.85 78.3002C66.85 78.035 66.7446 77.7806 66.5571 77.5931C66.3696 77.4055 66.1152 77.3002 65.85 77.3002C59.58 77.3002 59.1 71.1202 59.1 69.2302V57.0002C59.1187 54.3583 58.0912 51.8163 56.2419 49.9295C54.3925 48.0428 51.8717 46.9645 49.23 46.9302C48.9665 46.9302 48.7136 47.0341 48.5264 47.2195C48.3391 47.4049 48.2326 47.6567 48.23 47.9202Z" fill="#84967F"/>
<path d="M28.15 79.3002C28.2634 79.2972 28.3752 79.2734 28.48 79.2302L29.72 109.75L24.82 114C24.6654 114.134 24.5556 114.313 24.5055 114.511C24.4554 114.71 24.4675 114.919 24.54 115.11C24.6109 115.3 24.7378 115.464 24.9039 115.58C25.07 115.696 25.2674 115.759 25.47 115.76H52C52.2044 115.761 52.404 115.699 52.572 115.583C52.7401 115.466 52.8685 115.302 52.94 115.11C53.0126 114.919 53.0247 114.71 52.9746 114.511C52.9245 114.313 52.8147 114.134 52.66 114L47.66 109.69L49.66 61.4802C49.66 61.215 49.5547 60.9606 49.3671 60.7731C49.1796 60.5855 48.9253 60.4802 48.66 60.4802C48.3948 60.4802 48.1405 60.5855 47.9529 60.7731C47.7654 60.9606 47.66 61.215 47.66 61.4802L45.66 109.54H39.66V82.5402C39.66 82.275 39.5547 82.0206 39.3671 81.8331C39.1796 81.6455 38.9253 81.5402 38.66 81.5402C38.3948 81.5402 38.1405 81.6455 37.9529 81.8331C37.7654 82.0206 37.66 82.275 37.66 82.5402V109.54H31.66L30.15 72.5402H39.29C39.5553 72.5402 39.8096 72.4348 39.9971 72.2473C40.1847 72.0597 40.29 71.8054 40.29 71.5402C40.29 71.275 40.1847 71.0206 39.9971 70.8331C39.8096 70.6455 39.5553 70.5402 39.29 70.5402H30.12L29.75 61.4602C29.7448 61.3289 29.7137 61.1999 29.6586 61.0805C29.6035 60.9612 29.5254 60.8539 29.4289 60.7648C29.3323 60.6756 29.2191 60.6064 29.0958 60.561C28.9724 60.5156 28.8414 60.4949 28.71 60.5002C28.5787 60.5054 28.4497 60.5365 28.3304 60.5916C28.2111 60.6467 28.1038 60.7248 28.0146 60.8214C27.9255 60.9179 27.8563 61.0311 27.8108 61.1544C27.7654 61.2778 27.7448 61.4089 27.75 61.5402L28.4 77.4402C28.317 77.4297 28.233 77.4297 28.15 77.4402C26.0387 77.4059 24.0266 76.5384 22.5523 75.0267C21.0781 73.5149 20.2613 71.4817 20.28 69.3702V57.0002C20.2613 54.8887 21.0781 52.8554 22.5523 51.3437C24.0266 49.832 26.0387 48.9644 28.15 48.9302C28.4153 48.9302 28.6696 48.8248 28.8571 48.6373C29.0447 48.4497 29.15 48.1954 29.15 47.9302C29.15 47.665 29.0447 47.4106 28.8571 47.2231C28.6696 47.0355 28.4153 46.9302 28.15 46.9302C25.5083 46.9645 22.9875 48.0428 21.1382 49.9295C19.2888 51.8163 18.2613 54.3583 18.28 57.0002V69.2302C18.2613 71.8721 19.2888 74.414 21.1382 76.3008C22.9875 78.1876 25.5083 79.2659 28.15 79.3002ZM46.62 111.43L49.3 113.75H39.69V111.44L46.62 111.43ZM37.69 111.43V113.74H28.16L30.84 111.43H37.69Z" fill="#84967F"/>
<path d="M34.9999 61.79C34.9783 61.9944 35.0202 62.2004 35.1199 62.38L37.9999 67.45C38.0867 67.6045 38.213 67.7331 38.3659 67.8227C38.5188 67.9124 38.6927 67.9597 38.8699 67.96C39.0471 67.9597 39.221 67.9124 39.3739 67.8227C39.5268 67.7331 39.6531 67.6045 39.7399 67.45L42.6099 62.38C42.713 62.2015 42.7584 61.9954 42.7399 61.79L41.6099 49.7C41.5874 49.4507 41.4722 49.2189 41.287 49.0504C41.1019 48.8819 40.8602 48.789 40.6099 48.79H37.0699C36.8196 48.789 36.578 48.8819 36.3928 49.0504C36.2077 49.2189 36.0924 49.4507 36.0699 49.7L34.9999 61.79ZM37.9999 50.79H39.6999L40.6999 61.66L38.8499 64.93L36.9999 61.66L37.9999 50.79Z" fill="#84967F"/>
<path d="M40.5901 47.3198C40.8553 47.3198 41.1097 47.2145 41.2972 47.0269C41.4847 46.8394 41.5901 46.585 41.5901 46.3198C41.5901 46.0546 41.4847 45.8003 41.2972 45.6127C41.1097 45.4252 40.8553 45.3198 40.5901 45.3198H37.0901C36.8249 45.3198 36.5705 45.4252 36.383 45.6127C36.1954 45.8003 36.0901 46.0546 36.0901 46.3198C36.0901 46.585 36.1954 46.8394 36.383 47.0269C36.5705 47.2145 36.8249 47.3198 37.0901 47.3198H40.5901Z" fill="#84967F"/>
<path d="M98.5501 28.8602C97.509 27.0532 96.0102 25.5524 94.2047 24.5089C92.3991 23.4654 90.3505 22.916 88.2651 22.916C86.1797 22.916 84.1311 23.4654 82.3255 24.5089C80.52 25.5524 79.0212 27.0532 77.9801 28.8602C77.8401 29.1202 77.4901 29.9202 77.4801 29.9402L67.6101 53.6702C65.9301 56.8202 66.9601 60.9302 69.8101 62.4702C70.5619 62.8779 71.4013 63.0972 72.2565 63.1094C73.1116 63.1216 73.957 62.9263 74.7201 62.5402C74.7201 62.7602 74.7201 62.9602 74.6601 63.1502C74.2301 69.2902 70.5901 72.4102 63.8501 72.4102C63.5849 72.4102 63.3305 72.5155 63.143 72.7031C62.9555 72.8906 62.8501 73.145 62.8501 73.4102C62.8501 73.6754 62.9555 73.9297 63.143 74.1173C63.3305 74.3048 63.5849 74.4102 63.8501 74.4102C71.7201 74.4102 76.1501 70.5602 76.6601 63.2902C76.6601 63.1202 76.6601 62.9402 76.6601 62.7602L76.9001 62.9002C77.7087 63.5208 78.6558 63.9361 79.6601 64.1102C79.8209 64.1077 79.9786 64.0666 80.1201 63.9902C80.4232 64.8902 80.8151 65.7578 81.2901 66.5802C73.0001 70.9302 67.3901 82.0002 67.3901 94.1902C67.2561 101.699 69.5189 109.055 73.8501 115.19C73.9432 115.314 74.064 115.415 74.2029 115.485C74.3417 115.554 74.4949 115.59 74.6501 115.59H101.87C102.025 115.59 102.178 115.554 102.317 115.485C102.456 115.415 102.577 115.314 102.67 115.19C107.001 109.055 109.264 101.699 109.13 94.1902C109.13 84.8902 105.88 76.2602 100.64 70.7502C101.681 68.3602 102.101 65.7458 101.86 63.1502C101.86 62.9602 101.86 62.7602 101.86 62.5402C102.621 62.9262 103.465 63.1216 104.319 63.1094C105.172 63.0972 106.01 62.8778 106.76 62.4702C109.61 60.9302 110.64 56.8202 109 53.7602L99.0001 29.9202C99.0001 29.9202 98.6801 29.1302 98.5501 28.8602ZM93.2401 66.0002V66.0502C93.0635 66.3204 92.8516 66.5659 92.6101 66.7802C91.3516 67.6993 89.8335 68.1947 88.2751 68.1947C86.7167 68.1947 85.1986 67.6993 83.9401 66.7802C83.6959 66.561 83.4838 66.3085 83.3101 66.0302C82.1714 64.1686 81.4863 62.0653 81.3101 59.8902C81.309 59.1674 81.5527 58.4655 82.0014 57.8989C82.4501 57.3323 83.0774 56.9342 83.7812 56.7696C84.4849 56.605 85.2237 56.6834 85.8772 56.9922C86.5307 57.301 87.0604 57.8219 87.3801 58.4702C87.4632 58.6351 87.5903 58.7738 87.7474 58.8708C87.9045 58.9679 88.0854 59.0196 88.2701 59.0202C88.4565 59.0215 88.6395 58.9707 88.7985 58.8735C88.9575 58.7763 89.0862 58.6366 89.1701 58.4702C89.4927 57.8274 90.0223 57.3121 90.6737 57.0072C91.325 56.7024 92.06 56.6258 92.7602 56.7899C93.4604 56.954 94.0849 57.3491 94.533 57.9116C94.9811 58.474 95.2267 59.171 95.2301 59.8902C95.0524 62.0542 94.3709 64.1466 93.2401 66.0002ZM101.36 113.66H75.1601C73.3679 111.105 71.9878 108.284 71.0701 105.3C72.6472 105.27 74.1489 104.619 75.2501 103.49C75.8151 104.066 76.4889 104.523 77.2323 104.835C77.9756 105.148 78.7737 105.309 79.5801 105.31C80.3888 105.315 81.1902 105.156 81.936 104.843C82.6818 104.531 83.3567 104.07 83.9201 103.49C84.4861 104.067 85.1614 104.525 85.9066 104.838C86.6518 105.151 87.4519 105.312 88.2601 105.312C89.0683 105.312 89.8684 105.151 90.6136 104.838C91.3588 104.525 92.0341 104.067 92.6001 103.49C93.1661 104.067 93.8414 104.525 94.5866 104.838C95.3318 105.151 96.1319 105.312 96.9401 105.312C97.7483 105.312 98.5484 105.151 99.2936 104.838C100.039 104.525 100.714 104.067 101.28 103.49C102.379 104.617 103.876 105.267 105.45 105.3C104.529 108.27 103.149 111.077 101.36 113.62V113.66ZM107.13 94.2302C107.133 97.319 106.75 100.396 105.99 103.39C105.87 103.339 105.741 103.312 105.61 103.31C104.905 103.313 104.212 103.129 103.601 102.778C102.99 102.427 102.483 101.921 102.13 101.31C102.041 101.163 101.915 101.042 101.766 100.957C101.616 100.873 101.447 100.829 101.275 100.829C101.103 100.829 100.934 100.873 100.785 100.957C100.635 101.042 100.509 101.163 100.42 101.31C100.058 101.915 99.5449 102.416 98.9315 102.763C98.3181 103.111 97.6251 103.293 96.9201 103.293C96.2151 103.293 95.5221 103.111 94.9087 102.763C94.2953 102.416 93.7824 101.915 93.4201 101.31C93.331 101.163 93.2055 101.042 93.0557 100.957C92.9059 100.873 92.737 100.829 92.5651 100.829C92.3932 100.829 92.2243 100.873 92.0745 100.957C91.9247 101.042 91.7992 101.163 91.7101 101.31C91.3497 101.917 90.8375 102.42 90.2239 102.77C89.6102 103.119 88.9162 103.303 88.2101 103.303C87.504 103.303 86.81 103.119 86.1963 102.77C85.5827 102.42 85.0705 101.917 84.7101 101.31C84.621 101.163 84.4955 101.042 84.3457 100.957C84.1959 100.873 84.027 100.829 83.8551 100.829C83.6832 100.829 83.5143 100.873 83.3645 100.957C83.2147 101.042 83.0892 101.163 83.0001 101.31C82.6666 101.858 82.2087 102.319 81.6635 102.657C81.1183 102.995 80.5011 103.199 79.8621 103.254C79.2231 103.308 78.5803 103.212 77.9857 102.971C77.3911 102.731 76.8616 102.354 76.4401 101.87C76.2891 101.694 76.152 101.507 76.0301 101.31C75.941 101.163 75.8155 101.042 75.6657 100.957C75.5159 100.873 75.347 100.829 75.1751 100.829C75.0032 100.829 74.8343 100.873 74.6845 100.957C74.5347 101.042 74.4092 101.163 74.3201 101.31C73.9677 101.921 73.4602 102.427 72.8491 102.778C72.238 103.129 71.5449 103.313 70.8401 103.31C70.7094 103.312 70.5803 103.339 70.4601 103.39C69.7006 100.396 69.3176 97.319 69.3201 94.2302C69.3201 82.6802 74.5501 72.2302 82.3201 68.3002C82.3675 68.2726 82.4112 68.2389 82.4501 68.2002L82.5301 68.2802C84.1565 69.529 86.1496 70.2059 88.2001 70.2059C90.2506 70.2059 92.2437 69.529 93.8701 68.2802C93.9084 68.3196 93.9522 68.3533 94.0001 68.3802C95.4535 69.1453 96.7986 70.1003 98.0001 71.2202C96.4832 73.4555 94.1554 75.0122 91.5101 75.5602C91.2528 75.6251 91.0319 75.7897 90.896 76.0175C90.76 76.2454 90.7201 76.5179 90.7851 76.7752C90.8501 77.0324 91.0146 77.2533 91.2424 77.3893C91.4703 77.5253 91.7428 77.5651 92.0001 77.5002C94.9861 76.8512 97.632 75.1335 99.4401 72.6702C104.25 77.7002 107.13 85.6302 107.13 94.1902V94.2302ZM95.1901 66.5802C95.6606 65.759 96.0524 64.8952 96.3601 64.0002C96.5016 64.0766 96.6593 64.1177 96.8201 64.1202C97.8244 63.9461 98.7715 63.5308 99.5801 62.9102L99.8201 62.7702C99.8201 62.9502 99.8201 63.1302 99.8201 63.3002C100.01 65.3325 99.7467 67.3816 99.0501 69.3002C97.8739 68.2461 96.5784 67.3332 95.1901 66.5802ZM105.76 60.7102C105.288 60.9564 104.763 61.085 104.23 61.085C103.697 61.085 103.173 60.9564 102.7 60.7102C102.342 60.5308 101.957 60.4125 101.56 60.3602C101.43 59.3602 101.28 58.3602 101.13 57.2802C101 56.4102 100.87 55.5102 100.75 54.6102C100.584 52.6783 99.6755 50.886 98.2152 49.6103C96.7549 48.3347 94.8568 47.675 92.9201 47.7702C92.6549 47.7702 92.4005 47.8755 92.213 48.0631C92.0255 48.2506 91.9201 48.505 91.9201 48.7702C91.9201 49.0354 92.0255 49.2897 92.213 49.4773C92.4005 49.6648 92.6549 49.7702 92.9201 49.7702C94.3705 49.6847 95.7964 50.1724 96.8907 51.1282C97.9849 52.084 98.6598 53.4314 98.7701 54.8802C98.8901 55.7802 99.0201 56.6902 99.1501 57.5702C99.3001 58.6302 99.4501 59.6602 99.5701 60.5702C99.4801 60.5702 99.3801 60.6302 99.2901 60.6802C99.2001 60.7302 98.8401 60.9302 98.5401 61.1102C98.0197 61.4471 97.4749 61.7446 96.9101 62.0002C97.0902 61.2594 97.1941 60.5021 97.2201 59.7402C97.1965 58.3723 96.6358 57.0686 95.6591 56.1107C94.6824 55.1527 93.3682 54.6173 92.0001 54.6202C91.2982 54.6183 90.6034 54.7602 89.9585 55.037C89.3135 55.3139 88.7321 55.72 88.2501 56.2302C87.7681 55.72 87.1867 55.3139 86.5417 55.037C85.8968 54.7602 85.202 54.6183 84.5001 54.6202C83.1201 54.6202 81.7964 55.1677 80.8196 56.1426C79.8428 57.1175 79.2927 58.4401 79.2901 59.8202C79.3161 60.5821 79.42 61.3394 79.6001 62.0802C79.0456 61.8232 78.5108 61.5258 78.0001 61.1902C77.7001 61.0102 77.4301 60.8502 77.2501 60.7602C77.0701 60.6702 77.0601 60.6902 76.9701 60.6502C77.1001 59.7102 77.2401 58.6502 77.4001 57.5902C77.5301 56.7202 77.6501 55.8302 77.7801 54.9302C77.8879 53.4823 78.5607 52.1349 79.6533 51.1788C80.746 50.2228 82.1708 49.7348 83.6201 49.8202C83.8853 49.8202 84.1397 49.7148 84.3272 49.5273C84.5147 49.3397 84.6201 49.0854 84.6201 48.8202C84.6201 48.555 84.5147 48.3006 84.3272 48.1131C84.1397 47.9255 83.8853 47.8202 83.6201 47.8202C81.6845 47.7252 79.7875 48.3851 78.3288 49.661C76.8702 50.9369 75.9636 52.7291 75.8001 54.6602C75.6701 55.5502 75.5401 56.4402 75.4201 57.3102C75.2601 58.3902 75.1101 59.4502 74.9801 60.4102C74.5832 60.4625 74.1979 60.5808 73.8401 60.7602C73.3677 61.0064 72.8428 61.135 72.3101 61.135C71.7774 61.135 71.2525 61.0064 70.7801 60.7602C68.9001 59.7602 68.2401 56.8302 69.4301 54.5702L79.3401 30.7802C79.3401 30.7802 79.6601 30.0502 79.7801 29.7802C80.6545 28.3044 81.8981 27.0817 83.3885 26.2324C84.8789 25.3831 86.5647 24.9365 88.2801 24.9365C89.9955 24.9365 91.6813 25.3831 93.1717 26.2324C94.6621 27.0817 95.9057 28.3044 96.7801 29.7802C96.9001 30.0102 97.2101 30.7302 97.2101 30.7302L107.21 54.6302C108.3 56.7802 107.64 59.6902 105.76 60.7102Z" fill="#84967F"/>
<path d="M93.4101 29.2498C93.3942 29.0301 93.3061 28.8218 93.1596 28.6572C93.0132 28.4927 92.8165 28.3811 92.6001 28.3398C92.382 28.299 92.1566 28.3319 91.9593 28.4333C91.7619 28.5347 91.6039 28.6988 91.5101 28.8998C90.0701 32.0298 83.4101 34.7698 80.1501 34.7698C79.8849 34.7499 79.6226 34.8362 79.421 35.0097C79.2194 35.1831 79.095 35.4296 79.0751 35.6948C79.0552 35.96 79.1415 36.2223 79.3149 36.4239C79.4884 36.6255 79.7349 36.7499 80.0001 36.7698C80.0494 38.9187 80.9215 40.9666 82.4365 42.4913C83.9516 44.016 85.994 44.901 88.1425 44.9639C90.291 45.0267 92.3817 44.2626 93.9833 42.8291C95.5849 41.3956 96.5753 39.4021 96.7501 37.2598C96.9452 37.2479 97.1326 37.179 97.289 37.0617C97.4454 36.9444 97.564 36.7838 97.6301 36.5998C97.6771 36.4733 97.698 36.3385 97.6916 36.2037C97.6852 36.0689 97.6515 35.9368 97.5926 35.8153C97.5338 35.6938 97.4509 35.5855 97.3491 35.4969C97.2472 35.4083 97.1285 35.3413 97.0001 35.2998C95.5301 34.7798 93.5701 31.4998 93.4101 29.2498ZM88.4101 42.9498C86.7179 42.9525 85.0935 42.2849 83.8922 41.093C82.691 39.9011 82.0107 38.282 82.0001 36.5898C85.2501 36.0298 89.5601 34.1798 92.0001 31.6798C92.5873 33.4103 93.5819 34.9742 94.9001 36.2398C94.8568 36.3376 94.833 36.4429 94.8301 36.5498C94.8367 37.3978 94.6748 38.2387 94.3536 39.0236C94.0324 39.8085 93.5585 40.5218 92.9593 41.1219C92.3601 41.722 91.6476 42.1971 90.8632 42.5195C90.0788 42.8419 89.2381 43.0051 88.3901 42.9998L88.4101 42.9498Z" fill="#84967F"/>
</svg>
