<svg width="128" height="128" viewBox="0 0 128 128" fill="none" xmlns="http://www.w3.org/2000/svg">
<path d="M64 89.7198C78.2048 89.7198 89.72 78.2046 89.72 63.9998C89.72 49.795 78.2048 38.2798 64 38.2798C49.7953 38.2798 38.28 49.795 38.28 63.9998C38.28 78.2046 49.7953 89.7198 64 89.7198Z" stroke="white" stroke-width="2" stroke-linecap="round" stroke-linejoin="round"/>
<path d="M64 103.99C86.0859 103.99 103.99 86.0856 103.99 63.9998C103.99 41.9139 86.0859 24.0098 64 24.0098C41.9141 24.0098 24.01 41.9139 24.01 63.9998C24.01 86.0856 41.9141 103.99 64 103.99Z" stroke="white" stroke-width="2" stroke-linecap="round" stroke-linejoin="round"/>
<path d="M9.43005 53.7598H19.8901" stroke="white" stroke-width="2" stroke-linecap="round" stroke-linejoin="round"/>
<path d="M11.83 53.7598V102.76C11.8729 103.483 12.1903 104.162 12.7172 104.658C13.2442 105.155 13.9409 105.431 14.665 105.431C15.389 105.431 16.0857 105.155 16.6127 104.658C17.1396 104.162 17.457 103.483 17.5 102.76V53.7598" stroke="white" stroke-width="2" stroke-linecap="round" stroke-linejoin="round"/>
<path d="M7.76001 38.4998L8.52001 24.8198" stroke="white" stroke-width="2" stroke-linecap="round" stroke-linejoin="round"/>
<path d="M12.42 38.4998L12.67 24.8198" stroke="white" stroke-width="2" stroke-linecap="round" stroke-linejoin="round"/>
<path d="M21.73 38.4998L20.97 24.8198" stroke="white" stroke-width="2" stroke-linecap="round" stroke-linejoin="round"/>
<path d="M17.0699 38.4998L16.8199 24.8198" stroke="white" stroke-width="2" stroke-linecap="round" stroke-linejoin="round"/>
<path d="M18.12 53.2698C20.0326 49.4552 21.2194 45.3182 21.62 41.0698C21.7 40.3898 21.74 39.7098 21.79 39.0698H7.69995C7.69995 39.7598 7.78995 40.4398 7.86995 41.0698C8.26565 45.3192 9.45273 49.457 11.37 53.2698" stroke="white" stroke-width="2" stroke-linecap="round" stroke-linejoin="round"/>
<path d="M17.2601 83.6099L12.0601 88.8099" stroke="white" stroke-width="2" stroke-linecap="round" stroke-linejoin="round"/>
<path d="M17.2601 90.9702L12.0601 96.1702" stroke="white" stroke-width="2" stroke-linecap="round" stroke-linejoin="round"/>
<path d="M109.85 66.7598H120.3" stroke="white" stroke-width="2" stroke-linecap="round" stroke-linejoin="round"/>
<path d="M112.24 66.7598V102.76C112.283 103.483 112.6 104.162 113.127 104.658C113.654 105.155 114.351 105.431 115.075 105.431C115.799 105.431 116.496 105.155 117.023 104.658C117.55 104.162 117.867 103.483 117.91 102.76V66.7598" stroke="white" stroke-width="2" stroke-linecap="round" stroke-linejoin="round"/>
<path d="M117.91 66.5902V22.4102C113.42 26.2202 109.91 35.9802 109.09 46.2602C108.47 54.2602 109.91 62.8802 112.97 66.5902" stroke="white" stroke-width="2" stroke-linecap="round" stroke-linejoin="round"/>
<path d="M117.68 84.6099L112.48 89.8099" stroke="white" stroke-width="2" stroke-linecap="round" stroke-linejoin="round"/>
<path d="M117.68 91.9702L112.48 97.1702" stroke="white" stroke-width="2" stroke-linecap="round" stroke-linejoin="round"/>
<path d="M77.22 61.16C77.2635 59.3235 76.5832 57.5435 75.3261 56.204C74.0689 54.8646 72.3356 54.073 70.5 54C68.9797 54.0337 67.5142 54.5746 66.3365 55.5367C65.1587 56.4988 64.3364 57.8269 64 59.31C63.6637 57.8269 62.8413 56.4988 61.6636 55.5367C60.4859 54.5746 59.0204 54.0337 57.5 54C55.6645 54.073 53.9311 54.8646 52.674 56.204C51.4168 57.5435 50.7366 59.3235 50.78 61.16C50.78 61.34 50.78 61.52 50.78 61.7V61.76C50.78 61.82 50.78 61.88 50.78 61.94C51.38 68.2 64 76 64 76C64 76 76.62 68.2 77.18 62C77.18 61.94 77.18 61.88 77.18 61.82V61.76C77.18 61.58 77.18 61.4 77.18 61.22L77.22 61.16Z" stroke="white" stroke-width="2" stroke-linecap="round" stroke-linejoin="round"/>
<path d="M97.7 77.9601L91.97 75.5801" stroke="white" stroke-width="2" stroke-linecap="round" stroke-linejoin="round"/>
<path d="M36.03 52.42L30.3 50.04" stroke="white" stroke-width="2" stroke-linecap="round" stroke-linejoin="round"/>
<path d="M50.04 97.7002L52.42 91.9702" stroke="white" stroke-width="2" stroke-linecap="round" stroke-linejoin="round"/>
<path d="M75.58 36.0298L77.96 30.2998" stroke="white" stroke-width="2" stroke-linecap="round" stroke-linejoin="round"/>
<path d="M89.79 89.7902L85.41 85.4102" stroke="white" stroke-width="2" stroke-linecap="round" stroke-linejoin="round"/>
<path d="M42.59 42.59L38.21 38.21" stroke="white" stroke-width="2" stroke-linecap="round" stroke-linejoin="round"/>
<path d="M38.21 89.7902L42.59 85.4102" stroke="white" stroke-width="2" stroke-linecap="round" stroke-linejoin="round"/>
<path d="M85.41 42.59L89.79 38.21" stroke="white" stroke-width="2" stroke-linecap="round" stroke-linejoin="round"/>
<path d="M77.96 97.7002L75.58 91.9702" stroke="white" stroke-width="2" stroke-linecap="round" stroke-linejoin="round"/>
<path d="M52.42 36.0298L50.04 30.2998" stroke="white" stroke-width="2" stroke-linecap="round" stroke-linejoin="round"/>
<path d="M30.3 77.9601L36.03 75.5801" stroke="white" stroke-width="2" stroke-linecap="round" stroke-linejoin="round"/>
<path d="M91.97 52.42L97.7 50.04" stroke="white" stroke-width="2" stroke-linecap="round" stroke-linejoin="round"/>
<path d="M64 100.48V94.27" stroke="white" stroke-width="2" stroke-linecap="round" stroke-linejoin="round"/>
<path d="M64 33.73V27.52" stroke="white" stroke-width="2" stroke-linecap="round" stroke-linejoin="round"/>
<path d="M27.52 64H33.73" stroke="white" stroke-width="2" stroke-linecap="round" stroke-linejoin="round"/>
<path d="M94.27 64H100.48" stroke="white" stroke-width="2" stroke-linecap="round" stroke-linejoin="round"/>
</svg>
