<?xml version="1.0" ?><svg data-name="Layer 1" id="Layer_1" viewBox="0 0 128 128" xmlns="http://www.w3.org/2000/svg"><title/><path d="M82.88,23.15H45.12a1,1,0,0,0-.72.31l-8.84,9.27a1,1,0,0,0,0,1.4L63.29,61.81a1,1,0,0,0,1.42,0L92.42,34.13a1,1,0,0,0,0-1.4L83.6,23.46A1,1,0,0,0,82.88,23.15Zm6.5,9.27H77.19l-6.93-7.27H82.45ZM67.5,25.15l6.93,7.27H53.57l6.94-7.27Zm7.79,9.27L64,58.15,52.71,34.42Zm-24.8,0L61.17,56.86,38.7,34.42Zm27,0H89.3L66.83,56.87Zm-32-9.27H57.74l-6.93,7.27H38.62Z"/><path d="M64,124A35.71,35.71,0,0,0,79.18,56l3.06-3.06a1,1,0,0,0-1.41-1.41L64,68.32,47.17,51.52a1,1,0,0,0-1.41,1.41L48.82,56A35.71,35.71,0,0,0,64,124Zm0-53.3a1,1,0,0,0,.71-.3l8.69-8.68a28.18,28.18,0,1,1-18.8,0l8.69,8.68A1,1,0,0,0,64,70.74ZM50.32,57.49,53,60.21a30.18,30.18,0,1,0,21.92,0l2.72-2.72a33.73,33.73,0,1,1-27.36,0Z"/><path d="M64,13.28a1,1,0,0,0,1-1V6a1,1,0,0,0-2,0v6.27A1,1,0,0,0,64,13.28Z"/><path d="M90.41,20.94a1,1,0,0,0,.5-.14l5.43-3.13a1,1,0,0,0,.37-1.37,1,1,0,0,0-1.37-.36l-5.43,3.13a1,1,0,0,0,.5,1.87Z"/><path d="M31.66,17.67l5.43,3.13a1,1,0,0,0,1.37-.36,1,1,0,0,0-.37-1.37l-5.43-3.13a1,1,0,0,0-1.37.36A1,1,0,0,0,31.66,17.67Z"/><path d="M44.66,16.27a1,1,0,0,0,.87.5,1,1,0,0,0,.86-1.5L43.26,9.84a1,1,0,0,0-1.74,1Z"/><path d="M82,16.64a1,1,0,0,0,.5.13,1,1,0,0,0,.87-.5l3.13-5.43a1,1,0,0,0-.36-1.36,1,1,0,0,0-1.37.36l-3.13,5.43A1,1,0,0,0,82,16.64Z"/><path d="M54.26,13.24a1,1,0,0,0,1,.74l.26,0a1,1,0,0,0,.7-1.23L54.57,6.67a1,1,0,1,0-1.93.51Z"/><path d="M72.51,14l.26,0a1,1,0,0,0,1-.74l1.62-6.06a1,1,0,1,0-1.93-.51l-1.62,6.05A1,1,0,0,0,72.51,14Z"/></svg>