<svg width="128" height="128" viewBox="0 0 128 128" fill="none" xmlns="http://www.w3.org/2000/svg">
<path d="M69.04 88.48L96.84 95.93" stroke="#5B855A" stroke-width="2" stroke-linecap="round" stroke-linejoin="round"/>
<path d="M79.15 50.6099L68.15 91.5399C67.9883 92.1374 67.9462 92.761 68.0262 93.3748C68.1062 93.9886 68.3067 94.5806 68.6161 95.1168C68.9255 95.6529 69.3378 96.1226 69.8293 96.499C70.3207 96.8754 70.8817 97.1509 71.48 97.3099L100.54 105.1C101.138 105.262 101.762 105.304 102.377 105.224C102.991 105.144 103.584 104.944 104.121 104.634C104.658 104.325 105.129 103.913 105.506 103.421C105.883 102.93 106.16 102.369 106.32 101.77L117.74 59.1599" stroke="#5B855A" stroke-width="2" stroke-linecap="round" stroke-linejoin="round"/>
<path d="M115.08 69.21L119.62 70.43C121.261 70.8705 122.661 71.945 123.51 73.417C124.36 74.8891 124.59 76.6383 124.15 78.28L121.27 89C121.053 89.8135 120.678 90.5761 120.165 91.2443C119.653 91.9125 119.014 92.4731 118.285 92.8939C117.556 93.3147 116.751 93.5875 115.916 93.6966C115.081 93.8058 114.233 93.7491 113.42 93.53L108.88 92.32" stroke="#5B855A" stroke-width="2" stroke-linecap="round" stroke-linejoin="round"/>
<path d="M84.38 64.1699L79.53 82.2799" stroke="#5B855A" stroke-width="2" stroke-linecap="round" stroke-linejoin="round"/>
<path d="M95.0199 67.0298L90.1699 85.1298" stroke="#5B855A" stroke-width="2" stroke-linecap="round" stroke-linejoin="round"/>
<path d="M105.66 69.8799L100.81 87.9799" stroke="#5B855A" stroke-width="2" stroke-linecap="round" stroke-linejoin="round"/>
<path d="M95.1201 41.1699C95.8184 41.9439 96.2481 42.9225 96.3454 43.9604C96.4427 44.9982 96.2024 46.0397 95.6601 46.9299" stroke="#5B855A" stroke-width="2" stroke-linecap="round" stroke-linejoin="round"/>
<path d="M122.2 53.7099C122.358 52.34 122.119 50.9536 121.512 49.7154C120.905 48.4772 119.956 47.4393 118.776 46.7252C117.596 46.0111 116.236 45.6508 114.858 45.6871C113.479 45.7234 112.14 46.1547 111 46.9299C110.702 46.1318 110.218 45.4161 109.589 44.8422C108.959 44.2683 108.202 43.8527 107.38 43.6299C106.426 43.3543 105.414 43.3543 104.46 43.6299C104.282 42.6236 103.821 41.689 103.131 40.9356C102.44 40.1823 101.549 39.6416 100.562 39.377C99.5753 39.1124 98.5333 39.1349 97.5586 39.4419C96.584 39.7488 95.7171 40.3275 95.0599 41.1099C94.5606 40.579 93.9579 40.1559 93.2889 39.8667C92.6199 39.5775 91.8987 39.4283 91.1699 39.4283C90.4411 39.4283 89.7199 39.5775 89.0509 39.8667C88.3819 40.1559 87.7792 40.579 87.2799 41.1099C86.6058 40.4415 85.7871 39.9371 84.8869 39.6357C83.9868 39.3343 83.0294 39.2439 82.0888 39.3716C81.1481 39.4993 80.2495 39.8416 79.4623 40.3721C78.6751 40.9026 78.0204 41.607 77.5489 42.4309C77.0775 43.2548 76.8018 44.1761 76.7432 45.1236C76.6847 46.071 76.8448 47.0192 77.2113 47.8949C77.5777 48.7706 78.1407 49.5503 78.8566 50.1736C79.5725 50.797 80.4221 51.2474 81.3399 51.4899C82.32 51.7574 83.3515 51.7746 84.3399 51.5399C85.8192 51.1598 87.3706 51.1598 88.8499 51.5399L104.75 55.7999C105.335 55.9554 105.883 56.2248 106.364 56.5926C106.844 56.9605 107.247 57.4195 107.55 57.9434C107.853 58.4673 108.05 59.0459 108.128 59.6459C108.207 60.2459 108.167 60.8555 108.01 61.4399L107.36 63.8799C107.213 64.3851 107.231 64.9238 107.411 65.4181C107.591 65.9124 107.923 66.3368 108.36 66.6299C108.682 66.8428 109.049 66.9764 109.432 67.0198C109.816 67.0631 110.204 67.015 110.565 66.8793C110.926 66.7437 111.25 66.5244 111.509 66.2394C111.769 65.9544 111.958 65.6119 112.06 65.2399L113.28 60.6599C113.367 60.3285 113.519 60.0175 113.726 59.7449C113.934 59.4723 114.194 59.2435 114.49 59.0715C114.787 58.8996 115.114 58.788 115.454 58.7431C115.794 58.6982 116.139 58.7209 116.47 58.8099L118.29 59.2999C119.352 58.7633 120.266 57.972 120.948 56.9966C121.63 56.0212 122.06 54.892 122.2 53.7099Z" stroke="#5B855A" stroke-width="2" stroke-linecap="round" stroke-linejoin="round"/>
<path d="M58.9599 88.9902L31.1599 96.4402" stroke="#5B855A" stroke-width="2" stroke-linecap="round" stroke-linejoin="round"/>
<path d="M26.5099 97.6802L20.8199 99.2102" stroke="#5B855A" stroke-width="2" stroke-linecap="round" stroke-linejoin="round"/>
<path d="M48.85 51.1201L59.81 92.0001C59.9718 92.5983 60.014 93.2225 59.9341 93.837C59.8543 94.4516 59.6539 95.0443 59.3446 95.5812C59.0352 96.1181 58.623 96.5888 58.1314 96.9661C57.6398 97.3434 57.0787 97.6201 56.48 97.7801L27.42 105.57C26.8212 105.73 26.1967 105.771 25.5821 105.69C24.9675 105.609 24.3749 105.407 23.8382 105.097C23.3015 104.787 22.8311 104.374 22.4539 103.882C22.0768 103.39 21.8002 102.829 21.64 102.23L10.52 60.7801" stroke="#5B855A" stroke-width="2" stroke-linecap="round" stroke-linejoin="round"/>
<path d="M12.92 69.7202L8.37996 70.9402C7.56647 71.1572 6.80378 71.5325 6.13559 72.0447C5.46741 72.557 4.90685 73.196 4.48604 73.9252C4.06523 74.6544 3.79243 75.4595 3.68328 76.2943C3.57413 77.1292 3.63078 77.9773 3.84996 78.7902L6.72996 89.5502C6.94693 90.3637 7.32228 91.1264 7.8345 91.7946C8.34671 92.4628 8.98574 93.0233 9.71496 93.4441C10.4442 93.8649 11.2493 94.1377 12.0841 94.2469C12.9189 94.356 13.7671 94.2994 14.58 94.0802L19.12 92.8602" stroke="#5B855A" stroke-width="2" stroke-linecap="round" stroke-linejoin="round"/>
<path d="M43.6201 64.6802L48.4701 82.7902" stroke="#5B855A" stroke-width="2" stroke-linecap="round" stroke-linejoin="round"/>
<path d="M32.98 67.5298L37.83 85.6398" stroke="#5B855A" stroke-width="2" stroke-linecap="round" stroke-linejoin="round"/>
<path d="M22.34 70.3799L27.19 88.4899" stroke="#5B855A" stroke-width="2" stroke-linecap="round" stroke-linejoin="round"/>
<path d="M40.6699 41.7202C39.9145 42.688 39.5568 43.9077 39.6699 45.1302" stroke="#5B855A" stroke-width="2" stroke-linecap="round" stroke-linejoin="round"/>
<path d="M50.8 43.8098C50.4287 42.8549 49.8255 42.0076 49.0448 41.3442C48.2642 40.6808 47.3306 40.2223 46.3284 40.0099C45.3262 39.7976 44.2869 39.8381 43.3042 40.1279C42.3216 40.4177 41.4266 40.9476 40.7 41.6698C40.039 40.967 39.2 40.4564 38.2721 40.1923C37.3441 39.9282 36.362 39.9204 35.43 40.1698C34.4684 40.4225 33.5981 40.9426 32.92 41.6698C32.2634 40.8874 31.3974 40.3086 30.4234 40.0011C29.4495 39.6936 28.4081 39.6702 27.4213 39.9337C26.4346 40.1972 25.5434 40.7366 24.8524 41.4887C24.1614 42.2408 23.6992 43.1743 23.52 44.1798C22.2224 43.7959 20.8275 43.9191 19.6172 44.5242C18.4069 45.1294 17.4715 46.1714 17 47.4398C15.8603 46.6654 14.5223 46.2344 13.1448 46.1978C11.7674 46.1612 10.4084 46.5207 9.22921 47.2335C8.05 47.9463 7.10008 48.9825 6.49223 50.2191C5.88438 51.4557 5.64413 52.8407 5.80001 54.2098C5.99001 55.7898 6.62001 61.4698 12.8 60.8798C17.01 60.4798 18.39 57.4798 25.53 55.6998L39.1 52.0598C40.5806 51.6897 42.1294 51.6897 43.61 52.0598C44.7091 52.3214 45.859 52.2768 46.9345 51.9306C48.01 51.5845 48.9701 50.9501 49.7103 50.0965C50.4505 49.2429 50.9425 48.2027 51.1329 47.089C51.3232 45.9753 51.2046 44.8308 50.79 43.7798L50.8 43.8098Z" stroke="#5B855A" stroke-width="2" stroke-linecap="round" stroke-linejoin="round"/>
<path d="M74.48 24.3799H74.5" stroke="#5B855A" stroke-width="2" stroke-linecap="round" stroke-linejoin="round"/>
<path d="M80.9399 22.23H80.9499" stroke="#5B855A" stroke-width="2" stroke-linecap="round" stroke-linejoin="round"/>
<path d="M120.72 37.04H120.73" stroke="#5B855A" stroke-width="2" stroke-linecap="round" stroke-linejoin="round"/>
<path d="M15.5601 38.3901H15.5701" stroke="#5B855A" stroke-width="2" stroke-linecap="round" stroke-linejoin="round"/>
<path d="M55.47 52.02H55.48" stroke="#5B855A" stroke-width="2" stroke-linecap="round" stroke-linejoin="round"/>
<path d="M45.7 29.98H45.7099" stroke="#5B855A" stroke-width="2" stroke-linecap="round" stroke-linejoin="round"/>
<path d="M64 27.4102L64.01 37.0502" stroke="#5B855A" stroke-width="2" stroke-linecap="round" stroke-linejoin="round"/>
<path d="M69.47 36.9999C69.4726 36.0146 69.6696 35.0395 70.0497 34.1305C70.4297 33.2214 70.9855 32.3963 71.6849 31.7024C72.3844 31.0085 73.214 30.4594 74.126 30.0866C75.0381 29.7138 76.0147 29.5246 77 29.5299" stroke="#5B855A" stroke-width="2" stroke-linecap="round" stroke-linejoin="round"/>
<path d="M58.5601 37.0701C58.5587 36.0852 58.3634 35.1102 57.9853 34.2007C57.6072 33.2913 57.0536 32.4652 56.3563 31.7697C55.6589 31.0742 54.8314 30.5229 53.9209 30.1472C53.0105 29.7715 52.035 29.5788 51.05 29.5801" stroke="#5B855A" stroke-width="2" stroke-linecap="round" stroke-linejoin="round"/>
</svg>
