<svg width="128" height="128" viewBox="0 0 128 128" fill="none" xmlns="http://www.w3.org/2000/svg">
<path d="M69.34 114.47V104.69" stroke="#84967F" stroke-width="2" stroke-linecap="round" stroke-linejoin="round"/>
<path d="M60.36 104.69V114.47" stroke="#84967F" stroke-width="2" stroke-linecap="round" stroke-linejoin="round"/>
<path d="M13.35 95.9902H116.35L109.53 104.71H20.16L13.35 95.9902Z" stroke="#84967F" stroke-width="2" stroke-linecap="round" stroke-linejoin="round"/>
<path d="M17.13 100.35H72.23" stroke="#84967F" stroke-width="2" stroke-linecap="round" stroke-linejoin="round"/>
<path d="M91.27 100.35H112.79" stroke="#84967F" stroke-width="2" stroke-linecap="round" stroke-linejoin="round"/>
<path d="M81.49 120.4C80.9626 119.031 80.0343 117.852 78.8264 117.019C77.6185 116.186 76.1873 115.737 74.72 115.73H55C53.5326 115.737 52.1014 116.186 50.8935 117.019C49.6857 117.852 48.7573 119.031 48.23 120.4H81.49Z" stroke="#84967F" stroke-width="2" stroke-linecap="round" stroke-linejoin="round"/>
<path d="M78.91 38.5098C77.8384 38.0416 76.7023 37.7382 75.54 37.6098C76.7027 37.4897 77.8396 37.1894 78.91 36.7198C80.62 35.7198 81.39 33.8798 80.64 32.5798C79.89 31.2798 77.89 30.9998 76.18 31.9998C75.2428 32.6902 74.4166 33.5198 73.73 34.4598C74.2013 33.3922 74.5081 32.2593 74.64 31.0998C74.64 29.0998 73.42 27.5298 71.91 27.5298C70.4 27.5298 69.19 29.1298 69.19 31.0998C69.3218 32.2593 69.6286 33.3922 70.1 34.4598C69.4097 33.5196 68.5802 32.6901 67.64 31.9998C65.93 30.9998 63.94 31.2598 63.19 32.5698C62.44 33.8798 63.19 35.7198 64.92 36.7098C65.9869 37.1793 67.1205 37.4796 68.28 37.5998C67.1218 37.733 65.9897 38.0363 64.92 38.4998C63.21 39.4998 62.44 41.3398 63.19 42.6398C63.94 43.9398 65.93 44.1998 67.64 43.2098C68.5802 42.5195 69.4097 41.69 70.1 40.7498C69.6286 41.8174 69.3218 42.9502 69.19 44.1098C69.19 46.1098 70.41 47.6798 71.91 47.6798C73.41 47.6798 74.64 46.0798 74.64 44.1098C74.5081 42.9502 74.2013 41.8174 73.73 40.7498C74.4166 41.6898 75.2428 42.5193 76.18 43.2098C77.89 44.2098 79.89 43.9398 80.64 42.6398C81.39 41.3398 80.62 39.4898 78.91 38.5098Z" stroke="#84967F" stroke-width="2" stroke-linecap="round" stroke-linejoin="round"/>
<path d="M71.91 39.1401C72.755 39.1401 73.44 38.4551 73.44 37.6101C73.44 36.7651 72.755 36.0801 71.91 36.0801C71.065 36.0801 70.38 36.7651 70.38 37.6101C70.38 38.4551 71.065 39.1401 71.91 39.1401Z" fill="#84967F"/>
<path d="M62.09 69.7598C60.9245 69.7588 59.7652 69.9307 58.65 70.2698C59.6657 69.6941 60.5893 68.9694 61.39 68.1198C62.57 66.5398 62.55 64.5298 61.39 63.6298C60.23 62.7298 58.2 63.2798 57 64.8698C56.4211 65.8797 55.99 66.9675 55.72 68.0998C55.732 66.9349 55.5668 65.775 55.23 64.6598C54.45 62.8398 52.69 61.8598 51.31 62.4498C49.93 63.0398 49.47 64.9998 50.25 66.8098C50.8319 67.821 51.5598 68.7409 52.41 69.5398C51.4038 68.9486 50.3152 68.5105 49.18 68.2398C47.18 68.0098 45.49 69.0398 45.31 70.5298C45.13 72.0198 46.58 73.4198 48.54 73.6498C49.7128 73.6606 50.8802 73.4885 52 73.1398C50.9914 73.7215 50.0719 74.4456 49.27 75.2898C48.09 76.8698 48.11 78.8898 49.27 79.7798C50.43 80.6698 52.4 80.1298 53.58 78.5498C54.1692 77.5413 54.6008 76.4487 54.86 75.3098C54.8607 76.4778 55.0291 77.6397 55.36 78.7598C56.14 80.5698 57.89 81.5598 59.27 80.9598C60.65 80.3598 61.14 78.4098 60.36 76.5998C59.7781 75.5886 59.0503 74.6687 58.2 73.8698C59.2062 74.461 60.2948 74.8991 61.43 75.1698C63.43 75.3998 65.12 74.3798 65.29 72.8798C65.46 71.3798 64.05 69.9998 62.09 69.7598Z" stroke="#84967F" stroke-width="2" stroke-linecap="round" stroke-linejoin="round"/>
<path d="M55.32 73.2402C56.165 73.2402 56.85 72.5552 56.85 71.7102C56.85 70.8652 56.165 70.1802 55.32 70.1802C54.475 70.1802 53.79 70.8652 53.79 71.7102C53.79 72.5552 54.475 73.2402 55.32 73.2402Z" fill="#84967F"/>
<path d="M84.17 83.6398C83.3917 82.772 82.4925 82.021 81.5 81.4098C82.6021 81.7866 83.7555 81.9923 84.92 82.0198C86.92 81.8498 88.37 80.4998 88.24 79.0198C88.11 77.5398 86.41 76.4498 84.45 76.6198C83.307 76.8572 82.2052 77.2615 81.18 77.8198C82.0556 77.0503 82.8107 76.1536 83.42 75.1598C84.25 73.3698 83.83 71.3998 82.42 70.7698C81.01 70.1398 79.28 71.0698 78.42 72.8598C78.0463 73.9658 77.8439 75.1225 77.82 76.2898C77.615 75.1428 77.2374 74.0335 76.7 72.9998C75.57 71.3898 73.7 70.7798 72.43 71.6398C71.16 72.4998 71.11 74.5098 72.25 76.1298C73.0211 77.0049 73.9215 77.7569 74.92 78.3598C73.8144 77.9828 72.6577 77.7771 71.49 77.7498C69.49 77.9198 68.04 79.2698 68.17 80.7498C68.3 82.2298 70 83.3298 72 83.1598C73.1299 82.93 74.221 82.5393 75.24 81.9998C74.3679 82.7576 73.6131 83.6405 73 84.6198C72.17 86.4098 72.6 88.3798 74 89.0098C75.4 89.6398 77.14 88.7098 78 86.9198C78.3704 85.8132 78.5694 84.6565 78.59 83.4898C78.8193 84.6368 79.2205 85.7426 79.78 86.7698C80.91 88.3798 82.78 88.9998 84.06 88.1298C85.34 87.2598 85.3 85.2598 84.17 83.6398Z" stroke="#84967F" stroke-width="2" stroke-linecap="round" stroke-linejoin="round"/>
<path d="M78.2101 81.4101C79.055 81.4101 79.7401 80.7251 79.7401 79.8801C79.7401 79.0351 79.055 78.3501 78.2101 78.3501C77.3651 78.3501 76.6801 79.0351 76.6801 79.8801C76.6801 80.7251 77.3651 81.4101 78.2101 81.4101Z" fill="#84967F"/>
<path d="M43.26 60.1602C42.1864 59.6997 41.0509 59.3998 39.89 59.2702C41.0509 59.1405 42.1864 58.8407 43.26 58.3802C44.96 57.3802 45.74 55.5402 44.99 54.2302C44.24 52.9202 42.24 52.6802 40.53 53.6602C39.5949 54.3569 38.7691 55.1895 38.08 56.1302C38.5482 55.0622 38.8516 53.9293 38.98 52.7702C38.98 50.7702 37.77 49.2002 36.26 49.2002C34.75 49.2002 33.54 50.7902 33.54 52.7702C33.6718 53.9297 33.9787 55.0626 34.45 56.1302C33.7577 55.1922 32.9323 54.3601 32 53.6602C30.29 52.6602 28.3 52.9302 27.55 54.2302C26.8 55.5302 27.55 57.3902 29.28 58.3802C30.3501 58.8405 31.4823 59.1404 32.64 59.2702C31.4823 59.4 30.3501 59.6998 29.28 60.1602C27.57 61.1602 26.79 63.0102 27.55 64.3102C28.31 65.6102 30.29 65.8702 32 64.8802C32.9405 64.1864 33.77 63.3535 34.46 62.4102C33.9887 63.4778 33.6818 64.6106 33.55 65.7702C33.55 67.7702 34.77 69.3502 36.27 69.3502C37.77 69.3502 39 67.7502 39 65.7702C38.8716 64.6111 38.5682 63.4782 38.1 62.4102C38.7836 63.3556 39.6102 64.1889 40.55 64.8802C42.26 65.8802 44.26 65.6102 45.01 64.3102C45.76 63.0102 45 61.1502 43.26 60.1602Z" stroke="#84967F" stroke-width="2" stroke-linecap="round" stroke-linejoin="round"/>
<path d="M36.26 60.8002C37.105 60.8002 37.79 60.1152 37.79 59.2702C37.79 58.4252 37.105 57.7402 36.26 57.7402C35.415 57.7402 34.73 58.4252 34.73 59.2702C34.73 60.1152 35.415 60.8002 36.26 60.8002Z" fill="#84967F"/>
<path d="M92.07 23.4798C90.9996 23.0102 89.8627 22.7099 88.7 22.5898C89.8623 22.4614 90.9985 22.1579 92.07 21.6898C93.78 20.6898 94.55 18.8498 93.8 17.5498C93.05 16.2498 91.05 15.9998 89.35 16.9998C88.4098 17.6901 87.5803 18.5196 86.89 19.4598C87.3614 18.3922 87.6682 17.2593 87.8 16.0998C87.8 14.0998 86.58 12.5298 85.08 12.5298C83.58 12.5298 82.35 14.1298 82.35 16.0998C82.4819 17.2593 82.7887 18.3922 83.26 19.4598C82.5697 18.5196 81.7402 17.6901 80.8 16.9998C79.1 15.9998 77.1 16.2698 76.35 17.5698C75.6 18.8698 76.35 20.7298 78.08 21.7098C79.1516 22.1779 80.2877 22.4814 81.45 22.6098C80.2873 22.7299 79.1504 23.0302 78.08 23.4998C76.37 24.4998 75.6 26.3398 76.35 27.6398C77.1 28.9398 79.1 29.1998 80.8 28.2098C81.7402 27.5195 82.5697 26.69 83.26 25.7498C82.7887 26.8174 82.4819 27.9502 82.35 29.1098C82.35 31.1098 83.57 32.6798 85.08 32.6798C86.59 32.6798 87.8 31.0798 87.8 29.1098C87.6682 27.9502 87.3614 26.8174 86.89 25.7498C87.5803 26.69 88.4098 27.5195 89.35 28.2098C91.05 29.2098 93.05 28.9498 93.8 27.6398C94.55 26.3298 93.78 24.4698 92.07 23.4798Z" stroke="#84967F" stroke-width="2" stroke-linecap="round" stroke-linejoin="round"/>
<path d="M85.08 24.1201C85.925 24.1201 86.61 23.4351 86.61 22.5901C86.61 21.7451 85.925 21.0601 85.08 21.0601C84.2351 21.0601 83.55 21.7451 83.55 22.5901C83.55 23.4351 84.2351 24.1201 85.08 24.1201Z" fill="#84967F"/>
<path d="M64.2501 7.58984C66.1478 8.91587 67.554 10.8319 68.2501 13.0398C68.6899 15.3211 68.3629 17.6838 67.3201 19.7598C65.4255 18.4306 64.0202 16.5157 63.3201 14.3098C62.8802 12.0286 63.2072 9.66591 64.2501 7.58984Z" stroke="#84967F" stroke-width="2" stroke-linecap="round" stroke-linejoin="round"/>
<path d="M68.63 63.3498C69.9238 61.4351 71.8104 59.9982 74 59.2598C74.4244 61.5551 74.0726 63.9265 73 65.9998C71.6938 67.9193 69.7929 69.3564 67.59 70.0898C67.1778 67.79 67.5438 65.4184 68.63 63.3498Z" stroke="#84967F" stroke-width="2" stroke-linecap="round" stroke-linejoin="round"/>
<path d="M16.7 63.2599C18.9312 62.6089 21.3151 62.7144 23.48 63.5599C22.3382 65.5835 20.5592 67.1727 18.42 68.0799C16.1923 68.7316 13.8114 68.6261 11.65 67.7799C12.7863 65.7555 14.5625 64.1656 16.7 63.2599Z" stroke="#84967F" stroke-width="2" stroke-linecap="round" stroke-linejoin="round"/>
<path d="M91.53 32.8598C93.7449 32.1622 96.1281 32.215 98.31 33.0098C100.384 34.0552 102.054 35.7568 103.06 37.8498C100.847 38.5535 98.4625 38.5043 96.28 37.7098C94.2074 36.6581 92.5383 34.9539 91.53 32.8598Z" stroke="#84967F" stroke-width="2" stroke-linecap="round" stroke-linejoin="round"/>
<path d="M13.8199 54.0899C16.1411 54.026 18.4186 54.729 20.2999 56.0899C22.0162 57.6747 23.1561 59.7857 23.5399 62.0899C21.2188 62.1538 18.9413 61.4509 17.0599 60.0899C15.348 58.5019 14.2089 56.3925 13.8199 54.0899Z" stroke="#84967F" stroke-width="2" stroke-linecap="round" stroke-linejoin="round"/>
<path d="M57.24 20C59.5225 19.5878 61.8773 19.9392 63.94 21C65.8509 22.3083 67.2778 24.2096 68 26.41C65.7175 26.8253 63.3617 26.4737 61.3 25.41C59.3896 24.1011 57.9629 22.2001 57.24 20Z" stroke="#84967F" stroke-width="2" stroke-linecap="round" stroke-linejoin="round"/>
<path d="M84.99 32.6602V39.4502" stroke="#84967F" stroke-width="2" stroke-linecap="round" stroke-linejoin="round"/>
<path d="M68.5601 15.9902H77.8201" stroke="#84967F" stroke-width="2" stroke-linecap="round" stroke-linejoin="round"/>
<path d="M44.71 39.45V23.16C44.7126 21.2601 45.4692 19.439 46.8135 18.0965C48.1579 16.754 49.9801 16 51.88 16H63.88" stroke="#84967F" stroke-width="2" stroke-linecap="round" stroke-linejoin="round"/>
<path d="M80.9301 40H90.3701C91.3133 39.9987 92.2476 40.1835 93.1193 40.5439C93.991 40.9042 94.783 41.4331 95.45 42.1C96.117 42.767 96.6458 43.5591 97.0062 44.4308C97.3665 45.3025 97.5514 46.2367 97.5501 47.18V65.58" stroke="#84967F" stroke-width="2" stroke-linecap="round" stroke-linejoin="round"/>
<path d="M32.15 52V47.2C32.146 46.2567 32.3282 45.322 32.6862 44.4493C33.0441 43.5765 33.5707 42.783 34.2358 42.1142C34.901 41.4453 35.6915 40.9143 36.5623 40.5515C37.433 40.1887 38.3667 40.0013 39.31 40H63" stroke="#84967F" stroke-width="2" stroke-linecap="round" stroke-linejoin="round"/>
<path d="M73.59 65.5801H98.67C99.9188 65.5801 101.155 65.8261 102.309 66.304C103.463 66.7819 104.511 67.4824 105.395 68.3655C106.278 69.2486 106.978 70.297 107.456 71.4508C107.934 72.6046 108.18 73.8412 108.18 75.0901V96.0001" stroke="#84967F" stroke-width="2" stroke-linecap="round" stroke-linejoin="round"/>
<path d="M62.64 65.5801H67.68" stroke="#84967F" stroke-width="2" stroke-linecap="round" stroke-linejoin="round"/>
<path d="M38.98 65.5801H49.91" stroke="#84967F" stroke-width="2" stroke-linecap="round" stroke-linejoin="round"/>
<path d="M21.52 96.0001V75.0901C21.52 72.5731 22.5178 70.1587 24.2948 68.3761C26.0718 66.5935 28.483 65.588 31 65.5801H33.51" stroke="#84967F" stroke-width="2" stroke-linecap="round" stroke-linejoin="round"/>
</svg>
