<svg width="128" height="128" viewBox="0 0 128 128" fill="none" xmlns="http://www.w3.org/2000/svg">
<path d="M17.6201 68.8398L16.1001 70.3498" stroke="#84967F" stroke-width="2" stroke-linecap="round" stroke-linejoin="round"/>
<path d="M11.54 74.9199L10.02 76.4399" stroke="#84967F" stroke-width="2" stroke-linecap="round" stroke-linejoin="round"/>
<path d="M10.02 68.8398L11.54 70.3498" stroke="#84967F" stroke-width="2" stroke-linecap="round" stroke-linejoin="round"/>
<path d="M16.1001 74.9199L17.6201 76.4399" stroke="#84967F" stroke-width="2" stroke-linecap="round" stroke-linejoin="round"/>
<path d="M101.76 27.5098L100.24 29.0298" stroke="#84967F" stroke-width="2" stroke-linecap="round" stroke-linejoin="round"/>
<path d="M95.6799 33.6001L94.1599 35.1201" stroke="#84967F" stroke-width="2" stroke-linecap="round" stroke-linejoin="round"/>
<path d="M94.1599 27.5098L95.6799 29.0298" stroke="#84967F" stroke-width="2" stroke-linecap="round" stroke-linejoin="round"/>
<path d="M100.24 33.6001L101.76 35.1201" stroke="#84967F" stroke-width="2" stroke-linecap="round" stroke-linejoin="round"/>
<path d="M37.99 24.6099L36.47 26.1199" stroke="#84967F" stroke-width="2" stroke-linecap="round" stroke-linejoin="round"/>
<path d="M31.9099 30.6899L30.3899 32.2099" stroke="#84967F" stroke-width="2" stroke-linecap="round" stroke-linejoin="round"/>
<path d="M30.3899 24.6099L31.9099 26.1199" stroke="#84967F" stroke-width="2" stroke-linecap="round" stroke-linejoin="round"/>
<path d="M36.47 30.6899L37.99 32.2099" stroke="#84967F" stroke-width="2" stroke-linecap="round" stroke-linejoin="round"/>
<path d="M102.22 97.8299C102.22 98.0672 102.29 98.2992 102.422 98.4966C102.554 98.6939 102.741 98.8477 102.961 98.9385C103.18 99.0294 103.421 99.0531 103.654 99.0068C103.887 98.9605 104.101 98.8462 104.269 98.6784C104.436 98.5106 104.551 98.2968 104.597 98.064C104.643 97.8312 104.619 97.5899 104.529 97.3707C104.438 97.1514 104.284 96.964 104.087 96.8321C103.889 96.7003 103.657 96.6299 103.42 96.6299C103.102 96.6299 102.796 96.7563 102.571 96.9814C102.346 97.2064 102.22 97.5116 102.22 97.8299Z" fill="#84967F"/>
<path d="M114.13 36.8402C114.13 37.0779 114.201 37.3103 114.333 37.5079C114.465 37.7054 114.653 37.8592 114.873 37.9498C115.093 38.0403 115.335 38.0635 115.568 38.0163C115.801 37.9692 116.015 37.8539 116.182 37.6851C116.349 37.5163 116.463 37.3015 116.508 37.0681C116.553 36.8347 116.528 36.5931 116.436 36.374C116.343 36.1549 116.188 35.9682 115.989 35.8375C115.791 35.7069 115.558 35.6382 115.32 35.6402C115.163 35.6402 115.007 35.6713 114.862 35.7317C114.717 35.7921 114.586 35.8807 114.475 35.9922C114.364 36.1038 114.277 36.2362 114.218 36.3817C114.158 36.5272 114.129 36.6831 114.13 36.8402Z" fill="#84967F"/>
<path d="M89.77 69.8201C89.77 70.0575 89.8404 70.2895 89.9723 70.4868C90.1041 70.6841 90.2915 70.8379 90.5108 70.9288C90.7301 71.0196 90.9714 71.0434 91.2041 70.9971C91.4369 70.9508 91.6507 70.8365 91.8186 70.6686C91.9864 70.5008 92.1007 70.287 92.147 70.0542C92.1933 69.8214 92.1695 69.5802 92.0787 69.3609C91.9879 69.1416 91.834 68.9542 91.6367 68.8223C91.4394 68.6905 91.2074 68.6201 90.97 68.6201C90.6518 68.6201 90.3465 68.7465 90.1215 68.9716C89.8965 69.1966 89.77 69.5019 89.77 69.8201Z" fill="#84967F"/>
<path d="M84.6499 22.3099C84.65 22.5477 84.7206 22.7801 84.8529 22.9776C84.9852 23.1752 85.1732 23.329 85.3931 23.4195C85.6129 23.51 85.8547 23.5332 86.0878 23.4861C86.3208 23.4389 86.5346 23.3237 86.702 23.1548C86.8694 22.986 86.9829 22.7713 87.0281 22.5378C87.0733 22.3044 87.0481 22.0628 86.9557 21.8437C86.8633 21.6246 86.708 21.4379 86.5093 21.3073C86.3107 21.1766 86.0777 21.1079 85.8399 21.1099C85.6828 21.1099 85.5273 21.141 85.3822 21.2014C85.2372 21.2619 85.1056 21.3504 84.9949 21.462C84.8843 21.5735 84.7968 21.7059 84.7376 21.8514C84.6784 21.997 84.6486 22.1528 84.6499 22.3099Z" fill="#84967F"/>
<path d="M36.8999 42.9998C36.8999 43.2372 36.9703 43.4692 37.1022 43.6665C37.234 43.8639 37.4215 44.0177 37.6407 44.1085C37.86 44.1993 38.1013 44.2231 38.3341 44.1768C38.5668 44.1305 38.7806 44.0162 38.9485 43.8484C39.1163 43.6806 39.2306 43.4667 39.2769 43.234C39.3232 43.0012 39.2994 42.7599 39.2086 42.5406C39.1178 42.3214 38.964 42.1339 38.7666 42.0021C38.5693 41.8702 38.3373 41.7998 38.0999 41.7998C37.942 41.7985 37.7853 41.8286 37.6391 41.8885C37.493 41.9483 37.3601 42.0367 37.2484 42.1484C37.1367 42.26 37.0484 42.3929 36.9886 42.5391C36.9287 42.6852 36.8986 42.8419 36.8999 42.9998Z" fill="#84967F"/>
<path d="M21.22 83.0699C21.218 83.3077 21.2867 83.5407 21.4174 83.7393C21.548 83.938 21.7347 84.0933 21.9538 84.1857C22.1729 84.278 22.4145 84.3032 22.6479 84.2581C22.8814 84.2129 23.0961 84.0994 23.2649 83.932C23.4338 83.7646 23.5491 83.5508 23.5962 83.3177C23.6433 83.0847 23.6201 82.8429 23.5296 82.6231C23.4391 82.4032 23.2853 82.2152 23.0877 82.0829C22.8902 81.9506 22.6578 81.8799 22.42 81.8799C22.2629 81.8786 22.1071 81.9084 21.9615 81.9676C21.816 82.0268 21.6836 82.1143 21.5721 82.2249C21.4605 82.3356 21.372 82.4672 21.3115 82.6122C21.2511 82.7572 21.22 82.9128 21.22 83.0699Z" fill="#84967F"/>
<path d="M13.4199 95.7C13.4199 95.9373 13.4903 96.1693 13.6222 96.3667C13.754 96.564 13.9414 96.7178 14.1607 96.8087C14.38 96.8995 14.6213 96.9232 14.854 96.8769C15.0868 96.8306 15.3006 96.7164 15.4684 96.5485C15.6363 96.3807 15.7506 96.1669 15.7969 95.9341C15.8432 95.7013 15.8194 95.4601 15.7286 95.2408C15.6378 95.0215 15.4839 94.8341 15.2866 94.7022C15.0893 94.5704 14.8573 94.5 14.6199 94.5C14.3017 94.5 13.9964 94.6264 13.7714 94.8515C13.5464 95.0765 13.4199 95.3817 13.4199 95.7Z" fill="#84967F"/>
<path d="M14.6201 33.7098C14.6201 33.9471 14.6905 34.1791 14.8224 34.3765C14.9542 34.5738 15.1416 34.7276 15.3609 34.8184C15.5802 34.9092 15.8214 34.933 16.0542 34.8867C16.287 34.8404 16.5008 34.7261 16.6686 34.5583C16.8365 34.3905 16.9508 34.1767 16.9971 33.9439C17.0434 33.7111 17.0196 33.4698 16.9288 33.2505C16.8379 33.0313 16.6841 32.8439 16.4868 32.712C16.2895 32.5801 16.0575 32.5098 15.8201 32.5098C15.5019 32.5098 15.1966 32.6362 14.9716 32.8612C14.7465 33.0863 14.6201 33.3915 14.6201 33.7098Z" fill="#84967F"/>
<path d="M36.3401 94.2101C30.2761 90.6293 23.3817 88.6955 16.3401 88.6001" stroke="#84967F" stroke-width="2" stroke-linecap="round" stroke-linejoin="round"/>
<path d="M49.0001 112.31C49.0001 106.86 46.0001 101.83 41.3601 97.8301" stroke="#84967F" stroke-width="2" stroke-linecap="round" stroke-linejoin="round"/>
<path d="M113.3 88.8401C114.628 88.6879 115.963 88.6078 117.3 88.6001" stroke="#84967F" stroke-width="2" stroke-linecap="round" stroke-linejoin="round"/>
<path d="M84.6699 112.31C84.6699 102.65 94.1199 94.3099 105.22 90.6499" stroke="#84967F" stroke-width="2" stroke-linecap="round" stroke-linejoin="round"/>
<path d="M55.8399 111.88C55.8426 102.501 52.4656 93.4359 46.3277 86.3448C40.1897 79.2537 31.702 74.6119 22.4199 73.27" stroke="#84967F" stroke-width="2" stroke-linecap="round" stroke-linejoin="round"/>
<path d="M77.8701 111.88C77.8701 101.536 81.979 91.6166 89.293 84.3027C96.6069 76.9888 106.527 72.8799 116.87 72.8799" stroke="#84967F" stroke-width="2" stroke-linecap="round" stroke-linejoin="round"/>
<path d="M69.8601 111.88C69.8601 87.23 81.3001 66.25 97.3701 58.23" stroke="#84967F" stroke-width="2" stroke-linecap="round" stroke-linejoin="round"/>
<path d="M63.8499 111.88C63.8499 85.6199 50.8499 63.5199 33.1299 56.8799" stroke="#84967F" stroke-width="2" stroke-linecap="round" stroke-linejoin="round"/>
<path d="M66.8601 62.7302V46.7202" stroke="#84967F" stroke-width="2" stroke-linecap="round" stroke-linejoin="round"/>
<path d="M66.8601 56.0498V40.0498" stroke="#84967F" stroke-width="2" stroke-linecap="round" stroke-linejoin="round"/>
<path d="M66.8601 73.9598V68.2998" stroke="#84967F" stroke-width="2" stroke-linecap="round" stroke-linejoin="round"/>
<path d="M50.5099 45.8598L47.9099 38.8198" stroke="#84967F" stroke-width="2" stroke-linecap="round" stroke-linejoin="round"/>
<path d="M59.25 69.5399L53 52.6099" stroke="#84967F" stroke-width="2" stroke-linecap="round" stroke-linejoin="round"/>
<path d="M64.3401 83.3399L61.6101 75.9399" stroke="#84967F" stroke-width="2" stroke-linecap="round" stroke-linejoin="round"/>
<path d="M84.8401 41.4098L85.8001 38.8198" stroke="#84967F" stroke-width="2" stroke-linecap="round" stroke-linejoin="round"/>
<path d="M77.52 61.26L83.25 45.73" stroke="#84967F" stroke-width="2" stroke-linecap="round" stroke-linejoin="round"/>
<path d="M71.4399 77.7301L75.2799 67.3101" stroke="#84967F" stroke-width="2" stroke-linecap="round" stroke-linejoin="round"/>
<path d="M66.86 32.7299L61.93 37.2899L62.41 30.5899L55.78 29.5799L61.32 25.7899L57.97 19.9599L64.39 21.9299L66.86 15.6899L69.32 21.9299L75.74 19.9599L72.4 25.7899L77.94 29.5799L71.3 30.5899L71.79 37.2899L66.86 32.7299Z" stroke="#84967F" stroke-width="2" stroke-linecap="round" stroke-linejoin="round"/>
<path d="M106.67 57.9199L101.35 62.0299L102.43 55.3999L95.9099 53.7999L101.76 50.5099L98.9399 44.4199L105.16 46.9499L108.17 40.9399L110.08 47.3799L116.64 45.9899L112.8 51.4899L117.98 55.7599L111.28 56.1799L111.18 62.8999L106.67 57.9199Z" stroke="#84967F" stroke-width="2" stroke-linecap="round" stroke-linejoin="round"/>
<path d="M23.23 55.6601L18.56 60.4801L18.68 53.7701L11.99 53.1201L17.32 49.0301L13.66 43.4001L20.17 45.0101L22.29 38.6401L25.1 44.7401L31.4 42.4201L28.38 48.4201L34.12 51.9001L27.55 53.2801L28.4 59.9401L23.23 55.6601Z" stroke="#84967F" stroke-width="2" stroke-linecap="round" stroke-linejoin="round"/>
</svg>
