<svg width="128" height="128" viewBox="0 0 128 128" fill="none" xmlns="http://www.w3.org/2000/svg">
<path d="M82.88 23.1499H45.12C44.9853 23.1504 44.8521 23.1781 44.7284 23.2314C44.6047 23.2847 44.493 23.3624 44.4 23.4599L35.56 32.7299C35.3768 32.9168 35.2742 33.1682 35.2742 33.4299C35.2742 33.6917 35.3768 33.943 35.56 34.1299L63.29 61.8099C63.383 61.9036 63.4936 61.978 63.6155 62.0288C63.7373 62.0796 63.868 62.1057 64 62.1057C64.132 62.1057 64.2627 62.0796 64.3846 62.0288C64.5065 61.978 64.6171 61.9036 64.71 61.8099L92.42 34.1299C92.6033 33.943 92.7059 33.6917 92.7059 33.4299C92.7059 33.1682 92.6033 32.9168 92.42 32.7299L83.6 23.4599C83.5071 23.3624 83.3954 23.2847 83.2717 23.2314C83.1479 23.1781 83.0147 23.1504 82.88 23.1499ZM89.38 32.4199H77.19L70.26 25.1499H82.45L89.38 32.4199ZM67.5 25.1499L74.43 32.4199H53.57L60.51 25.1499H67.5ZM75.29 34.4199L64 58.1499L52.71 34.4199H75.29ZM50.49 34.4199L61.17 56.8599L38.7 34.4199H50.49ZM77.49 34.4199H89.3L66.83 56.8699L77.49 34.4199ZM45.49 25.1499H57.74L50.81 32.4199H38.62L45.49 25.1499Z" fill="#297C72"/>
<path d="M63.9999 124C72.1069 123.984 79.9673 121.21 86.2886 116.134C92.6099 111.058 97.016 103.982 98.7823 96.0701C100.549 88.1578 99.57 79.8799 96.0075 72.5976C92.445 65.3152 86.5105 59.4618 79.1799 55.9998L82.2399 52.9398C82.4037 52.7485 82.4893 52.5024 82.4796 52.2507C82.4699 51.999 82.3655 51.7603 82.1874 51.5822C82.0094 51.4041 81.7706 51.2998 81.5189 51.29C81.2673 51.2803 81.0212 51.3659 80.8299 51.5298L63.9999 68.3198L47.1699 51.5198C46.9786 51.3559 46.7325 51.2703 46.4808 51.28C46.2292 51.2898 45.9904 51.3941 45.8123 51.5722C45.6342 51.7503 45.5299 51.989 45.5202 52.2407C45.5105 52.4924 45.5961 52.7385 45.7599 52.9298L48.8199 55.9998C41.4892 59.4618 35.5548 65.3152 31.9923 72.5976C28.4298 79.8799 27.4512 88.1578 29.2175 96.0701C30.9838 103.982 35.3898 111.058 41.7112 116.134C48.0325 121.21 55.8929 123.984 63.9999 124ZM63.9999 70.6998C64.1322 70.6992 64.2631 70.6724 64.3849 70.6209C64.5068 70.5694 64.6173 70.4942 64.7099 70.3998L73.3999 61.7198C79.6661 63.937 84.9469 68.2978 88.3091 74.0317C91.6712 79.7656 92.8983 86.5035 91.7735 93.0545C90.6486 99.6056 87.2443 105.548 82.162 109.832C77.0798 114.116 70.6468 116.466 63.9999 116.466C57.353 116.466 50.92 114.116 45.8377 109.832C40.7555 105.548 37.3511 99.6056 36.2263 93.0545C35.1015 86.5035 36.3286 79.7656 39.6907 74.0317C43.0529 68.2978 48.3337 63.937 54.5999 61.7198L63.2899 70.3998C63.3791 70.5015 63.488 70.5841 63.61 70.6426C63.7321 70.701 63.8647 70.7341 63.9999 70.7398V70.6998ZM50.3199 57.4898L52.9999 60.2098C46.4435 62.7652 40.9861 67.5314 37.5714 73.6842C34.1567 79.837 32.9993 86.9896 34.2995 93.9053C35.5996 100.821 39.2754 107.065 44.6914 111.558C50.1074 116.05 56.923 118.509 63.9599 118.509C70.9967 118.509 77.8124 116.05 83.2284 111.558C88.6444 107.065 92.3202 100.821 93.6203 93.9053C94.9204 86.9896 93.7631 79.837 90.3484 73.6842C86.9337 67.5314 81.4763 62.7652 74.9199 60.2098L77.6399 57.4898C84.707 60.6255 90.4823 66.0938 93.9989 72.9793C97.5155 79.8648 98.5599 87.7494 96.9573 95.3129C95.3546 102.877 91.2022 109.66 85.1952 114.527C79.1882 119.395 71.6914 122.051 63.9599 122.051C56.2284 122.051 48.7315 119.395 42.7246 114.527C36.7176 109.66 32.5652 102.877 30.9625 95.3129C29.3599 87.7494 30.4043 79.8648 33.9209 72.9793C37.4375 66.0938 43.2128 60.6255 50.2799 57.4898H50.3199Z" fill="#297C72"/>
<path d="M64 13.28C64.2653 13.28 64.5196 13.1746 64.7072 12.9871C64.8947 12.7996 65.0001 12.5452 65.0001 12.28V6C65.0001 5.73478 64.8947 5.48043 64.7072 5.29289C64.5196 5.10536 64.2653 5 64 5C63.7348 5 63.4805 5.10536 63.2929 5.29289C63.1054 5.48043 63.0001 5.73478 63.0001 6V12.27C62.9987 12.4022 63.0236 12.5333 63.0733 12.6558C63.1229 12.7782 63.1964 12.8897 63.2894 12.9836C63.3824 13.0775 63.4931 13.1521 63.615 13.2029C63.737 13.2538 63.8679 13.28 64 13.28Z" fill="#297C72"/>
<path d="M90.4101 20.94C90.5862 20.9381 90.7586 20.8898 90.9101 20.8L96.3401 17.67C96.4547 17.6046 96.5552 17.5173 96.6359 17.4129C96.7166 17.3086 96.7758 17.1893 96.8102 17.062C96.8446 16.9346 96.8534 16.8017 96.8363 16.671C96.8191 16.5402 96.7762 16.4141 96.7101 16.3C96.6439 16.1862 96.5559 16.0866 96.4512 16.0069C96.3465 15.9272 96.2271 15.869 96.0998 15.8356C95.9725 15.8021 95.8399 15.7941 95.7095 15.812C95.5792 15.83 95.4536 15.8734 95.3401 15.94L89.9101 19.07C89.7174 19.1791 89.5665 19.3491 89.4809 19.5533C89.3952 19.7575 89.3798 19.9844 89.437 20.1983C89.4942 20.4122 89.6208 20.6011 89.7969 20.7353C89.973 20.8695 90.1887 20.9415 90.4101 20.94Z" fill="#297C72"/>
<path d="M31.66 17.67L37.09 20.8C37.2035 20.8665 37.3291 20.91 37.4594 20.9279C37.5898 20.9458 37.7224 20.9378 37.8497 20.9043C37.977 20.8709 38.0964 20.8127 38.2011 20.733C38.3059 20.6533 38.3938 20.5537 38.46 20.44C38.5261 20.3258 38.569 20.1997 38.5862 20.069C38.6034 19.9382 38.5945 19.8053 38.5601 19.678C38.5257 19.5506 38.4665 19.4313 38.3858 19.327C38.3051 19.2226 38.2046 19.1353 38.09 19.07L32.66 15.94C32.5464 15.8734 32.4209 15.83 32.2905 15.812C32.1602 15.7941 32.0275 15.8021 31.9003 15.8356C31.773 15.869 31.6536 15.9272 31.5488 16.0069C31.4441 16.0866 31.3561 16.1862 31.29 16.3C31.2239 16.4141 31.181 16.5402 31.1638 16.671C31.1466 16.8017 31.1555 16.9346 31.1899 17.062C31.2243 17.1893 31.2835 17.3086 31.3642 17.4129C31.4449 17.5173 31.5454 17.6046 31.66 17.67Z" fill="#297C72"/>
<path d="M44.6599 16.2699C44.748 16.4225 44.8749 16.5491 45.0277 16.6369C45.1804 16.7247 45.3537 16.7706 45.5299 16.7699C45.7049 16.7688 45.8766 16.7218 46.0278 16.6336C46.179 16.5454 46.3044 16.4191 46.3914 16.2673C46.4785 16.1154 46.5242 15.9434 46.5239 15.7684C46.5236 15.5933 46.4774 15.4214 46.3899 15.2699L43.2599 9.83987C43.1273 9.60913 42.9085 9.44052 42.6516 9.37114C42.3946 9.30175 42.1207 9.33726 41.8899 9.46987C41.6592 9.60248 41.4906 9.82132 41.4212 10.0782C41.3518 10.3352 41.3873 10.6091 41.5199 10.8399L44.6599 16.2699Z" fill="#297C72"/>
<path d="M81.9999 16.64C82.1523 16.7264 82.3247 16.7712 82.4999 16.77C82.6761 16.7707 82.8494 16.7248 83.0022 16.637C83.1549 16.5492 83.2818 16.4226 83.3699 16.27L86.4999 10.84C86.6311 10.6116 86.6669 10.3406 86.5995 10.086C86.5321 9.83134 86.3669 9.61358 86.1399 9.48C86.0264 9.41346 85.9008 9.36999 85.7704 9.35208C85.6401 9.33417 85.5075 9.34216 85.3802 9.37561C85.2529 9.40905 85.1335 9.46729 85.0288 9.54698C84.924 9.62667 84.8361 9.72624 84.7699 9.84L81.6399 15.27C81.5734 15.3835 81.5299 15.5091 81.512 15.6395C81.4941 15.7698 81.5021 15.9025 81.5355 16.0297C81.569 16.157 81.6272 16.2764 81.7069 16.3811C81.7866 16.4859 81.8862 16.5738 81.9999 16.64Z" fill="#297C72"/>
<path d="M54.26 13.2399C54.3186 13.4581 54.4493 13.65 54.6309 13.7844C54.8125 13.9187 55.0342 13.9877 55.26 13.9799H55.52C55.6468 13.9452 55.7655 13.8858 55.8693 13.8052C55.9731 13.7246 56.06 13.6243 56.125 13.5101C56.19 13.3958 56.2319 13.2699 56.2482 13.1394C56.2645 13.009 56.2549 12.8767 56.22 12.7499L54.57 6.66993C54.5433 6.53609 54.4894 6.40914 54.4118 6.29689C54.3342 6.18464 54.2344 6.08947 54.1186 6.01724C54.0028 5.94502 53.8734 5.89725 53.7385 5.8769C53.6035 5.85655 53.4658 5.86404 53.3339 5.89891C53.2019 5.93378 53.0785 5.99528 52.9712 6.07965C52.8639 6.16401 52.7751 6.26944 52.7101 6.38944C52.6451 6.50945 52.6053 6.64149 52.5933 6.77744C52.5812 6.91339 52.5971 7.05036 52.64 7.17993L54.26 13.2399Z" fill="#297C72"/>
<path d="M72.5101 13.9999H72.7701C72.9959 14.0077 73.2176 13.9387 73.3992 13.8044C73.5808 13.67 73.7115 13.4781 73.7701 13.2599L75.3901 7.19995C75.433 7.07038 75.4489 6.93341 75.4368 6.79746C75.4248 6.66151 75.385 6.52947 75.32 6.40946C75.255 6.28946 75.1662 6.18403 75.0589 6.09967C74.9516 6.0153 74.8282 5.9538 74.6962 5.91893C74.5643 5.88406 74.4266 5.87657 74.2916 5.89692C74.1567 5.91727 74.0273 5.96503 73.9115 6.03726C73.7957 6.10949 73.6959 6.20466 73.6183 6.31691C73.5407 6.42916 73.4868 6.55611 73.4601 6.68995L71.8401 12.7399C71.8001 12.8666 71.7857 13 71.7979 13.1323C71.81 13.2646 71.8484 13.3932 71.9108 13.5105C71.9731 13.6278 72.0583 13.7315 72.1612 13.8155C72.2641 13.8996 72.3827 13.9623 72.5101 13.9999Z" fill="#297C72"/>
</svg>
